<?xml version="1.0" encoding="UTF-8"?><svg width="64" height="64" version="1.1" viewBox="5.33341 -118.638 64 64" xmlns="http://www.w3.org/2000/svg" xmlns:xlink="http://www.w3.org/1999/xlink"><!--Generated by IJSVG (https://github.com/iconjar/IJSVG)--><path d="M1113.24,-1662.75c0,30.004 -0.19,60.014 -0.19,90.208c262.89,0.388 525.78,0 788.662,0.198c0,-30.01 -0.19,-60.014 -0.19,-90.016c-52.846,-10.65 -118.09,-25.556 -138.416,-83.046c-201.904,-502.352 -406.726,-1003.74 -605.922,-1507.06c-145.576,-2.516 -291.152,-1.55 -436.728,-0.578c27.1,60.79 49.752,123.502 77.824,183.904c-170.548,443.114 -343.808,885.452 -516.878,1327.6c-19.552,56.334 -83.632,68.922 -134.926,79.564c0,29.622 -0.19,59.436 -0.19,89.248c167.644,0.776 335.286,0.19 502.93,0.388c-0.19,-30.39 -0.19,-60.592 -0.38,-90.792c-52.656,-8.126 -113.056,-7.16 -155.838,-43.556c-33.682,-32.52 -18.776,-83.244 -4.842,-121.38c33.492,-86.528 65.244,-173.838 101.83,-259.21c203.074,1.162 405.942,-0.19 609.016,0.578c27.882,69.302 55.756,138.796 83.632,208.296c18.586,46.84 35.43,99.306 20.326,149.636c-39.11,64.864 -123.896,60.994 -189.718,66.018Zm-462.666,-585.588c77.824,-206.752 160.286,-411.948 236.558,-619.278c82.278,206.556 165.128,412.914 247.596,619.278c-161.448,0.768 -322.706,0.768 -484.154,0Z" transform="scale(0.0364583)" fill="#000"></path></svg>