<?xml version="1.0" encoding="UTF-8"?><svg width="64" height="64" version="1.1" viewBox="7.29137e-05 -122.662 64 64" xmlns="http://www.w3.org/2000/svg" xmlns:xlink="http://www.w3.org/1999/xlink"><!--Generated by IJSVG (https://github.com/iconjar/IJSVG)--><path d="M628.802,-2376.96c107.638,0.52 215.136,0.52 322.772,0c-54.974,-137.574 -110.212,-275.148 -165.062,-412.854c-50.848,138.218 -105.83,275.024 -157.71,412.854Zm1030.06,-891.042c-64.358,-64.424 -141.86,-96.57 -232.572,-96.57h-1097.14c-90.712,0 -168.14,32.146 -232.572,96.57c-64.424,64.286 -96.57,141.86 -96.57,232.572v1097.14c0,90.712 32.146,168.288 96.57,232.712c64.432,64.146 142,96.432 232.572,96.432h1097.14c90.712,0 168.214,-32.286 232.572,-96.57c64.432,-64.432 96.644,-141.86 96.644,-232.572v-1097.14c0,-90.712 -32.22,-168.288 -96.644,-232.572Zm-721.744,1341.58c0,-20.128 0.132,-40.134 0.132,-60.138c43.878,-3.358 100.404,-0.776 126.472,-44.01c10.064,-33.55 -1.162,-68.528 -13.546,-99.76c-18.586,-46.336 -37.172,-92.664 -55.75,-138.87c-135.388,-0.52 -270.636,0.388 -406.016,-0.388c-24.394,56.912 -45.56,115.12 -67.884,172.808c-9.296,25.424 -19.23,59.238 3.226,80.918c28.526,24.262 68.79,23.618 103.892,29.038c0.132,20.136 0.132,40.266 0.256,60.526c-111.762,-0.132 -223.524,0.256 -335.286,-0.256c0,-19.872 0.132,-39.746 0.132,-59.494c34.202,-7.094 76.918,-15.484 89.952,-53.044c115.382,-294.766 230.882,-589.664 344.584,-885.072c-18.718,-40.258 -33.822,-82.08 -51.888,-122.602c97.054,-0.644 194.1,-1.288 291.152,0.388c132.798,335.542 269.342,669.806 403.946,1004.7c13.554,38.326 57.044,48.266 92.278,55.37c0,20.004 0.132,40.01 0.132,60.006c-175.258,-0.124 -350.516,0.132 -525.78,-0.124Z" transform="scale(0.0364568)" fill="#000"></path></svg>