<?xml version="1.0" encoding="UTF-8"?><svg width="64" height="64" version="1.1" viewBox="7.29137e-05 -122.662 64 64" xmlns="http://www.w3.org/2000/svg" xmlns:xlink="http://www.w3.org/1999/xlink"><!--Generated by IJSVG (https://github.com/iconjar/IJSVG)--><path d="M1658.86,-3268c-64.358,-64.424 -141.86,-96.57 -232.572,-96.57h-1097.14c-90.712,0 -168.14,32.146 -232.572,96.57c-64.424,64.286 -96.57,141.86 -96.57,232.572v1097.14c0,90.712 32.146,168.288 96.57,232.712c64.432,64.146 142,96.432 232.572,96.432h1097.14c90.712,0 168.214,-32.286 232.572,-96.57c64.432,-64.432 96.644,-141.86 96.644,-232.572v-1097.14c0,-90.712 -32.22,-168.288 -96.644,-232.572Zm-273.466,1366.29c-31.846,0.768 -455.182,-437.496 -507.64,-458.314c-52.458,20.816 -475.794,459.082 -507.64,458.314v-220.102c22.974,-39.944 459.446,-446.516 507.64,-479.612c48.194,33.098 484.666,439.662 507.64,479.612v220.102Zm0,-470.572c-31.846,0.768 -455.182,-437.496 -507.64,-458.314c-52.458,20.816 -475.794,459.082 -507.64,458.314v-220.102c22.974,-39.95 459.446,-446.516 507.64,-479.612c48.194,33.098 484.666,439.662 507.64,479.612v220.102Z" transform="scale(0.0364568)" fill="#000"></path></svg>