<?xml version="1.0" encoding="UTF-8"?><svg width="64" height="64" version="1.1" viewBox="5.33334 -122.667 64 64" xmlns="http://www.w3.org/2000/svg" xmlns:xlink="http://www.w3.org/1999/xlink"><!--Generated by IJSVG (https://github.com/iconjar/IJSVG)--><path d="M1024,-3364.57l-877.714,877.714l877.714,877.714l877.714,-877.714l-877.714,-877.714Zm0.08,1413.51c-297.092,0 -538.01,-240.758 -538.01,-537.848c0,-297.252 240.918,-538.178 538.01,-538.178c297.252,0 537.856,240.926 537.856,538.178c0,297.092 -240.604,537.848 -537.856,537.848Zm-333.706,-519.952c-6.408,2.136 -11.33,5.42 -14.614,10.02c-3.614,4.6 -5.588,10.51 -5.588,17.738c0,10.84 3.124,18.396 8.872,22.498c5.75,4.11 14.454,5.91 26.112,5.91c5.91,0 12.486,-0.98 18.886,-4.264c6.898,-2.626 12.808,-6.898 18.066,-11.988v-48.45c-12.318,1.31 -22.17,2.464 -29.564,3.446c-7.394,0.82 -14.944,2.296 -22.17,5.09Zm333.626,-502.206c-266.89,0 -483.24,216.356 -483.24,483.248c0,266.884 216.35,483.24 483.24,483.24c266.89,0 483.248,-216.356 483.248,-483.24c0,-266.89 -216.356,-483.248 -483.248,-483.248Zm-208.984,603.048h-72.916v-24.466c-4.93,3.936 -9.362,7.556 -13.466,11c-3.774,3.446 -8.864,6.408 -15.602,9.86c-6.568,3.446 -12.646,5.91 -19.054,7.226c-6.078,1.806 -14.614,2.626 -25.782,2.626c-20.532,0 -37.61,-7.226 -51.076,-20.86c-13.634,-13.962 -20.532,-31.042 -20.532,-52.232c0,-17.568 3.452,-31.532 10.35,-42.042c7.066,-10.672 16.918,-19.214 29.726,-25.454c13.136,-6.24 28.906,-10.672 46.972,-13.136c18.396,-2.296 37.932,-4.6 59.122,-5.75v-1.47c0,-12.646 -4.93,-21.68 -14.284,-26.442c-9.524,-4.93 -23.654,-7.388 -42.7,-7.388c-8.704,0 -18.556,1.646 -30.054,4.922c-11.338,2.794 -22.498,7.066 -33.668,11.828h-5.91v-56.328c7.226,-2.296 18.724,-4.6 34.816,-7.556c16.092,-2.962 32.19,-4.44 48.778,-4.44c40.074,0 69.142,6.898 87.53,20.034c18.556,13.466 27.758,33.996 27.758,61.258v158.808Zm234.848,-158.486h-9.362c-2.626,-2.786 -6.408,-5.91 -10.51,-8.864c-4.44,-3.614 -8.704,-6.568 -13.794,-9.202c-5.258,-3.284 -11.498,-5.252 -17.738,-7.556c-6.898,-1.968 -14.292,-3.124 -22.498,-3.124c-18.556,0 -33.016,6.408 -43.19,19.544c-10.02,12.808 -15.44,30.216 -15.44,52.064c0,23.158 5.58,40.726 16.42,52.224c10.84,11.33 25.132,17.078 43.36,17.078c9.194,0 17.408,-1.148 24.474,-2.954c6.73,-2.136 12.646,-4.762 17.408,-7.556c5.09,-2.954 9.362,-5.75 12.808,-9.034c3.452,-2.954 6.568,-5.75 8.704,-8.206h9.362v62.076c-4.11,1.814 -8.872,3.942 -14.454,6.408c-5.42,2.136 -10.672,4.11 -16.588,5.588c-6.898,2.296 -13.794,3.284 -19.872,4.432c-6.24,1.148 -14.292,1.806 -24.466,1.806c-19.214,0 -37.112,-2.626 -53.05,-7.394c-15.762,-4.922 -29.558,-12.318 -41.384,-22.338c-11.828,-10.342 -20.86,-22.988 -27.428,-38.1c-6.568,-15.28 -9.684,-33.506 -9.684,-54.03c0,-22.498 3.284,-41.056 10.51,-56.992c7.066,-15.602 16.42,-28.408 28.738,-38.43c11.658,-9.684 25.292,-16.918 41.224,-21.512c15.602,-4.762 32.022,-7.066 49.1,-7.066c12.814,0 25.952,1.646 38.59,4.762c12.976,2.786 25.782,7.556 38.758,14.124v62.252Zm317.454,158.486v-116.604c0,-11.33 -0.168,-20.86 -0.658,-28.906c-0.498,-7.878 -1.806,-14.454 -3.942,-19.382c-1.974,-5.09 -5.42,-8.544 -9.692,-10.84c-4.264,-2.458 -10.51,-3.446 -18.228,-3.446c-5.588,0 -11.008,0.988 -16.588,3.446c-5.42,2.464 -11.33,6.078 -17.738,10.35v165.376h-72.748v-116.604c0,-11.33 -0.168,-20.86 -0.658,-28.906c-0.658,-7.878 -1.638,-14.454 -3.774,-19.382c-2.296,-5.09 -5.42,-8.544 -9.684,-10.84c-4.6,-2.458 -10.672,-3.446 -18.396,-3.446c-6.078,0 -11.828,1.31 -17.576,3.942c-5.75,2.954 -11.33,6.24 -16.582,9.852v165.376h-72.762v-233.04h72.756v25.782c11.828,-10.02 23.158,-18.058 33.668,-23.816c10.35,-5.588 22.176,-8.544 35.474,-8.544c14.124,0 26.77,3.446 37.28,10.182c11.168,6.73 19.214,16.75 24.964,30.384c13.962,-12.976 27.26,-22.996 39.416,-30.054c12.486,-7.066 24.956,-10.51 37.61,-10.51c10.84,0 20.524,1.974 29.236,5.252c8.544,3.614 15.93,8.872 21.68,15.602c6.73,7.556 11.498,16.42 14.614,26.77c3.452,10.35 4.93,23.654 4.93,40.404v151.582h-72.602Z" transform="scale(0.0364583)" fill="#000"></path></svg>