<?xml version="1.0" encoding="UTF-8"?><svg width="64" height="64" version="1.1" viewBox="7.29137e-05 -122.662 64 64" xmlns="http://www.w3.org/2000/svg" xmlns:xlink="http://www.w3.org/1999/xlink"><!--Generated by IJSVG (https://github.com/iconjar/IJSVG)--><path d="M429.436,-2488.57c0,247.574 200.77,448.212 448.352,448.212c247.712,0 448.204,-200.63 448.204,-448.212c0,-247.712 -200.492,-448.482 -448.204,-448.482c-247.582,0 -448.352,200.77 -448.352,448.482Zm448.278,-403.594c222.406,0 402.702,180.298 402.702,402.702c0,222.404 -180.298,402.71 -402.702,402.71c-222.404,0 -402.702,-180.298 -402.702,-402.702c0,-222.404 180.298,-402.71 402.702,-402.71Zm-119.954,482.97c9.852,8.346 21.35,14.504 34.494,18.614c13.276,3.972 28.19,6.158 44.2,6.158c8.484,0 15.192,-0.548 20.392,-1.506c5.062,-0.958 10.81,-1.778 16.56,-3.694c4.922,-1.228 9.304,-2.874 13.824,-4.66c4.652,-2.056 8.624,-3.832 12.046,-5.332v-51.734h-7.812c-1.778,2.056 -4.382,4.382 -7.256,6.846c-2.868,2.736 -6.43,5.062 -10.672,7.526c-3.972,2.326 -8.894,4.512 -14.504,6.298c-5.888,1.506 -12.726,2.464 -20.392,2.464c-15.192,0 -27.1,-4.79 -36.132,-14.234c-9.034,-9.582 -13.686,-24.224 -13.686,-43.52c0,-18.198 4.52,-32.71 12.866,-43.382c8.484,-10.95 20.524,-16.288 35.994,-16.288c6.846,0 13.004,0.958 18.746,2.596c5.2,1.916 10.4,3.554 14.782,6.298c4.242,2.194 7.798,4.66 11.498,7.666c3.424,2.464 6.568,5.062 8.762,7.394h7.804v-51.872c-10.81,-5.472 -21.49,-9.442 -32.3,-11.768c-10.54,-2.596 -21.49,-3.972 -32.16,-3.972c-14.234,0 -27.918,1.916 -40.924,5.888c-13.276,3.832 -24.634,9.852 -34.348,17.928c-10.262,8.346 -18.066,19.024 -23.954,32.022c-6.02,13.276 -8.762,28.738 -8.762,47.492c0,17.108 2.596,32.3 8.074,45.026c5.478,12.588 13.004,23.12 22.858,31.744Zm-163.68,-103.33c-15.06,2.056 -28.196,5.75 -39.146,10.95c-10.672,5.2 -18.886,12.318 -24.774,21.212c-5.75,8.762 -8.624,20.384 -8.624,35.036c0,17.65 5.75,31.882 17.108,43.52c11.22,11.36 25.454,17.386 42.562,17.386c9.312,0 16.42,-0.68 21.49,-2.194c5.332,-1.098 10.4,-3.146 15.872,-6.02c5.61,-2.874 9.852,-5.34 12.998,-8.206c3.424,-2.874 7.116,-5.888 11.22,-9.172v20.392h60.774v-132.338c0,-22.718 -7.658,-39.826 -23.128,-51.046c-15.33,-10.95 -39.556,-16.698 -72.946,-16.698c-13.824,0 -27.238,1.228 -40.646,3.694c-13.408,2.458 -22.988,4.382 -29.016,6.298v46.944h4.93c9.304,-3.972 18.614,-7.526 28.05,-9.852c9.582,-2.736 17.788,-4.11 25.044,-4.11c15.872,0 27.648,2.056 35.584,6.158c7.798,3.972 11.908,11.498 11.908,22.038v1.228c-17.65,0.95 -33.938,2.868 -49.262,4.784Zm48.722,72.126c-4.382,4.242 -9.304,7.798 -15.052,9.992c-5.34,2.736 -10.81,3.554 -15.734,3.554c-9.72,0 -16.976,-1.506 -21.76,-4.93c-4.79,-3.424 -7.388,-9.714 -7.388,-18.746c0,-6.02 1.646,-10.95 4.652,-14.782c2.736,-3.832 6.846,-6.568 12.178,-8.346c6.02,-2.326 12.324,-3.554 18.476,-4.242c6.158,-0.82 14.372,-1.784 24.634,-2.868v40.368Zm1016.06,-827.604c-64.358,-64.424 -141.86,-96.57 -232.572,-96.57h-1097.14c-90.712,0 -168.14,32.146 -232.572,96.57c-64.424,64.286 -96.57,141.86 -96.57,232.572v1097.14c0,90.712 32.146,168.288 96.57,232.712c64.432,64.146 142,96.432 232.572,96.432h1097.14c90.712,0 168.214,-32.286 232.572,-96.57c64.432,-64.432 96.644,-141.86 96.644,-232.572v-1097.14c0,-90.712 -32.22,-168.288 -96.644,-232.572Zm-781.144,1512.57l-731.428,-731.428l731.428,-731.428l731.428,731.428l-731.428,731.428Zm114.212,-772.008c4.382,-3.006 9.034,-5.75 13.824,-8.206c4.79,-2.194 9.582,-3.284 14.644,-3.284c6.436,0 11.498,0.82 15.33,2.874c3.554,1.916 6.158,4.79 8.074,9.034c1.784,4.11 2.604,9.582 3.146,16.15c0.41,6.708 0.548,14.65 0.548,24.086v97.17h60.62v-137.816c5.332,-3.554 10.262,-6.568 14.782,-8.624c4.652,-2.056 9.164,-2.874 13.824,-2.874c6.436,0 11.638,0.82 15.192,2.874c3.554,1.916 6.436,4.79 8.074,9.034c1.784,4.11 2.874,9.582 3.284,16.15c0.41,6.708 0.548,14.65 0.548,24.086v97.17h60.49v-126.326c0,-13.962 -1.228,-25.044 -4.11,-33.668c-2.596,-8.624 -6.568,-16.01 -12.178,-22.308c-4.79,-5.61 -10.95,-9.998 -18.066,-13.004c-7.256,-2.736 -15.324,-4.382 -24.364,-4.382c-10.532,0 -20.94,2.874 -31.342,8.762c-10.13,5.888 -21.212,14.234 -32.842,25.044c-4.79,-11.36 -11.498,-19.704 -20.802,-25.314c-8.762,-5.61 -19.302,-8.484 -31.064,-8.484c-11.088,0 -20.94,2.464 -29.564,7.124c-8.762,4.79 -18.198,11.498 -28.05,19.844v-21.49h-60.628v194.202h60.628v-137.824Z" transform="scale(0.0364568)" fill="#000"></path></svg>