<?xml version="1.0" encoding="UTF-8"?><svg width="64" height="64" version="1.1" viewBox="7.29137e-05 -122.662 64 64" xmlns="http://www.w3.org/2000/svg" xmlns:xlink="http://www.w3.org/1999/xlink"><!--Generated by IJSVG (https://github.com/iconjar/IJSVG)--><path d="M856.584,-2644.32c-17.372,-16.816 -34.384,-33.996 -51.296,-51.266c-9.428,-9.632 -20.618,-13.854 -33.968,-13.832c-70.48,0.118 -140.954,0.058 -211.426,0.058h-12.53v424.462c2.048,0.38 3.204,0.79 4.374,0.798c75.806,0.044 151.61,0.278 227.402,-0.3c7,-0.052 15.426,-3.68 20.684,-8.426c19.426,-17.526 38.042,-35.978 56.466,-54.564c9.34,-9.42 15.008,-21.028 15.008,-34.758c0.008,-75.806 0.11,-151.61 -0.088,-227.408c-0.036,-13.37 -4.652,-25.096 -14.628,-34.764Zm-61.864,243.91c-0.074,6.802 -4.192,14.24 -8.2,20.194c-14.278,21.204 -34.348,27.122 -59.766,25.44c-33.8,-2.238 -67.862,-0.548 -103.226,-0.548v-282.734h12.8c37.244,0 74.482,0.292 111.712,-0.198c9.846,-0.132 16.252,4.14 23.676,9.846c19.354,14.87 24.686,33.28 23.94,57.38c-1.77,56.832 -0.286,113.752 -0.936,170.62Zm277.846,-308.232h-75.396v423.928h283.956v-71.256h-208.56v-352.672Zm586.292,-559.36c-64.358,-64.424 -141.86,-96.57 -232.572,-96.57h-1097.14c-90.712,0 -168.14,32.146 -232.572,96.57c-64.424,64.286 -96.57,141.86 -96.57,232.572v1097.14c0,90.712 32.146,168.288 96.57,232.712c64.432,64.146 142,96.432 232.572,96.432h1097.14c90.712,0 168.214,-32.286 232.572,-96.57c64.432,-64.432 96.644,-141.86 96.644,-232.572v-1097.14c0,-90.712 -32.22,-168.288 -96.644,-232.572Zm-60.006,791.172c-45.26,45.122 -90.186,90.594 -135.812,135.358c-7.57,7.424 -8.478,13.532 -5.814,23.2c18.038,65.47 35.43,131.108 53.152,197.172c-1.952,0.716 -3.372,1.36 -4.85,1.762c-65.924,17.986 -131.796,36.176 -197.874,53.614c-7.512,1.982 -9.676,5.58 -11.36,11.966c-10.466,39.754 -21.16,79.44 -31.846,119.128c-7.27,26.99 -14.666,53.95 -22.176,81.568c-4.512,-0.922 -8.06,-1.462 -11.52,-2.37c-63.7,-16.764 -127.458,-33.346 -190.998,-50.696c-7.27,-1.99 -11.176,-0.68 -15.938,4.126c-29.696,29.982 -59.662,59.692 -89.396,89.636c-18.718,18.842 -37.172,37.94 -55.742,56.928h-4.916c-49.166,-49.312 -98.26,-98.698 -147.72,-147.726c-2.64,-2.618 -8.762,-3.876 -12.514,-2.896c-67.898,17.694 -135.694,35.826 -204.72,54.184c-8.682,-32.578 -17.35,-65.046 -25.988,-97.522c-9.194,-34.546 -18.388,-69.084 -27.538,-103.636c-1.836,-6.948 -4.726,-10.964 -13.042,-13.114c-63.334,-16.354 -126.376,-33.828 -189.622,-50.542c-9.414,-2.486 -12.024,-5.53 -9.202,-15.806c17.248,-62.706 33.332,-125.726 50.636,-188.416c2.26,-8.184 0.776,-12.552 -4.666,-17.956c-46.204,-45.92 -91.97,-92.278 -138.452,-137.904c-8.368,-8.222 -7.694,-12.53 0.242,-20.342c46.416,-45.7 92.27,-91.978 138.416,-137.948c4.938,-4.922 6.948,-8.872 4.754,-16.86c-17.262,-62.728 -33.17,-125.828 -50.542,-188.526c-3.02,-10.898 -0.9,-13.978 9.23,-16.61c61.82,-16.07 123.466,-32.798 185.27,-48.962c9.794,-2.56 15.082,-6.876 17.81,-17.526c16.72,-65.294 34.4,-130.348 51.792,-195.474c0.168,-0.746 0.804,-1.368 1.616,-2.634c43.118,11.418 86.44,22.814 129.718,34.384c25.176,6.73 50.228,13.942 75.476,20.406c3.21,0.82 8.44,-0.394 10.738,-2.67c49.606,-49.416 98.926,-99.116 148.304,-148.758h4.922c49.54,49.994 99.028,100.03 148.802,149.79c1.946,1.946 6.854,2.378 9.874,1.588c43.352,-11.374 86.594,-23.128 129.894,-34.684c24.606,-6.568 49.254,-12.946 74.174,-19.492c1.39,3.408 2.56,5.574 3.182,7.878c17.226,64.036 34.516,128.058 51.39,192.182c1.982,7.534 4.726,11.418 12.968,13.43c29.732,7.256 59.172,15.718 88.722,23.742c37.434,10.166 74.854,20.356 112.31,30.538c-0.256,2.194 -0.248,3.424 -0.556,4.564c-17.752,66.422 -35.642,132.812 -53.022,199.336c-1.032,3.95 0.608,10.32 3.416,13.268c18.088,18.966 36.82,37.332 55.406,55.83c31.056,30.902 62.156,61.762 95.334,94.712c-4.542,3.35 -8.572,5.632 -11.732,8.778Z" transform="scale(0.0364568)" fill="#000"></path></svg>