<?xml version="1.0" encoding="UTF-8"?><svg width="64" height="64" version="1.1" viewBox="5.2617 -122.431 64 64" xmlns="http://www.w3.org/2000/svg" xmlns:xlink="http://www.w3.org/1999/xlink"><!--Generated by IJSVG (https://github.com/iconjar/IJSVG)--><path d="M896.768,-2656.71c-8.916,-6.846 -16.604,-11.974 -28.416,-11.82c-44.676,0.586 -89.374,0.234 -134.056,0.234h-15.36v339.28c42.43,0 83.31,-2.018 123.868,0.666c30.508,2.018 54.586,-5.084 71.724,-30.53c4.806,-7.146 9.742,-16.07 9.838,-24.224c0.782,-68.25 -1.002,-136.55 1.126,-204.748c0.9,-28.92 -5.494,-51.01 -28.724,-68.856Zm992.548,181.9c3.796,-3.782 8.63,-6.518 14.08,-10.54c-39.818,-39.548 -77.136,-76.574 -114.402,-113.664c-22.302,-22.198 -44.778,-44.23 -66.486,-66.998c-3.364,-3.532 -5.332,-11.176 -4.096,-15.924c20.854,-79.828 42.32,-159.488 63.626,-239.206c0.366,-1.376 0.358,-2.846 0.658,-5.478c-44.932,-12.222 -89.848,-24.444 -134.766,-36.638c-35.452,-9.632 -70.78,-19.778 -106.46,-28.49c-9.896,-2.414 -13.18,-7.08 -15.564,-16.114c-20.254,-76.954 -41.004,-153.776 -61.674,-230.62c-0.738,-2.764 -2.144,-5.354 -3.818,-9.45c-29.9,7.848 -59.48,15.506 -89.008,23.392c-51.954,13.868 -103.856,27.97 -155.868,41.626c-3.628,0.95 -9.516,0.432 -11.85,-1.902c-59.736,-59.714 -119.12,-119.756 -178.57,-179.748h-5.902c-59.254,59.574 -118.432,119.208 -177.964,178.506c-2.75,2.742 -9.034,4.192 -12.888,3.204c-30.296,-7.754 -60.358,-16.414 -90.572,-24.488c-51.932,-13.882 -103.922,-27.56 -155.656,-41.26c-0.972,1.522 -1.74,2.268 -1.974,3.152c-20.874,78.154 -42.086,156.212 -62.15,234.562c-3.276,12.786 -9.626,17.956 -21.38,21.036c-74.152,19.39 -148.136,39.476 -222.318,58.756c-12.156,3.152 -14.702,6.854 -11.074,19.932c20.854,75.234 39.944,150.952 60.65,226.224c2.64,9.582 0.226,14.328 -5.706,20.238c-55.376,55.172 -110.394,110.702 -166.1,165.536c-9.524,9.376 -10.328,14.556 -0.286,24.408c55.778,54.762 110.71,110.394 166.152,165.494c6.538,6.488 8.31,11.724 5.602,21.548c-20.766,75.228 -40.068,150.858 -60.76,226.1c-3.394,12.332 -0.256,15.99 11.038,18.966c75.894,20.056 151.552,41.026 227.548,60.65c9.984,2.582 13.444,7.402 15.66,15.74c10.972,41.464 22.008,82.908 33.038,124.364c10.372,38.97 20.766,77.926 31.188,117.028c82.826,-22.038 164.176,-43.798 245.664,-65.024c4.506,-1.178 11.85,0.336 15.024,3.474c59.34,58.828 118.258,118.096 177.262,177.27h5.902c22.286,-22.784 44.442,-45.7 66.896,-68.316c35.68,-35.936 71.636,-71.592 107.278,-107.564c5.712,-5.764 10.4,-7.328 19.126,-4.952c76.252,20.81 152.752,40.712 229.194,60.832c4.14,1.09 8.404,1.74 13.816,2.846c9.018,-33.142 17.884,-65.5 26.61,-97.888c12.83,-47.63 25.658,-95.254 38.218,-142.958c2.018,-7.672 4.622,-11.98 13.634,-14.366c79.286,-20.918 158.332,-42.752 237.444,-64.336c1.778,-0.49 3.474,-1.258 5.814,-2.114c-21.27,-79.264 -42.144,-158.048 -63.788,-236.61c-3.19,-11.6 -2.1,-18.93 6.986,-27.838c54.754,-53.68 108.654,-108.252 162.97,-162.4Zm-891.07,155.318c-22.118,22.308 -44.448,44.448 -67.766,65.484c-6.304,5.69 -16.414,10.042 -24.81,10.108c-90.96,0.694 -181.92,0.41 -272.882,0.358c-1.398,0 -2.794,-0.49 -5.244,-0.95v-509.36h15.024c84.568,0 169.142,0.074 253.718,-0.066c16.026,-0.03 29.448,5.04 40.762,16.596c20.29,20.728 40.712,41.348 61.55,61.52c11.98,11.594 17.518,25.674 17.562,41.714c0.234,90.96 0.118,181.92 0.11,272.882c-0.008,16.486 -6.81,30.406 -18.022,41.714Zm509.806,75.22h-340.75v-508.708h90.478v423.198h250.272v85.512Z" transform="scale(0.0363884)" fill="#000"></path></svg>