<?xml version="1.0" encoding="UTF-8"?><svg width="64" height="64" version="1.1" viewBox="7.29137e-05 -122.662 64 64" xmlns="http://www.w3.org/2000/svg" xmlns:xlink="http://www.w3.org/1999/xlink"><!--Generated by IJSVG (https://github.com/iconjar/IJSVG)--><path d="M831.034,-2192.19c162.742,25.776 315.574,-85.256 341.35,-248.006c25.776,-162.742 -85.256,-315.574 -248.006,-341.35c-162.75,-25.776 -315.574,85.256 -341.35,248.006c-25.776,162.75 85.262,315.574 248.006,341.35Zm91.086,-408.964c-10.686,-5.778 -26.36,-8.668 -47.024,-8.668c-23.194,0 -39.622,5.668 -49.27,16.998c-6.89,8.382 -11.484,19.712 -13.78,33.99h-93.476c2.048,-32.394 11.146,-59.018 27.312,-79.872c25.718,-32.63 69.858,-48.94 132.448,-48.94c40.734,0 76.918,8.046 108.552,24.13c31.626,16.092 47.448,46.454 47.448,91.092v169.94c0,11.784 0.226,26.06 0.68,42.826c0.68,12.69 2.604,21.3 5.778,25.826c3.168,4.534 7.928,8.272 14.278,11.22v14.27h-105.37c-2.948,-7.476 -4.988,-14.496 -6.114,-21.072c-1.142,-6.568 -2.04,-14.05 -2.72,-22.432c-13.444,14.504 -28.95,26.85 -46.496,37.046c-20.97,12.002 -44.676,18.016 -71.11,18.016c-33.734,0 -61.594,-9.574 -83.588,-28.724c-21.994,-19.142 -32.988,-46.278 -32.988,-81.4c0,-45.546 17.694,-78.512 53.072,-98.904c19.404,-11.096 47.946,-19.032 85.6,-23.794l33.214,-4.082c18.03,-2.26 30.924,-5.098 38.686,-8.492c13.926,-5.888 20.89,-15.068 20.89,-27.53c0,-15.184 -5.34,-25.666 -16.018,-31.444Zm-29.118,128.644l-22.052,4.082c-20.67,3.628 -35.51,8.046 -44.522,13.254c-15.258,8.836 -22.886,22.55 -22.886,41.128c0,16.538 4.66,28.496 13.978,35.854c9.312,7.366 20.648,11.044 33.99,11.044c21.168,0 40.668,-6.114 58.5,-18.352c17.832,-12.238 27.092,-34.552 27.78,-66.962v-36.03c-6.202,3.854 -12.464,6.97 -18.776,9.348c-6.32,2.384 -14.986,4.594 -26.01,6.634Zm765.856,-795.494c-64.358,-64.424 -141.86,-96.57 -232.572,-96.57h-1097.14c-90.712,0 -168.14,32.146 -232.572,96.57c-64.424,64.286 -96.57,141.86 -96.57,232.572v1097.14c0,90.712 32.146,168.288 96.57,232.712c64.432,64.146 142,96.432 232.572,96.432h1097.14c90.712,0 168.214,-32.286 232.572,-96.57c64.432,-64.432 96.644,-141.86 96.644,-232.572v-1097.14c0,-90.712 -32.22,-168.288 -96.644,-232.572Zm-1135.21,173.086c76.938,0 139.322,62.376 139.322,139.316c0,76.946 -62.376,139.322 -139.322,139.322c-76.946,0 -139.322,-62.376 -139.322,-139.322c0,-76.938 62.376,-139.316 139.322,-139.316Zm-137.15,326.962c8.982,4.74 24.306,21.424 24.306,21.424c-62.2,111.192 -80.048,233.034 -54.82,359.314l-27.274,17.042c-29.996,-135.812 -8.608,-277.622 57.79,-397.78Zm52.766,629.812l-266.086,172.8c-34.078,22.134 -79.646,12.448 -101.786,-21.636c-22.134,-34.084 -12.448,-79.66 21.642,-101.8l266.072,-172.792c23.222,-15.082 51.778,-15.382 74.62,-3.262l70.07,-43.784c-36.806,-74.584 -51.704,-160.87 -37.706,-249.264c8.652,-54.666 27.582,-105.158 54.492,-149.812c46.088,0.65 92.892,-11.506 134.89,-37.75c56.138,-35.086 93.426,-88.92 108.808,-148.312c56.32,-15.952 116.904,-20.232 178.512,-10.474c227.284,35.994 382.346,249.424 346.346,476.702c-35.994,227.284 -249.424,382.346 -476.708,346.346c-113.796,-18.022 -209.488,-80.53 -272.158,-166.986l-67.738,42.328c2.1,26.082 -9.794,52.444 -33.272,67.694Zm745.266,127.122c-210.198,131.35 -473.08,108.412 -656.172,-38.218l27.21,-16.998c172.932,132.944 417.098,152.02 612.944,29.644c251.896,-157.404 328.5,-489.208 171.096,-741.106c-107.98,-172.808 -279.984,-264.792 -470.024,-253.644c-51.954,3.042 -95.986,18.096 -95.986,18.096c0,0 -2.296,-15.814 -5.61,-25.482c232.726,-62.874 452.534,13.408 597.24,244.984c166.254,266.042 85.344,616.478 -180.7,782.724Z" transform="scale(0.0364568)" fill="#000"></path></svg>