<?xml version="1.0" encoding="UTF-8"?><svg width="64" height="64" version="1.1" viewBox="5.33334 -107.37 64 64" xmlns="http://www.w3.org/2000/svg" xmlns:xlink="http://www.w3.org/1999/xlink"><!--Generated by IJSVG (https://github.com/iconjar/IJSVG)--><path d="M1792.78,-2565.23c209.628,335.478 107.608,777.376 -227.87,987.004c-265.056,165.624 -596.546,136.712 -827.422,-48.186l34.312,-21.438c218.068,167.644 525.942,191.7 772.916,37.384c317.638,-198.48 414.23,-616.88 215.75,-934.518c-136.162,-217.908 -353.06,-333.898 -592.684,-319.84c-65.522,3.832 -121.036,22.814 -121.036,22.814c0,0 -2.896,-19.946 -7.072,-32.138c293.456,-79.286 570.638,16.91 753.108,308.918Zm-1307.04,534.118l34.392,-21.49c-31.81,-159.24 -9.304,-312.884 69.128,-453.09c0,0 -19.318,-21.044 -30.646,-27.018c-83.726,151.53 -110.702,330.35 -72.872,501.6Zm897.908,45.824c-4,-5.712 -6.43,-16.574 -7.286,-32.578c-0.578,-21.138 -0.856,-39.138 -0.856,-54.002v-214.294c0,-56.284 -19.938,-94.574 -59.824,-114.864c-39.892,-20.282 -85.518,-30.428 -136.88,-30.428c-78.922,0 -134.59,20.568 -167.014,61.718c-20.378,26.294 -31.854,59.86 -34.436,100.718h117.862c2.896,-18 8.682,-32.286 17.378,-42.854c12.156,-14.284 32.87,-21.43 62.12,-21.43c26.068,0 45.832,3.642 59.304,10.928c13.466,7.286 20.202,20.502 20.202,39.644c0,15.718 -8.784,27.29 -26.332,34.714c-9.794,4.286 -26.054,7.862 -48.786,10.716l-41.882,5.142c-47.492,5.998 -83.47,16.004 -107.944,30.004c-44.618,25.718 -66.918,67.284 -66.918,124.716c0,44.288 13.86,78.504 41.596,102.648c27.736,24.138 62.858,36.214 105.398,36.214c33.338,0 63.232,-7.57 89.674,-22.71c22.126,-12.858 41.676,-28.43 58.632,-46.716c0.856,10.576 1.996,20.004 3.43,28.292c1.426,8.288 4,17.144 7.716,26.572h132.864v-18c-8.024,-3.716 -14.022,-8.426 -18.022,-14.146Zm-129.872,-149.576c-0.864,40.864 -12.536,69.002 -35.028,84.436c-22.492,15.434 -47.074,23.142 -73.764,23.142c-16.83,0 -31.122,-4.638 -42.87,-13.926c-11.754,-9.282 -17.628,-24.356 -17.628,-45.216c0,-23.428 9.618,-40.718 28.854,-51.858c11.36,-6.568 30.084,-12.142 56.144,-16.714l27.802,-5.142c13.904,-2.574 24.832,-5.354 32.798,-8.36c7.966,-2.998 15.864,-6.926 23.676,-11.784v45.422Zm-346.55,-634.456c0,-97.024 -78.65,-175.682 -175.682,-175.682c-97.032,0 -175.674,78.658 -175.674,175.682c0,97.024 78.658,175.682 175.682,175.682c97.024,0 175.674,-78.658 175.674,-175.682Zm352.862,64.776c-77.686,-12.302 -154.09,-6.904 -225.104,13.21c-19.404,74.898 -66.414,142.782 -137.208,187.012c-52.956,33.09 -111.974,48.42 -170.086,47.602c-33.938,56.312 -57.798,119.976 -68.718,188.914c-17.656,111.462 1.142,220.27 47.55,314.31l-88.364,55.216c-28.804,-15.28 -64.804,-14.906 -94.09,4.11l-335.514,217.886c-42.986,27.918 -55.2,85.386 -27.29,128.366c27.918,42.986 85.372,55.194 128.352,27.282l335.52,-217.892c29.608,-19.222 44.61,-52.472 41.962,-85.35l85.416,-53.372c79.024,109.012 199.694,187.838 343.186,210.564c286.596,45.392 555.724,-150.14 601.118,-436.736c45.394,-286.596 -150.134,-555.718 -436.728,-601.118Zm289.514,585.142c-32.504,205.224 -225.214,345.234 -430.432,312.73c-205.218,-32.504 -345.234,-225.222 -312.73,-430.438c32.504,-205.216 225.222,-345.234 430.438,-312.73c205.216,32.504 345.226,225.222 312.722,430.438Z" transform="scale(0.0364583)" fill="#000"></path></svg>