<?xml version="1.0" encoding="UTF-8"?><svg width="64" height="64" version="1.1" viewBox="4.47989 -119.861 64 64" xmlns="http://www.w3.org/2000/svg" xmlns:xlink="http://www.w3.org/1999/xlink"><!--Generated by IJSVG (https://github.com/iconjar/IJSVG)--><path d="M894.142,-2702.92c0,71.104 -26.83,128.746 -59.926,128.746c-33.096,0 -59.926,-57.642 -59.926,-128.746c0,-71.104 26.83,-128.746 59.926,-128.746c33.096,0 59.926,57.642 59.926,128.746Zm379.64,0c0,71.104 -26.798,128.746 -59.852,128.746c-33.054,0 -59.852,-57.642 -59.852,-128.746c0,-71.104 26.798,-128.746 59.852,-128.746c33.054,0 59.852,57.642 59.852,128.746Zm100.434,280.97h-63.43c0,33.36 12.354,63.926 32.432,88.356c-21.578,54.14 -150.792,121.856 -319.218,121.856c-168.36,0 -297.64,-67.716 -319.218,-121.856c19.998,-24.43 32.504,-54.996 32.504,-88.356h-63.502c0,44.712 -39.57,81.072 -88.144,81.072v63.502c24.568,0 47.572,-6.218 68.14,-16.216c46.578,78.212 190.288,145.356 370.22,145.356c179.998,0 323.642,-67.146 370.212,-145.356c20.576,9.998 43.572,16.216 68.148,16.216v-63.502c-48.574,0 -88.144,-36.36 -88.144,-81.072Zm536.144,501.57c-19.002,-35.284 -35.43,-42.358 -66.29,-51.924c-26.5,-8.002 -73.07,-4.286 -113.21,11.352c-9.142,3.576 -17.43,9.362 -26.148,14.072c-25.994,13.926 -41.64,11.212 -61.426,-9.926c-11.36,-12.214 -47.002,-44.434 -95.926,-90.858c99.854,-118.858 160.146,-271.858 160.146,-439.216c0,-167.286 -60.284,-320.358 -160.146,-439.216c48.926,-46.358 84.494,-78.496 95.854,-90.778c19.786,-21.146 35.43,-23.86 61.432,-9.86c8.712,4.644 16.998,10.43 26.142,14c40.068,15.646 86.71,19.36 113.21,11.286c30.786,-9.494 47.286,-16.566 66.29,-51.85c11.644,-27.216 15.93,-51.214 7.432,-81.716c-8.506,-30.362 -43.286,-49.862 -87.004,-57.432c-35.072,-6.144 -20.64,-11.85 -21.284,-43.286c-0.856,-47.14 -17.788,-84.202 -58.002,-109.356c-30.428,-18.856 -65.288,-20.356 -98.998,-19.142c-46.358,1.5 -94.142,24.43 -105.86,51.998c-13.926,32.57 1.726,53.57 14.504,76.858c16.502,29.784 8.426,59.64 -12.932,84.502c-23.07,27.07 -79.784,85.284 -112.07,119.64c-114.57,-86.858 -257.076,-139.06 -412,-139.06c-155.004,0 -297.502,52.202 -412.146,139.14c-32.286,-34.442 -89,-92.658 -112.07,-119.728c-21.358,-24.862 -29.36,-54.718 -12.932,-84.576c12.786,-23.216 28.43,-44.214 14.57,-76.786c-11.784,-27.64 -59.568,-50.498 -105.926,-51.998c-33.712,-1.288 -68.644,0.212 -99.072,19.142c-40.14,25.074 -57.14,62.216 -58.002,109.282c-0.57,31.502 13.86,37.216 -21.284,43.36c-43.71,7.504 -78.424,27.07 -86.996,57.358c-8.5,30.5 -4.214,54.572 7.432,81.716c18.996,35.284 35.496,42.43 66.282,51.924c26.5,8.074 73.142,4.286 113.284,-11.286c9.142,-3.642 17.43,-9.428 26.142,-14c26.002,-14 41.574,-11.352 61.426,9.786c11.424,12.362 47.002,44.5 95.854,90.858c-99.848,118.858 -160.132,271.93 -160.132,439.216c0,167.358 60.358,320.498 160.146,439.288c-48.86,46.35 -84.428,78.57 -95.854,90.784c-19.858,21.138 -35.43,23.852 -61.426,9.926c-8.712,-4.718 -16.998,-10.504 -26.142,-14.072c-40.14,-15.638 -86.784,-19.354 -113.284,-11.352c-30.786,9.568 -47.286,16.64 -66.282,51.924c-11.644,27.216 -15.93,51.222 -7.432,81.716c8.572,30.354 43.286,49.854 87.004,57.432c35.146,6.136 20.714,11.856 21.284,43.286c0.856,47.14 17.854,84.21 58.002,109.356c30.428,18.856 65.36,20.356 99.072,19.142c46.358,-1.426 94.142,-24.43 105.926,-51.998c13.86,-32.504 -1.784,-53.642 -14.57,-76.858c-16.428,-29.718 -8.426,-59.574 12.932,-84.502c23.07,-26.998 79.784,-85.284 112.07,-119.712c114.644,86.93 257.142,139.14 412.146,139.14c154.998,0 297.428,-52.21 412,-139.14c32.286,34.428 89.074,92.716 112.142,119.712c21.358,24.928 29.36,54.784 12.932,84.502c-12.858,23.216 -28.43,44.354 -14.578,76.858c11.798,27.574 59.574,50.57 105.932,51.998c33.712,1.214 68.644,-0.286 99.08,-19.142c40.14,-25.146 57.066,-62.216 57.93,-109.356c0.636,-31.43 -13.788,-37.15 21.358,-43.286c43.638,-7.578 78.424,-27.078 86.922,-57.432c8.544,-30.5 4.184,-54.498 -7.454,-81.716Zm-886.286,74.716c-353.572,0 -641.214,-287.642 -641.214,-641.214c0,-353.5 287.642,-641.142 641.214,-641.142c353.426,0 641.142,287.642 641.142,641.142c0,353.572 -287.714,641.214 -641.142,641.214Z" transform="scale(0.0356242)" fill="#000"></path></svg>