<?xml version="1.0" encoding="UTF-8"?><svg width="64" height="64" version="1.1" viewBox="7.29166e-05 -122.555 64 64" xmlns="http://www.w3.org/2000/svg" xmlns:xlink="http://www.w3.org/1999/xlink"><!--Generated by IJSVG (https://github.com/iconjar/IJSVG)--><path d="M877.788,-2911.22c-235.79,0 -427.506,191.788 -427.506,427.432c0,235.71 191.714,427.498 427.506,427.498c235.572,0 427.432,-191.788 427.432,-427.498c-0.008,-235.644 -191.862,-427.432 -427.432,-427.432Zm126.5,197.574c22.14,0 39.928,38.43 39.928,85.856c0,47.36 -17.788,85.862 -39.928,85.862c-22.074,0 -40.002,-38.502 -40.002,-85.862c0,-47.426 17.928,-85.856 40.002,-85.856Zm-253.148,0c22.154,0 40.002,38.43 40.002,85.856c0,47.36 -17.854,85.862 -40.002,85.862c-22.068,0 -39.994,-38.502 -39.994,-85.862c0,-47.426 17.928,-85.856 39.994,-85.856Zm418.788,369.568c-16.354,0 -31.714,-4.14 -45.43,-10.854c-31.072,52.144 -126.786,96.928 -246.784,96.928c-119.926,0 -215.712,-44.786 -246.784,-96.928c-13.714,6.714 -29.074,10.854 -45.502,10.854v-42.358c32.432,0 58.858,-24.284 58.858,-54.068h42.284c0,22.214 -8.352,42.642 -21.716,58.932c14.432,36.06 100.572,81.21 212.86,81.21c112.288,0 198.43,-45.144 212.788,-81.21c-13.356,-16.288 -21.642,-36.718 -21.642,-58.932h42.284c0,29.784 26.426,54.068 58.784,54.068v42.358Zm488.93,-920.854c-64.432,-64.432 -141.86,-96.57 -232.572,-96.57h-1097.14c-90.712,0 -168.14,32.138 -232.572,96.57c-64.424,64.286 -96.57,141.86 -96.57,232.572v1097.14c0,90.712 32.146,168.288 96.57,232.712c64.432,64.146 142,96.432 232.572,96.432h1097.14c90.712,0 168.14,-32.286 232.572,-96.57c64.424,-64.432 96.57,-141.86 96.57,-232.572v-1097.14c0,-90.712 -32.146,-168.288 -96.57,-232.572Zm-185.286,1213.29c-5.712,20.216 -28.854,33.288 -57.93,38.282c-23.428,4.148 -13.86,7.928 -14.284,28.862c-0.57,31.43 -11.856,56.138 -38.642,72.924c-20.216,12.574 -43.572,13.576 -66.004,12.72c-30.924,-0.928 -62.786,-16.288 -70.642,-34.648c-9.29,-21.642 1.142,-35.716 9.714,-51.214c10.928,-19.85 5.574,-39.782 -8.646,-56.356c-15.352,-18 -53.212,-56.854 -74.708,-79.784c-76.362,57.93 -171.36,92.79 -274.644,92.79c-103.358,0 -198.356,-34.86 -274.79,-92.79c-21.57,22.93 -59.282,61.784 -74.708,79.784c-14.292,16.574 -19.574,36.506 -8.572,56.356c8.492,15.498 18.856,29.572 9.714,51.214c-7.928,18.358 -39.79,33.718 -70.642,34.648c-22.506,0.856 -45.788,-0.146 -66.078,-12.72c-26.712,-16.786 -38.136,-41.494 -38.714,-72.924c-0.352,-20.934 9.29,-24.714 -14.138,-28.862c-29.148,-4.996 -52.29,-18.066 -58.002,-38.282c-5.64,-20.356 -2.786,-36.36 4.93,-54.498c12.712,-23.5 23.712,-28.218 44.214,-34.574c17.716,-5.354 48.714,-2.852 75.572,7.504c6.07,2.428 11.572,6.282 17.356,9.428c17.356,9.282 27.786,7.498 40.93,-6.576c7.644,-8.214 31.43,-29.71 64,-60.57c-66.574,-79.214 -106.87,-181.284 -106.87,-292.856c0,-111.498 40.214,-213.57 106.87,-292.784c-32.57,-30.858 -56.356,-52.362 -64,-60.576c-13.144,-14.138 -23.574,-15.858 -40.93,-6.496c-5.786,3.072 -11.286,6.854 -17.356,9.354c-26.858,10.284 -57.856,12.858 -75.572,7.432c-20.502,-6.29 -31.502,-11.074 -44.214,-34.574c-7.716,-18.074 -10.57,-34.144 -4.93,-54.498c5.712,-20.144 28.854,-33.214 58.002,-38.218c23.428,-4.14 13.788,-7.928 14.138,-28.928c0.578,-31.35 12.002,-56.144 38.714,-72.858c20.29,-12.64 43.572,-13.642 66.078,-12.712c30.852,1.002 62.712,16.216 70.642,34.64c9.142,21.716 -1.214,35.716 -9.714,51.148c-11,19.998 -5.72,39.856 8.572,56.422c15.426,18 53.138,56.862 74.708,79.792c76.434,-57.93 171.432,-92.79 274.79,-92.79c103.286,0 198.282,34.86 274.644,92.716c21.496,-22.858 59.282,-61.718 74.642,-79.718c14.284,-16.566 19.638,-36.426 8.63,-56.356c-8.492,-15.498 -18.93,-29.498 -9.64,-51.214c7.856,-18.424 39.716,-33.638 70.568,-34.64c22.432,-0.856 45.714,0.146 66.004,12.712c26.784,16.786 38.144,41.502 38.714,72.93c0.424,20.926 -9.216,24.714 14.138,28.854c29.148,5.002 52.362,18.074 58.002,38.29c5.646,20.356 2.786,36.352 -4.93,54.498c-12.712,23.5 -23.712,28.212 -44.222,34.502c-17.634,5.428 -48.714,2.926 -75.498,-7.432c-6.07,-2.428 -11.572,-6.282 -17.356,-9.354c-17.356,-9.362 -27.86,-7.57 -40.996,6.496c-7.578,8.214 -31.29,29.718 -63.934,60.576c66.656,79.214 106.788,181.284 106.788,292.784c0,111.572 -40.14,213.57 -106.788,292.856c32.65,30.858 56.43,52.356 63.934,60.57c13.21,14.072 23.64,15.858 40.996,6.576c5.858,-3.146 11.36,-7 17.43,-9.428c26.712,-10.358 57.782,-12.858 75.498,-7.504c20.576,6.356 31.502,11.074 44.214,34.574c7.732,18.14 10.656,34.144 4.944,54.498Z" transform="scale(0.0364583)" fill="#000"></path></svg>