<?xml version="1.0" encoding="UTF-8"?><svg width="64" height="64" version="1.1" viewBox="5.33337 -103.287 64 64" xmlns="http://www.w3.org/2000/svg" xmlns:xlink="http://www.w3.org/1999/xlink"><!--Generated by IJSVG (https://github.com/iconjar/IJSVG)--><path d="M1535.95,-2071.23c26.954,-35.358 53.92,-65.566 75.03,-99.424c56.422,-90.492 144.764,-234.372 165.28,-273.964c10.466,-21.19 25.732,-36.214 35.372,-37.142c9.648,-0.928 21.964,-1.266 32.388,5.244c10.422,6.518 18.432,22.25 11.132,53.066c-7.3,30.816 -11.49,42.028 -21.6,65.77c-59.18,129.506 -146,241.05 -237.268,348.942c-17.218,20.356 -17.978,35.262 -8.33,58.294c41.186,98.362 79.798,197.792 120.694,296.28c13.598,32.738 30.398,64.248 47.184,95.54c16.97,31.642 29.096,48.37 80.626,47.674c21.234,-0.052 61.594,-5.734 65.01,25c3.738,33.594 -37.054,38.598 -61.366,43.556c-27.444,5.596 -41.26,7.732 -69.332,7.798c-64.716,0.138 -141.194,-24.628 -172.874,-82.118c-32.432,-58.85 -49.934,-101.764 -79.69,-182.148c-19.53,-52.772 -41.464,-104.712 -64.432,-163.424c-12.932,13.882 -25.102,23.56 -32.994,35.964c-97.952,132.798 -154.828,240.224 -198.7,315.64c-34.59,59.458 -37.486,85.724 -78.562,77.144c-37.456,-15.308 -26.646,-65.572 -23.698,-78.306c17.378,-75.044 72.374,-148.766 115.23,-213.57c47.902,-72.434 106.788,-137.538 159.276,-207.046c7.768,-10.292 13.108,-29.886 8.69,-40.762c-47.06,-115.792 -95.992,-230.838 -145.108,-345.79c-26.712,-56.992 -44.88,-93.33 -149.942,-89.38c-17.378,-1.58 -27.918,-6.158 -27.634,-26.222c0,-24.334 16.428,-32.972 28.468,-36.542c118.71,-35.226 237.984,-24.854 299.768,107.85c38.268,82.19 72.156,166.414 108.098,249.696c5.288,12.208 11.016,24.218 19.288,42.378Zm-1389.66,305.232c27.612,-20.722 46.848,-40.44 57.718,-59.194c10.848,-18.732 16.282,-41.436 16.282,-68.074v-803.576c0,-22.682 -4.652,-44.88 -13.942,-66.596c-6.202,-9.846 -12.406,-19.236 -18.6,-28.116c-6.194,-8.88 -17.546,-22.682 -34.056,-41.436h367.008c119.362,0 212.846,24.188 280.438,72.514c67.562,48.354 101.368,115.434 101.368,201.268c0,67.102 -22.71,123.34 -68.074,168.704c-25.666,25.666 -50.826,44.398 -75.476,56.232c-24.672,11.842 -63.634,24.188 -116.912,36.996l99.146,131.708c20.722,27.634 48.838,61.666 84.356,102.114c39.446,44.398 81.876,89.782 127.268,136.148c40.44,42.43 72.258,73.26 95.452,92.49c23.172,19.244 58.456,42.182 105.816,68.812h-239.734c-39.476,0 -81.906,-22.682 -127.276,-68.074c-53.278,-54.25 -107.542,-120.84 -162.786,-199.782c-37.5,-50.314 -70.546,-96.68 -99.152,-139.11c-22.704,-33.528 -55.266,-84.356 -97.674,-152.43c185.476,-25.644 278.214,-97.674 278.214,-216.064c0,-110.482 -78.432,-165.742 -235.3,-165.742h-59.18v810.774c0,28.672 5.178,51.894 15.536,69.676c10.358,17.802 30.34,38.064 59.94,60.768h-340.378Z" transform="scale(0.0364585)" fill="#000"></path></svg>