<?xml version="1.0" encoding="UTF-8"?><svg width="64" height="64" version="1.1" viewBox="5.33335 -75.7041 64 64" xmlns="http://www.w3.org/2000/svg" xmlns:xlink="http://www.w3.org/1999/xlink"><!--Generated by IJSVG (https://github.com/iconjar/IJSVG)--><path d="M1901.24,-1642.38c-0.3,-6.89 -0.776,-13.598 -1.31,-20.422c0,0 0,-0.058 0,-0.118c0,0 0,-0.058 0,-0.118c-6.532,-74.028 -30.99,-143.308 -72.484,-205.882c-18.52,-27.904 -39.716,-53.256 -63.408,-75.988c-34.612,-33.302 -74.686,-60.854 -119.86,-82.636c-67.978,-32.476 -143.074,-48.86 -223.218,-48.86c-7.834,0 -16.026,0.118 -24.284,0.416c-56.284,2.552 -110.716,13.238 -161.894,32.058c-51.588,18.63 -96.534,43.264 -133.28,72.828c-7.482,5.94 -15.616,13.238 -24.342,21.256l-6.29,6.174l-8.608,9.142h0.118l-4.038,3.978l-1.96,2.136l-10.27,10.804c-7.6,8.55 -14.84,17.1 -21.606,25.468l-0.058,-0.118l-0.234,-0.234c-14.072,17.1 -27.07,34.786 -36.63,50.702c-6.474,10.21 -12.822,20.722 -18.878,31.224l-83.888,169.61l0.118,0.118l-4.396,8.608l-9.26,18.762c-18.402,37.222 -38.114,74.328 -60.138,104.96c-49.094,53.848 -104.602,80.208 -175.968,80.208c-4.988,0 -10.094,-0.234 -15.316,-0.534c-42.978,-1.718 -79.85,-11.872 -112.56,-31.224c-3.504,-2.078 -6.89,-4.214 -10.152,-6.414c-26.712,-17.752 -47.2,-40.55 -62.516,-68.982c-17.276,-32.234 -24.934,-65.184 -23.866,-100.096c0.058,-0.95 0.118,-1.784 0.118,-2.552c2.318,-55.566 23.508,-98.786 66.194,-136.126c10.386,-8.968 21.256,-16.566 32.592,-23.332c1.602,-0.95 3.204,-1.844 4.806,-2.67c31.7,-17.276 67.796,-25.886 109.174,-25.886l12.88,0.358c65.718,2.494 116.422,23.032 156.848,63.108l126.808,-227.672c-30.34,-20.304 -64.592,-37.756 -102.348,-51.946c-1.426,-0.534 -2.912,-1.126 -4.396,-1.602c-4.512,-1.602 -8.968,-3.262 -13.598,-4.746c-40.134,-13.414 -82.228,-21.672 -125.564,-25.41v0c-1.046,-0.19 -2.23,-0.308 -3.298,-0.432c-6.648,-0.41 -13.422,-1.244 -20.07,-1.544c-7.242,-0.3 -14.548,-0.416 -21.672,-0.476h-4.096c-79.726,0.3 -153.82,16.626 -221.558,48.984c-75.872,36.572 -137.376,89.82 -182.966,158.45c-45.472,68.63 -70.29,144.794 -73.852,226.546c-0.3,7.008 -0.476,13.948 -0.476,20.78c-0.058,114.344 41.618,214.908 124.496,299.33c86.498,88.576 199,136.31 334.058,141.948c8.668,0.358 17.218,0.592 25.768,0.592c76.406,0 147.112,-13.598 210.512,-40.784c15.85,-6.766 31.224,-14.724 46.958,-23.566c8.55,-4.93 16.626,-10.152 24.634,-15.734l5.94,-3.978l9.976,-6.824c11.996,-8.608 23.216,-17.928 34.136,-27.846l3.796,-3.62c6.414,-6.114 12.822,-12.288 18.878,-18.644l22.74,-25.702l8.668,-10.862l4.038,-5.94l4.038,-5.814c33.778,-56.752 143.726,-263.292 143.726,-263.292v-0.416l6.532,-12.588l5.464,-9.852c16.208,-29.506 27.904,-50.462 43.396,-72.484l0.416,-0.65c36.154,-52.422 98.312,-89.76 171.572,-96.058c122.888,-10.57 230.582,70.174 240.494,180.356c9.852,110.182 -81.81,208.084 -204.698,218.712c-25.586,2.194 -50.462,0.476 -73.91,-4.688l-0.592,0.234c-90.178,-18.762 -147.588,-84.538 -175.908,-113.928l-118.258,217.462c0,0 36.746,37.046 61.922,55.566c25.234,18.462 57.826,36.63 83.83,47.908c63.108,26.954 131.738,43.104 207.55,43.104c8.784,0 7.008,0 16.15,-0.358c134.942,-5.64 255.218,-57.352 341.958,-145.928c82.162,-84.122 126.75,-180.18 127.166,-293.866v-3.386c-0.074,-6.298 -0.248,-12.646 -0.49,-19.062Z" transform="scale(0.0364579)" fill="#000"></path></svg>