<?xml version="1.0" encoding="UTF-8"?><svg width="64" height="64" version="1.1" viewBox="7.29166e-05 -122.667 64 64" xmlns="http://www.w3.org/2000/svg" xmlns:xlink="http://www.w3.org/1999/xlink"><!--Generated by IJSVG (https://github.com/iconjar/IJSVG)--><path d="M1658.86,-3268c-64.432,-64.424 -141.86,-96.57 -232.572,-96.57h-1097.14c-90.712,0 -168.14,32.146 -232.572,96.57c-64.424,64.286 -96.57,141.86 -96.57,232.572v1097.14c0,90.712 32.146,168.288 96.57,232.712c64.432,64.146 142,96.432 232.572,96.432h1097.14c90.712,0 168.14,-32.286 232.572,-96.57c64.424,-64.432 96.57,-141.86 96.57,-232.572v-1097.14c0,-90.712 -32.146,-168.288 -96.57,-232.572Zm-49.716,787.968c-0.352,94.742 -37.5,174.782 -105.97,244.89c-72.28,73.816 -172.514,116.904 -284.964,121.608c-7.622,0.292 -6.136,0.292 -13.458,0.292c-63.18,0 -120.364,-13.458 -172.954,-35.914c-21.672,-9.398 -48.83,-24.54 -69.858,-39.922c-20.978,-15.44 -51.594,-46.306 -51.594,-46.306l98.552,-181.218c23.596,24.488 71.438,79.302 146.586,94.94l0.498,-0.198c19.544,4.3 40.272,5.734 61.594,3.906c102.408,-8.85 178.798,-90.434 170.584,-182.258c-8.258,-91.824 -98.004,-159.108 -200.412,-150.302c-61.052,5.244 -112.844,36.36 -142.98,80.048l-0.352,0.542c-12.91,18.358 -22.66,35.818 -36.162,60.408l-4.556,8.214l-5.442,10.488v0.352c0,0 -91.626,172.112 -119.772,219.414l-3.364,4.85l-3.364,4.944l-7.226,9.056l-18.952,21.424c-5.046,5.288 -10.386,10.438 -15.734,15.528l-3.168,3.02c-9.106,8.266 -18.454,16.032 -28.446,23.208l-8.31,5.69l-4.944,3.314c-6.678,4.644 -13.408,8.996 -20.532,13.108c-13.114,7.372 -25.922,14 -39.132,19.646c-52.838,22.66 -111.762,33.99 -175.426,33.99c-7.124,0 -14.248,-0.198 -21.474,-0.498c-112.552,-4.704 -206.3,-44.47 -278.382,-118.286c-69.068,-70.37 -103.798,-154.178 -103.746,-249.454c0,-5.69 0.146,-11.476 0.394,-17.32c2.97,-68.126 23.648,-131.598 61.542,-188.79c37.998,-57.19 89.248,-101.566 152.48,-132.038c56.444,-26.968 118.184,-40.566 184.628,-40.814h3.416c5.94,0.044 12.018,0.146 18.058,0.388c5.536,0.248 11.176,0.944 16.72,1.288c0.886,0.096 1.88,0.198 2.764,0.352c36.118,3.116 71.19,9.992 104.63,21.174c3.87,1.236 7.578,2.618 11.338,3.95c1.236,0.394 2.472,0.892 3.658,1.338c31.466,11.82 60.014,26.368 85.292,43.286l-105.676,189.726c-33.69,-33.39 -75.936,-50.512 -130.706,-52.59l-10.738,-0.292c-34.48,0 -64.556,7.176 -90.976,21.57c-1.332,0.694 -2.678,1.44 -4.008,2.23c-9.45,5.64 -18.498,11.974 -27.158,19.442c-35.57,31.122 -53.234,67.13 -55.164,113.444c0,0.644 -0.052,1.332 -0.096,2.128c-0.892,29.088 5.494,56.546 19.888,83.412c12.764,23.698 29.828,42.694 52.092,57.482c2.72,1.828 5.536,3.614 8.462,5.346c27.26,16.128 57.98,24.584 93.798,26.024c4.352,0.248 8.608,0.438 12.764,0.438c59.466,0 105.72,-21.964 146.636,-66.838c18.352,-25.534 34.78,-56.452 50.118,-87.472l7.716,-15.63l3.658,-7.176l-0.096,-0.096l69.902,-141.342c5.046,-8.756 10.342,-17.51 15.734,-26.024c7.966,-13.26 18.798,-28 30.53,-42.248l0.198,0.198l0.052,0.102c5.64,-6.978 11.68,-14.102 18.008,-21.226l8.558,-9.004l1.632,-1.784l3.364,-3.314h-0.102l7.176,-7.614l5.244,-5.15c7.27,-6.678 14.05,-12.764 20.282,-17.708c30.624,-24.642 68.074,-45.174 111.068,-60.708c42.65,-15.682 88.012,-24.584 134.912,-26.712c6.882,-0.248 13.706,-0.344 20.238,-0.344c66.786,0 129.368,13.648 186.016,40.712c37.646,18.154 71.044,41.114 99.884,68.864c19.742,18.944 37.406,40.074 52.838,63.328c34.582,52.144 54.966,109.882 60.408,171.572c0,0.052 0,0.096 0,0.096v0.096c0.438,5.69 0.842,11.278 1.082,17.02c0.198,5.346 0.352,10.634 0.394,15.88v2.824Z" transform="scale(0.0364583)" fill="#000"></path></svg>