<?xml version="1.0" encoding="UTF-8"?><svg width="64" height="64" version="1.1" viewBox="7.29137e-05 -121.995 64 64" xmlns="http://www.w3.org/2000/svg" xmlns:xlink="http://www.w3.org/1999/xlink"><!--Generated by IJSVG (https://github.com/iconjar/IJSVG)--><path d="M1658.86,-3249.72c-64.358,-64.424 -141.86,-96.57 -232.572,-96.57h-1097.14c-90.712,0 -168.14,32.146 -232.572,96.57c-64.424,64.286 -96.57,141.86 -96.57,232.572v1097.14c0,90.712 32.146,168.288 96.57,232.712c64.432,64.146 142,96.432 232.572,96.432h1097.14c90.712,0 168.214,-32.286 232.572,-96.57c64.432,-64.432 96.644,-141.86 96.644,-232.572v-1097.14c0,-90.712 -32.22,-168.288 -96.644,-232.572Zm-906.014,1116.64c-29.872,20.948 -98.64,61.864 -196.396,61.864c-186.492,0 -337.02,-135.584 -337.02,-373.958c0,-208.332 141.598,-372.904 340.992,-372.904c80.786,0 152.562,27.926 205.408,69.822c48.874,38.89 71.776,77.78 91.744,112.692l-139.564,69.742c-9.984,-22.894 -22.002,-46.84 -52.854,-72.748c-33.938,-26.954 -67.796,-34.912 -96.776,-34.912c-113.672,0 -173.502,105.714 -173.502,223.35c0,154.588 78.834,231.306 173.502,231.306c91.744,0 128.68,-63.81 152.554,-104.652l138.672,70.802c-25.974,40.836 -50.9,80.786 -106.76,119.596Zm538.858,40.918h-179.426l-241.298,-703.992h187.466l145.568,500.618l144.516,-500.618h187.472l-244.298,703.992Z" transform="scale(0.0364568)" fill="#000"></path></svg>