<?xml version="1.0" encoding="UTF-8"?><svg width="64" height="64" version="1.1" viewBox="5.33334 -79.945 64 64" xmlns="http://www.w3.org/2000/svg" xmlns:xlink="http://www.w3.org/1999/xlink"><!--Generated by IJSVG (https://github.com/iconjar/IJSVG)--><path d="M999.862,-1438.9c-34.64,54.448 -67.876,107.71 -142.35,159.458c-39.84,27.926 -131.532,82.484 -261.866,82.484c-248.656,0 -449.36,-180.78 -449.36,-498.614c0,-277.774 188.796,-497.204 454.664,-497.204c107.71,0 203.41,37.238 273.884,93.096c65.17,51.85 95.692,103.71 122.324,150.258l-186.09,92.986c-13.312,-30.53 -29.338,-62.464 -70.474,-96.994c-45.246,-35.942 -90.39,-46.548 -129.038,-46.548c-151.552,0 -231.336,140.946 -231.336,297.802c0,206.116 105.114,308.414 231.336,308.414c122.324,0 171.578,-85.088 203.41,-139.534l184.898,94.398Zm651.894,-724.648h249.958l-325.734,938.664h-239.236l-321.726,-938.664h249.952l194.1,667.488Z" transform="scale(0.0364583)" fill="#000"></path></svg>