<?xml version="1.0" encoding="UTF-8"?><svg width="64" height="64" version="1.1" viewBox="19.1265 -122.667 64 64" xmlns="http://www.w3.org/2000/svg" xmlns:xlink="http://www.w3.org/1999/xlink"><!--Generated by IJSVG (https://github.com/iconjar/IJSVG)--><path d="M1287.88,-2857.29c-0.052,0 -0.096,0.008 -0.146,0.008l-36.622,-192.966c54.44,-27.26 91.984,-83.434 91.984,-148.356c0,-91.516 -74.452,-165.968 -165.962,-165.968c-91.516,0 -165.984,74.452 -165.984,165.976c0,91.516 74.466,165.976 165.984,165.976c2.296,0 4.542,-0.256 6.824,-0.352l35.292,185.952c-96.476,29.462 -166.868,119.252 -166.868,225.244c0,78.014 38.282,147.082 96.886,189.966l-77.078,130.516c-52.926,-29.352 -113.744,-46.124 -178.432,-46.124c-203.55,0 -369.144,165.596 -369.144,369.138c0,203.542 165.596,369.138 369.144,369.138c203.548,0 369.144,-165.596 369.144,-369.138c0,-114.016 -51.976,-216.1 -133.464,-283.868l81.152,-137.414c24.254,8.462 50.19,13.298 77.298,13.298c129.858,0 235.506,-105.648 235.506,-235.506c0,-129.872 -105.654,-235.52 -235.512,-235.52Zm-94.18,879.008c0,165.376 -134.554,299.93 -299.944,299.93c-165.39,0 -299.944,-134.554 -299.944,-299.93c0,-165.384 134.554,-299.936 299.944,-299.936c165.39,0 299.944,134.554 299.944,299.936Zm-16.566,-1112.01c-59.722,0 -108.31,-48.582 -108.31,-108.302c0,-59.72 48.588,-108.302 108.31,-108.302c59.722,0 108.296,48.582 108.296,108.302c0,59.72 -48.582,108.302 -108.296,108.302Zm110.746,634.822c-91.7,0 -166.304,-74.606 -166.304,-166.304c0,-91.706 74.606,-166.304 166.304,-166.304c91.698,0 166.304,74.606 166.304,166.304c0.008,91.7 -74.606,166.304 -166.304,166.304Z" transform="scale(0.0364583)" fill="#000"></path></svg>