<?xml version="1.0" encoding="UTF-8"?><svg width="64" height="64" version="1.1" viewBox="7.29137e-05 -122.662 64 64" xmlns="http://www.w3.org/2000/svg" xmlns:xlink="http://www.w3.org/1999/xlink"><!--Generated by IJSVG (https://github.com/iconjar/IJSVG)--><path d="M790.922,-2347.76c-110.256,0 -199.958,89.702 -199.958,199.958c0,110.256 89.702,199.958 199.958,199.958c110.256,0 199.958,-89.702 199.958,-199.958c0,-110.256 -89.702,-199.958 -199.958,-199.958Zm261.114,-613.588c0,-39.812 -32.388,-72.2 -72.2,-72.2c-39.812,0 -72.206,32.38 -72.206,72.2c0,39.82 32.394,72.206 72.206,72.206c39.812,0 72.2,-32.394 72.2,-72.206Zm1.63,273.678c-61.132,0 -110.87,49.738 -110.87,110.87c0,61.132 49.744,110.87 110.87,110.87c61.132,0 110.87,-49.738 110.87,-110.87c0,-61.132 -49.73,-110.87 -110.87,-110.87Zm605.192,-580.33c-64.358,-64.424 -141.86,-96.57 -232.572,-96.57h-1097.14c-90.712,0 -168.14,32.146 -232.572,96.57c-64.424,64.286 -96.57,141.86 -96.57,232.572v1097.14c0,90.712 32.146,168.288 96.57,232.712c64.432,64.146 142,96.432 232.572,96.432h1097.14c90.712,0 168.214,-32.286 232.572,-96.57c64.432,-64.432 96.644,-141.86 96.644,-232.572v-1097.14c0,-90.712 -32.22,-168.288 -96.644,-232.572Zm-605.192,848.202c-18.066,0 -35.364,-3.226 -51.53,-8.864l-54.096,91.612c54.324,45.18 88.978,113.24 88.978,189.242c0,135.694 -110.394,246.096 -246.096,246.096c-135.702,0 -246.096,-110.394 -246.096,-246.096c0,-135.702 110.394,-246.096 246.096,-246.096c43.126,0 83.676,11.184 118.952,30.756l51.382,-87.01c-39.066,-28.584 -64.592,-74.634 -64.592,-126.64c0,-70.664 46.936,-130.524 111.25,-150.162l-23.53,-123.962c-1.522,0.066 -3.014,0.226 -4.55,0.226c-61.008,0 -110.65,-49.634 -110.65,-110.65c0,-61.016 49.642,-110.65 110.65,-110.65c61.008,0 110.65,49.634 110.65,110.65c0,43.278 -25.036,80.728 -61.322,98.904l24.416,128.65c0.036,0 0.066,-0.008 0.096,-0.008c86.572,0 157.008,70.436 157.008,157.008c0,86.572 -70.444,156.994 -157.016,156.994Z" transform="scale(0.0364568)" fill="#000"></path></svg>