<?xml version="1.0" encoding="UTF-8"?><svg width="64" height="64" version="1.1" viewBox="7.29137e-05 -122.662 64 64" xmlns="http://www.w3.org/2000/svg" xmlns:xlink="http://www.w3.org/1999/xlink"><!--Generated by IJSVG (https://github.com/iconjar/IJSVG)--><path d="M859.012,-2386.29l-8.902,-5.142l-57.988,-220.614c-3.848,-14.622 6.006,-32.622 21.848,-40.016l55.07,-25.674l-39.124,-147.916c-0.036,-0.138 -0.11,-0.292 -0.154,-0.432c-6.458,-2.296 -14.366,-1.916 -22.206,1.74l-276.172,128.782l31.554,119.318c3.262,12.332 16.458,28.518 29.302,35.928l257.866,148.882l27.962,106.364l6.86,-3.204l-25.914,-98.018Zm37.486,-187.56l10.934,6.304l-29.996,-114.102l-8.404,3.92l27.466,103.878Zm59.362,224.468l-59.356,-224.46l-79.418,-45.854c-12.836,-7.416 -20.692,-3.38 -17.422,8.99l59.348,224.424l79.418,45.854c12.836,7.402 20.692,3.372 17.43,-8.952Zm702.998,-918.616c-64.358,-64.424 -141.86,-96.57 -232.572,-96.57h-1097.14c-90.712,0 -168.14,32.146 -232.572,96.57c-64.424,64.286 -96.57,141.86 -96.57,232.572v1097.14c0,90.712 32.146,168.288 96.57,232.712c64.432,64.146 142,96.432 232.572,96.432h1097.14c90.712,0 168.214,-32.286 232.572,-96.57c64.432,-64.432 96.644,-141.86 96.644,-232.572v-1097.14c0,-90.712 -32.22,-168.288 -96.644,-232.572Zm-341.482,953.366l-94.8,44.208l95.948,362.832c3.262,12.332 -4.586,16.37 -17.43,8.952l-346.186,-199.878c-12.844,-7.41 -26.038,-23.596 -29.302,-35.936l-1.888,-7.132c-5.558,-2.626 -9.86,-7.314 -11.586,-13.904l-34.062,-129.572l-305.964,142.672c-15.894,7.41 -32.03,1.522 -35.87,-13.1l-120.012,-456.55c-3.848,-14.622 6.006,-32.622 21.898,-40.038l93.264,-43.484l-94.398,-356.944c-3.27,-12.368 4.586,-16.406 17.422,-8.99l346.186,199.87c12.698,7.328 25.702,23.222 29.162,35.54c6.59,2.34 11.666,7.482 13.612,14.862l34.062,129.572l305.964,-142.672c15.894,-7.416 32.022,-1.528 35.87,13.1l120.012,456.55c3.84,14.622 -6.006,32.622 -21.906,40.038Zm-154.104,-105.202l-255.84,-147.712l55.954,212.874c3.848,14.622 -6.006,32.622 -21.856,40.01l-56.606,26.398l38.788,146.68c6.794,3.21 15.514,3.284 24.224,-0.782l274.63,-128.066l-29.996,-113.43c-3.262,-12.368 -16.458,-28.554 -29.302,-35.972Z" transform="scale(0.0364568)" fill="#000"></path></svg>