<?xml version="1.0" encoding="UTF-8"?><svg width="64" height="64" version="1.1" viewBox="12.0476 -122.667 64 64" xmlns="http://www.w3.org/2000/svg" xmlns:xlink="http://www.w3.org/1999/xlink"><!--Generated by IJSVG (https://github.com/iconjar/IJSVG)--><path d="M1010.91,-2783.39l12.58,-5.852l-51.126,-194.34c-2.926,-11.044 -10.532,-18.798 -20.406,-22.308c0.074,0.22 0.146,0.438 0.22,0.658l58.734,221.842Zm-415.16,206.19c-19.236,-11.118 -39.058,-35.402 -43.958,-53.906l-47.324,-178.98l-139.922,65.244c-23.844,11.118 -38.62,38.108 -32.842,60.05l180.004,684.836c5.778,21.942 29.988,30.794 53.834,19.676l458.972,-214.016l-41.91,-159.524l-386.852,-223.378Zm428.69,382.83l51.126,194.34c2.56,9.874 9.07,16.896 17.408,20.846l-58.148,-220.014l-10.386,4.828Zm691.86,-104.374l-180.004,-684.836c-5.778,-21.942 -29.988,-30.794 -53.834,-19.676l-458.972,214.016l44.982,171.154l383.78,221.55c19.236,11.118 39.058,35.402 43.958,53.98l44.982,170.13l142.19,-66.34c23.918,-11.044 38.692,-38.034 32.914,-59.978Zm-764.27,-707.146c-5.194,-18.506 -24.722,-42.35 -43.74,-53.322l-519.314,-299.812c-19.236,-11.118 -31.012,-5.046 -26.112,13.532l141.604,535.406l414.208,-193.17c11.776,-5.486 23.626,-6.07 33.354,-2.634Zm-19.018,309.54l119.15,68.754l-41.18,-155.794l-82.578,38.546c-23.772,11.118 -38.546,38.108 -32.768,60.05l86.966,330.898l13.386,7.68l-89.014,-336.604c-5.046,-18.578 6.73,-24.65 26.038,-13.532Zm159.964,717.24l2.852,10.678c4.9,18.506 24.722,42.788 43.958,53.906l519.314,299.812c19.236,11.118 31.012,5.046 26.112,-13.458l-143.946,-544.256l-411.94,192.074c-13.092,6.144 -26.186,5.998 -36.352,1.244Zm48.2,-311.736c4.9,18.506 -6.876,24.576 -26.112,13.458l-119.15,-68.754l38.912,147.018l84.918,-39.57c23.772,-11.118 38.546,-38.108 32.768,-60.05l-83.968,-319.342l-16.384,-9.436l89.014,336.676Z" transform="scale(0.0364581)" fill="#000"></path></svg>