<?xml version="1.0" encoding="UTF-8"?><svg width="64" height="64" version="1.1" viewBox="7.29137e-05 -122.662 64 64" xmlns="http://www.w3.org/2000/svg" xmlns:xlink="http://www.w3.org/1999/xlink"><!--Generated by IJSVG (https://github.com/iconjar/IJSVG)--><path d="M1658.86,-3268c-64.358,-64.424 -141.86,-96.57 -232.572,-96.57h-1097.14c-90.712,0 -168.14,32.146 -232.572,96.57c-64.424,64.286 -96.57,141.86 -96.57,232.572v1097.14c0,90.712 32.146,168.288 96.57,232.712c64.432,64.146 142,96.432 232.572,96.432h1097.14c90.712,0 168.214,-32.286 232.572,-96.57c64.432,-64.432 96.644,-141.86 96.644,-232.572v-1097.14c0,-90.712 -32.22,-168.288 -96.644,-232.572Zm-781.144,1366.29c-323.168,0 -585.142,-261.976 -585.142,-585.142c0,-323.166 261.976,-585.142 585.142,-585.142c81.994,0 160.03,16.896 230.868,47.338h-85.036v354.706c-31.926,-32.402 -66.706,-56.708 -104.324,-72.908c-37.61,-16.194 -77.846,-24.306 -120.708,-24.306c-93.176,0 -172.332,35.254 -237.51,105.758c-65.17,70.51 -97.756,160.936 -97.756,271.286c0,106.408 33.668,195.416 101.032,267.016c67.358,71.6 147.186,107.396 239.478,107.396c41.114,0 79.272,-7.336 114.49,-22.002c35.196,-14.666 70.298,-38.642 105.296,-71.922v75.542h179.324v-939.294c156.76,104.974 259.986,283.692 259.986,486.532c0,323.168 -261.976,585.142 -585.142,585.142Zm153.718,-491.044c0,63.502 -18.556,114.856 -55.654,154.038c-37.084,39.198 -83.792,58.784 -140.09,58.784c-54.558,0 -100.49,-19.916 -137.808,-59.772c-37.318,-39.84 -55.968,-90.646 -55.968,-152.386c0,-61.308 18.336,-111.558 54.988,-150.754c36.666,-39.182 82.702,-58.784 138.138,-58.784c56.736,0 103.65,19.274 140.734,57.798c37.106,38.538 55.662,88.906 55.662,151.076Z" transform="scale(0.0364568)" fill="#000"></path></svg>