<?xml version="1.0" encoding="UTF-8"?><svg width="64" height="64" version="1.1" viewBox="5.33341 -122.667 64 64" xmlns="http://www.w3.org/2000/svg" xmlns:xlink="http://www.w3.org/1999/xlink"><!--Generated by IJSVG (https://github.com/iconjar/IJSVG)--><path d="M1511.73,-3216.65v1408.91h-268.982v-113.306c-52.494,49.928 -105.15,85.892 -157.944,107.886c-52.832,22.008 -110.066,33.01 -171.74,33.01c-138.43,0 -258.18,-53.694 -359.22,-161.09c-101.04,-107.396 -151.544,-240.91 -151.544,-400.522c0,-165.53 48.882,-301.166 146.636,-406.93c97.762,-105.75 216.502,-158.632 356.264,-158.632c64.292,0 124.642,12.164 181.058,36.462c56.43,24.306 108.596,60.76 156.49,109.364v-532.064h127.554c-106.254,-45.678 -223.312,-71.014 -346.302,-71.014c-484.746,0 -877.714,392.968 -877.714,877.714c0,484.746 392.968,877.714 877.714,877.714c484.746,0 877.714,-392.968 877.714,-877.714c0,-304.26 -154.836,-572.328 -389.984,-729.79Zm-551.74,557.62c-83.148,0 -152.21,29.404 -207.206,88.182c-54.988,58.8 -82.49,134.166 -82.49,226.128c0,92.614 27.978,168.822 83.954,228.586c55.976,59.78 124.87,89.658 206.71,89.658c84.45,0 154.506,-29.388 210.132,-88.182c55.648,-58.778 83.478,-135.804 83.478,-231.05c0,-93.264 -27.83,-168.806 -83.478,-226.618c-55.618,-57.79 -125.996,-86.704 -211.098,-86.704Z" transform="scale(0.0364583)" fill="#000"></path></svg>