<?xml version="1.0" encoding="UTF-8"?><svg width="64" height="64" version="1.1" viewBox="5.33334 -122.667 64 64" xmlns="http://www.w3.org/2000/svg" xmlns:xlink="http://www.w3.org/1999/xlink"><!--Generated by IJSVG (https://github.com/iconjar/IJSVG)--><path d="M527.074,-2605.39c-34.422,0 -66.304,25.036 -88.43,51.024c-17.912,21.072 -26.866,53.556 -26.866,80.604c0,27.04 10.16,57.118 28.072,78.19c21.774,25.988 45.224,43.798 79.996,43.798c31.262,0 68.44,-13.122 89.856,-34.546c21.774,-21.424 39.884,-57.396 39.884,-88.65c0,-30.902 -8.478,-67.906 -30.252,-89.33c-21.774,-21.782 -61.36,-41.092 -92.262,-41.092Zm618.094,8.492c-35.818,0 -64.972,14.088 -87.45,42.248c-18.256,22.602 -27.392,48.354 -27.392,77.254c0,29.272 9.136,55.208 27.392,77.81c22.476,28.16 51.632,42.248 87.45,42.248c31.964,0 58.998,-11.506 81.122,-34.48c22.134,-23.348 33.192,-51.858 33.192,-85.578c0,-33.346 -11.242,-61.498 -33.718,-84.472c-22.118,-23.34 -48.992,-35.028 -80.596,-35.028Zm-121.168,-767.67c-484.746,0 -877.714,392.968 -877.714,877.714c0,484.746 392.968,877.714 877.714,877.714c484.746,0 877.714,-392.968 877.714,-877.714c0,-484.746 -392.968,-877.714 -877.714,-877.714Zm-208.194,1145.95h-162.574v-66.18c-16.508,20.722 -55.348,41.846 -72.2,51.324c-29.498,16.502 -69.558,27.254 -107.14,27.254c-60.76,0 -114.842,-19.2 -162.252,-60.986c-56.546,-49.868 -83.112,-126.112 -83.112,-208.296c0,-83.588 28.972,-150.316 86.922,-200.184c46.006,-39.688 102.268,-71.454 161.974,-71.454c34.764,0 77.648,3.124 108.2,17.868c17.562,8.426 48.998,28.262 67.614,47.58v-348.614h162.574v811.688Zm556.412,-74.818c-54.082,62.244 -129.77,93.374 -227.05,93.374c-97.632,0 -173.488,-31.13 -227.584,-93.374c-44.596,-51.134 -66.904,-113.934 -66.904,-188.408c0,-67.064 22.476,-126.53 67.43,-178.402c54.432,-62.618 131.876,-93.93 232.316,-93.93c92.364,0 166.114,31.306 221.258,93.93c44.954,51.134 67.43,112.076 67.43,182.85c0.008,71.512 -22.294,132.828 -66.896,183.962Zm137.21,-705.066c18.966,-18.966 41.97,-28.446 69.01,-28.446c27.04,0 50.044,9.48 69.01,28.446c18.966,18.614 28.446,41.442 28.446,68.484c0,27.392 -9.48,50.57 -28.446,69.536c-18.614,18.614 -41.618,27.918 -69.01,27.918c-27.048,0 -50.052,-9.48 -69.01,-28.446c-18.614,-18.966 -27.918,-41.97 -27.918,-69.01c-0.008,-27.04 9.304,-49.868 27.918,-68.484Zm155.406,779.476h-172.792v-516.132h172.792v516.132Z" transform="scale(0.0364583)" fill="#000"></path></svg>