<?xml version="1.0" encoding="UTF-8"?><svg width="64" height="64" version="1.1" viewBox="7.29137e-05 -122.662 64 64" xmlns="http://www.w3.org/2000/svg" xmlns:xlink="http://www.w3.org/1999/xlink"><!--Generated by IJSVG (https://github.com/iconjar/IJSVG)--><path d="M962.004,-2665.07c-66.962,0 -118.586,20.868 -154.872,62.618c-29.974,34.582 -44.954,74.226 -44.954,118.938c0,49.65 14.862,91.516 44.596,125.608c36.06,41.494 86.63,62.252 151.72,62.252c64.856,0 115.31,-20.758 151.37,-62.252c29.732,-34.092 44.602,-74.972 44.602,-122.646c0,-47.178 -14.986,-87.816 -44.954,-121.9c-36.762,-41.75 -85.928,-62.618 -147.508,-62.618Zm50.572,241.568c-14.752,15.316 -32.776,22.988 -54.082,22.988c-23.882,0 -43.316,-9.392 -58.302,-28.168c-12.17,-15.074 -18.256,-32.358 -18.256,-51.872c0,-19.266 6.092,-36.432 18.256,-51.5c14.986,-18.776 34.422,-28.168 58.302,-28.168c21.072,0 38.986,7.798 53.73,23.354c14.98,15.316 22.476,34.078 22.476,56.312c0.008,22.484 -7.372,41.486 -22.126,57.052Zm-382.04,-193.244c-12.412,-12.88 -33.368,-26.098 -45.078,-31.722c-20.362,-9.83 -48.954,-11.908 -72.134,-11.908c-39.804,0 -77.304,21.174 -107.98,47.63c-38.626,33.244 -57.944,77.728 -57.944,133.456c0,54.784 17.716,105.618 55.414,138.862c31.606,27.86 67.658,40.652 108.17,40.652c25.052,0 51.756,-7.168 71.424,-18.168c11.234,-6.32 37.128,-20.4 48.136,-34.216v44.112h108.384v-541.118h-108.39v232.418Zm-29.024,196.908c-14.278,14.284 -39.066,23.032 -59.904,23.032c-23.178,0 -38.816,-11.878 -53.328,-29.198c-11.944,-14.05 -18.718,-34.1 -18.718,-52.128c0,-18.028 5.968,-39.688 17.912,-53.73c14.752,-17.328 36,-34.018 58.954,-34.018c20.604,0 46.994,12.874 61.506,27.392c14.518,14.284 20.172,38.948 20.172,59.552c0,20.838 -12.076,44.822 -26.594,59.1Zm588.23,111.536h115.192v-344.086h-115.192v344.086Zm11.586,-519.658c-12.406,12.412 -18.608,27.626 -18.608,45.656c0,18.03 6.202,33.368 18.614,46.006c12.646,12.646 27.978,18.966 46.006,18.966c18.264,0 33.602,-6.202 46.006,-18.614c12.646,-12.646 18.966,-28.094 18.966,-46.358c0,-18.03 -6.32,-33.244 -18.966,-45.656c-12.646,-12.646 -27.978,-18.966 -46.006,-18.966c-18.038,0 -33.368,6.32 -46.014,18.966Zm457.53,-440.042c-64.358,-64.424 -141.86,-96.57 -232.572,-96.57h-1097.14c-90.712,0 -168.14,32.146 -232.572,96.57c-64.424,64.286 -96.57,141.86 -96.57,232.572v1097.14c0,90.712 32.146,168.288 96.57,232.712c64.432,64.146 142,96.432 232.572,96.432h1097.14c90.712,0 168.214,-32.286 232.572,-96.57c64.432,-64.432 96.644,-141.86 96.644,-232.572v-1097.14c0,-90.712 -32.22,-168.288 -96.644,-232.572Zm-781.144,1366.29c-323.168,0 -585.142,-261.984 -585.142,-585.142c0,-323.168 261.976,-585.142 585.142,-585.142c323.166,0 585.142,261.976 585.142,585.142c0,323.16 -261.976,585.142 -585.142,585.142Z" transform="scale(0.0364568)" fill="#000"></path></svg>