<?xml version="1.0" encoding="UTF-8"?><svg width="64" height="64" version="1.1" viewBox="2.07241e-15 -122.667 64 64" xmlns="http://www.w3.org/2000/svg" xmlns:xlink="http://www.w3.org/1999/xlink"><!--Generated by IJSVG (https://github.com/iconjar/IJSVG)--><path d="M1658.81,-3268.02c-64.366,-64.438 -141.824,-96.548 -232.522,-96.548h-1097.14c-90.698,0 -168.156,32.11 -232.594,96.548c-64.438,64.292 -96.548,141.898 -96.548,232.594v1097.14c0,90.698 32.11,168.302 96.548,232.74c64.438,64.146 141.97,96.402 232.594,96.402h1097.14c90.698,0 168.228,-32.256 232.594,-96.548c64.366,-64.438 96.548,-141.898 96.548,-232.594v-1097.14c0,-90.698 -32.182,-168.302 -96.622,-232.594Zm-197.924,823.37c-32.622,377.856 -336.75,545.5 -576.732,544.036c8.192,-83.31 20.042,-165.596 70.656,-234.276c29.55,-40.156 75.776,-52.81 125.952,-47.178c43.082,4.828 77.604,10.314 120.758,12.288c23.626,-1.536 50.176,-4.534 76.946,-19.748c-62.684,-5.558 -182.126,-12.726 -184.758,-39.716c1.974,-35.036 41.764,-56.1 80.896,-78.774c67.146,-38.986 117.248,-89.746 146.798,-160.988c1.61,-3.95 13.532,-41.106 12.874,-38.254c-73.216,90.698 -154.404,153.746 -230.108,212.626c-25.308,19.602 -58.002,30.72 -88.576,42.35c-11.996,4.534 -36.352,4.534 -39.57,-1.536c-6.07,-11.556 -4.974,-30.646 0.074,-43.886c19.53,-50.542 48.274,-98.378 61.514,-150.308c17.846,-70.07 25.526,-145.334 31.89,-217.526c7.094,-80.238 4.828,-160.036 6.582,-240.86c0.292,-12.8 0,-35.914 -4.388,-50.102c-15.214,17.408 -15.798,45.568 -15.798,45.568c-13.75,76.142 -10.314,183.004 -25.454,179.346c-15.214,-3.658 -67.876,-162.962 -54.564,-255.05c-34.378,21.138 -23.114,96.476 -10.678,141.238c10.678,38.034 23.04,77.604 37.156,112.566c14.848,36.864 7.826,79.798 7.094,119.734c-0.438,25.746 -7.168,51.638 -13.604,76.874c-7.9,31.086 -26.038,39.936 -50.614,19.382c-29.184,-24.43 -55.882,-53.686 -77.312,-85.284c-61.514,-90.698 -111.69,-186.88 -121.782,-299.008c-1.244,-13.166 -6.582,-25.892 -11.044,-43.008c-20.188,51.712 -9.582,77.458 -5.778,112.714c13.458,125.806 84.772,225.134 155.428,324.534c34.158,48.054 44.836,98.23 23.552,157.33c-25.162,69.852 -68.462,92.964 -140.946,65.536c-80.458,-30.354 -111.324,-96.988 -131.218,-176.128c-16.896,-67.364 -19.968,-145.262 -28.526,-258.122c-4.388,-57.344 -13.75,-95.306 -36.572,-99.108c4.242,27.428 14.336,70.948 18.358,101.302c7.534,56.32 5.632,93.916 -1.536,150.162c-2.122,17.482 -14.044,30.574 -20.188,26.99c-48.348,-28.086 -66.194,-132.242 -71.094,-174.958c-26.55,31.378 3.438,136.778 68.242,217.966c22.528,25.892 33.354,56.394 49.518,87.406c12.8,24.722 10.752,49.226 -8.996,69.194c-20.48,20.772 -50.102,24.65 -76.8,17.774c-14.922,-3.95 -33.28,-11.996 -55.882,-18.944c23.698,35.914 61.148,36.206 89.454,39.35c28.38,3.292 52.59,1.316 81.042,1.316c46.592,0 71.022,38.766 94.354,69.998c62.61,83.968 61.806,175.324 33.5,270.41c-3.51,11.85 -5.34,24.21 -8.558,36.132c-1.098,4.17 -4.096,7.754 -6.07,11.41c-324.388,-75.264 -494.08,-363.886 -459.19,-631.882c48.86,-375.662 362.788,-547.694 627.346,-519.972c382.61,40.302 559.396,352.768 536.356,619.082Z" transform="scale(0.0364583)" fill="#000"></path></svg>