<?xml version="1.0" encoding="UTF-8"?><svg width="64" height="64" version="1.1" viewBox="5.33531 -122.183 64 64" xmlns="http://www.w3.org/2000/svg" xmlns:xlink="http://www.w3.org/1999/xlink"><!--Generated by IJSVG (https://github.com/iconjar/IJSVG)--><path d="M1625.23,-2035.82c-94.134,-8.266 -273.188,-19.018 -277.138,-59.538c2.926,-52.516 62.61,-84.042 121.418,-118.126c100.718,-58.514 175.836,-134.582 220.234,-241.518c2.486,-5.852 20.26,-61.732 19.382,-57.418c-109.86,136.046 -231.57,230.546 -345.234,318.902c-38.034,29.404 -86.966,46.08 -132.828,63.562c-17.994,6.876 -54.492,6.876 -59.392,-2.268c-9.142,-17.334 -7.534,-45.934 0.146,-65.682c29.258,-75.85 72.484,-147.602 92.234,-225.426c26.844,-105.18 38.326,-218.038 47.836,-326.29c10.606,-120.394 7.242,-240.128 9.802,-361.252c0.438,-19.164 0,-53.834 -6.582,-75.044c-22.82,26.112 -23.772,68.316 -23.772,68.316c-20.7,114.25 -15.36,274.506 -38.18,269.092c-22.894,-5.412 -101.888,-244.37 -81.774,-382.61c-51.566,31.744 -34.67,144.75 -15.946,211.822c15.946,56.978 34.596,116.37 55.734,168.886c22.308,55.296 11.776,119.734 10.678,179.566c-0.732,38.546 -10.752,77.458 -20.334,115.274c-11.922,46.666 -39.058,59.904 -75.996,28.964c-43.812,-36.644 -83.822,-80.53 -115.932,-127.854c-92.306,-136.118 -167.644,-280.284 -182.71,-448.586c-1.828,-19.676 -9.802,-38.766 -16.604,-64.512c-30.5,77.458 -14.556,115.932 -8.924,168.886c20.188,188.708 127.122,337.774 233.106,486.766c51.2,72.118 67.218,147.31 35.254,236.106c-37.668,104.74 -102.62,139.338 -211.456,98.378c-120.686,-45.568 -166.986,-145.554 -196.828,-264.192c-25.38,-101.084 -29.988,-217.966 -42.788,-387.292c-6.436,-86.162 -20.626,-143.068 -54.71,-148.918c6.364,41.18 21.504,106.422 27.574,151.918c11.264,84.406 8.412,140.946 -2.194,225.28c-3.146,26.186 -21.138,45.86 -30.282,40.522c-72.63,-41.984 -99.328,-198.29 -106.788,-262.364c-39.862,47.104 5.12,205.238 102.326,327.094c33.792,38.766 50.03,84.48 74.314,131.146c19.164,37.084 16.092,73.802 -13.458,103.79c-30.646,31.232 -75.118,37.01 -115.274,26.624c-22.382,-5.852 -49.956,-17.92 -83.822,-28.38c35.548,53.834 91.722,54.272 134.144,59.1c42.57,4.828 78.848,1.828 121.564,1.828c69.924,0.074 106.57,58.222 141.532,105.106c93.916,126.026 92.672,263.022 50.25,405.578c-5.266,17.774 -7.972,36.352 -12.8,54.272c-1.61,6.144 -6.07,11.63 -9.142,17.042c-486.546,-112.86 -741.156,-545.718 -688.786,-947.786c73.29,-563.42 544.182,-821.54 940.982,-779.922c574.026,60.124 839.242,528.75 804.718,928.33c-49.006,566.858 -505.198,818.25 -865.134,816.128c12.214,-124.928 30.062,-248.32 105.984,-351.378c44.324,-60.196 113.738,-79.214 188.928,-70.802c64.658,7.388 116.37,15.506 181.174,18.432c35.402,-2.34 75.264,-6.656 115.492,-29.55Z" transform="scale(0.0364583)" fill="#000"></path></svg>