<?xml version="1.0" encoding="UTF-8"?><svg width="64" height="64" version="1.1" viewBox="7.29137e-05 -122.662 64 64" xmlns="http://www.w3.org/2000/svg" xmlns:xlink="http://www.w3.org/1999/xlink"><!--Generated by IJSVG (https://github.com/iconjar/IJSVG)--><path d="M1658.86,-3268c-64.358,-64.424 -141.86,-96.57 -232.572,-96.57h-1097.14c-90.712,0 -168.14,32.146 -232.572,96.57c-64.424,64.286 -96.57,141.86 -96.57,232.572v1097.14c0,90.712 32.146,168.288 96.57,232.712c64.432,64.146 142,96.432 232.572,96.432h1097.14c90.712,0 168.214,-32.286 232.572,-96.57c64.432,-64.432 96.644,-141.86 96.644,-232.572v-1097.14c0,-90.712 -32.22,-168.288 -96.644,-232.572Zm-854.214,1025.46c-26.316,0 -54.602,-15.126 -84.846,-45.386c-35.518,-36.162 -71.694,-80.56 -108.53,-133.186c-25,-33.544 -47.024,-64.454 -66.1,-92.738c-15.14,-22.352 -36.842,-56.24 -65.12,-101.618c123.648,-17.094 185.476,-65.12 185.476,-144.04c0,-73.654 -52.282,-110.496 -156.87,-110.496h-39.454v540.512c0,19.12 3.452,34.596 10.364,46.454c6.904,11.864 20.224,25.374 39.958,40.506h-226.918c18.402,-13.81 31.232,-26.96 38.48,-39.468c7.226,-12.486 10.854,-27.618 10.854,-45.386v-535.72c0,-15.118 -3.102,-29.922 -9.296,-44.398c-4.132,-6.56 -8.266,-12.83 -12.398,-18.74c-4.132,-5.924 -11.702,-15.126 -22.704,-27.626h244.678c79.58,0 141.898,16.128 186.954,48.34c45.042,32.234 67.584,76.954 67.584,134.18c0,44.734 -15.14,82.228 -45.386,112.472c-17.108,17.108 -33.888,29.6 -50.314,37.494c-16.45,7.892 -42.422,16.128 -77.942,24.664l66.1,87.808c13.81,18.418 32.556,41.114 56.24,68.074c26.294,29.6 54.586,59.86 84.846,90.762c26.96,28.292 48.172,48.838 63.634,61.66c15.448,12.83 38.97,28.124 70.538,45.882h-159.832Zm617.18,215.742c-18.294,3.73 -27.502,5.156 -46.226,5.194c-43.146,0.096 -94.134,-16.42 -115.252,-54.748c-21.622,-39.234 -33.294,-67.848 -53.124,-121.432c-13.02,-35.182 -27.64,-69.808 -42.95,-108.954c-8.624,9.26 -16.742,15.712 -21.994,23.976c-65.302,88.532 -103.22,160.146 -132.47,210.432c-23.054,39.636 -24.992,57.146 -52.378,51.426c-24.97,-10.204 -17.766,-43.718 -15.798,-52.202c11.586,-50.03 48.252,-99.182 76.822,-142.388c31.934,-48.288 71.19,-91.692 106.182,-138.028c5.178,-6.86 8.734,-19.924 5.792,-27.172c-31.378,-77.194 -63.992,-153.892 -96.738,-230.524c-17.81,-37.998 -29.922,-62.216 -99.964,-59.59c-11.586,-1.054 -18.608,-4.11 -18.418,-17.482c0,-16.224 10.95,-21.98 18.98,-24.364c79.14,-23.486 158.654,-16.574 199.848,71.9c25.512,54.792 48.106,110.944 72.06,166.458c3.51,8.14 7.328,16.15 12.844,28.256c17.972,-23.574 35.95,-43.718 50.016,-66.282c37.618,-60.328 96.512,-156.248 110.19,-182.646c6.978,-14.124 17.152,-24.144 23.582,-24.758c6.436,-0.614 14.65,-0.848 21.592,3.496c6.942,4.344 12.288,14.834 7.416,35.38c-4.864,20.546 -7.658,28.022 -14.394,43.85c-39.454,86.338 -97.332,160.694 -158.172,232.624c-11.476,13.568 -11.988,23.508 -5.552,38.868c27.458,65.572 53.204,131.862 80.458,197.514c9.062,21.834 20.268,42.832 31.458,63.692c11.316,21.094 19.398,32.248 53.752,31.788c14.154,-0.036 41.062,-3.818 43.338,16.662c2.494,22.41 -24.7,25.746 -40.902,29.052Z" transform="scale(0.0364568)" fill="#000"></path></svg>