<?xml version="1.0" encoding="UTF-8"?><svg width="64" height="64" version="1.1" viewBox="5.33317 -122.666 64 64" xmlns="http://www.w3.org/2000/svg" xmlns:xlink="http://www.w3.org/1999/xlink"><!--Generated by IJSVG (https://github.com/iconjar/IJSVG)--><path d="M550.108,-3063.39c41.91,0.22 74.166,-32.036 74.166,-74.314c0,-41.984 -32.548,-74.606 -74.24,-74.314c-39.716,0.366 -73.436,33.718 -74.386,73.436c-0.804,40.01 33.866,75.044 74.46,75.19Zm1236.85,750.226c-41.106,0 -75.118,34.012 -74.606,74.752c0.512,39.57 33.938,72.996 73.728,74.02c40.374,0.878 74.606,-33.134 74.678,-74.314c0.074,-42.276 -31.818,-74.386 -73.802,-74.46Zm-291.476,-750.226c41.764,-0.074 73.948,-32.914 73.436,-74.972c-0.366,-41.838 -33.5,-74.314 -75.19,-73.582c-39.644,0.732 -73.216,34.596 -73.436,74.24c-0.22,40.302 34.304,74.46 75.19,74.314Zm-472.868,1305.6c-41.106,0.146 -75.41,34.45 -74.678,74.678c0.804,39.57 34.524,73.142 74.094,73.948c40.448,0.878 74.46,-33.134 74.532,-74.532c0.074,-42.276 -31.744,-74.24 -73.948,-74.094Zm247.954,-38.986c-40.886,0.292 -73.802,33.28 -73.728,73.728c0.074,40.01 33.646,73.654 73.948,73.874c41.252,0.292 74.606,-33.426 74.166,-75.264c-0.366,-40.96 -32.914,-72.63 -74.386,-72.338Zm556.618,-764.196c-40.96,-0.22 -74.314,31.89 -75.19,72.266c-0.804,40.302 34.45,75.996 74.678,75.702c40.156,-0.292 73.29,-33.866 73.29,-74.314c0.22,-41.18 -31.67,-73.508 -72.778,-73.654Zm-1454.01,472.284c-41.398,-0.146 -73.362,31.306 -73.728,72.63c-0.366,41.764 33.354,75.922 74.314,75.338c40.01,-0.586 73.508,-34.816 73.362,-74.678c-0.22,-40.374 -33.206,-73.29 -73.948,-73.29Zm-1.388,-796.672c40.448,0.804 75.556,-34.158 75.264,-74.898c-0.438,-40.522 -33.354,-72.996 -74.094,-72.996c-41.546,0.074 -73.29,31.598 -73.508,72.924c-0.22,40.886 31.964,74.24 72.338,74.972Zm899.072,-291.986c40.886,0.22 74.386,-33.572 74.094,-74.898c-0.292,-41.326 -33.866,-73.948 -75.484,-73.216c-39.936,0.658 -72.924,34.67 -72.484,74.606c0.366,39.644 34.084,73.216 73.874,73.508Zm-937.692,938.714c0.366,-40.302 -32.33,-73.728 -72.85,-74.532c-41.398,-0.804 -75.702,32.476 -76.068,73.654c-0.22,39.79 32.694,73.802 72.924,75.118c40.156,1.244 75.63,-33.354 75.996,-74.24Zm1339.17,-647.314c40.01,0.512 74.02,-32.914 74.314,-73.142c0.366,-40.668 -32.182,-73.582 -73.07,-73.874c-40.96,-0.22 -74.02,32.036 -74.46,72.558c-0.438,40.01 32.988,74.02 73.216,74.46Zm-1379.84,398.118c-0.146,-41.106 -32.182,-72.996 -73.436,-72.85c-41.034,0.074 -72.996,32.402 -72.778,73.582c0.22,40.814 33.134,73.874 73.508,73.582c40.448,-0.22 72.778,-33.354 72.704,-74.314Zm730.04,-729.308c40.374,0.292 73.362,-32.622 73.436,-73.436c0.22,-41.18 -31.744,-73.728 -72.558,-74.02c-40.374,-0.22 -73.728,32.768 -74.094,73.216c-0.22,40.228 33.06,74.02 73.216,74.24Zm649.8,1128.59c-40.522,0.292 -73.728,33.866 -73.216,74.02c0.366,40.01 34.742,73.874 74.46,73.362c40.156,-0.586 73.436,-34.524 73.07,-74.678c-0.292,-40.448 -33.5,-72.996 -74.314,-72.704Zm40.814,-648.118c-0.732,39.57 33.134,74.166 72.924,74.678c40.228,0.586 74.094,-32.548 74.386,-72.85c0.292,-40.668 -32.036,-74.094 -72.412,-74.678c-40.082,-0.438 -74.166,32.622 -74.898,72.85Zm-1454.08,74.678c40.594,-0.074 72.85,-33.134 72.704,-74.166c-0.074,-40.96 -32.622,-73.508 -73.29,-73.216c-40.814,0.22 -72.996,32.842 -72.778,73.948c0.074,40.886 32.768,73.654 73.362,73.436Zm515.876,-515.73c40.522,-0.292 73.07,-33.426 72.85,-74.314c-0.146,-41.106 -32.694,-73.436 -73.508,-73.216c-40.814,0.292 -72.924,32.842 -72.778,73.874c0.22,40.814 33.134,73.948 73.436,73.654Zm-224.84,1267.13c-40.74,0.292 -73.802,33.5 -73.29,73.728c0.586,40.668 33.5,72.778 74.46,72.484c41.106,-0.292 72.85,-32.402 72.558,-73.654c-0.366,-41.034 -32.622,-72.778 -73.728,-72.558Zm945.006,0.074c-40.96,-0.074 -73.436,32.256 -73.362,73.142c0.146,40.814 32.548,73.07 73.582,72.996c41.18,0 72.996,-31.89 72.996,-73.142c0,-41.18 -31.744,-72.996 -73.216,-72.996Zm-719.58,114.176c-41.18,-0.512 -73.582,31.086 -74.02,72.046c-0.438,41.106 31.306,73.728 72.192,74.314c40.814,0.586 73.508,-31.524 74.094,-72.412c0.512,-41.034 -31.232,-73.582 -72.266,-73.948Zm491.886,-1294.19c0.878,33.572 29.916,62.026 63.196,62.172c34.89,0.074 62.684,-28.746 62.464,-64.22c-0.292,-34.304 -28.306,-62.318 -62.464,-62.318c-33.792,0 -64.146,30.94 -63.196,64.366Zm-848.824,848.822c-35.474,0 -61.732,26.332 -61.806,61.952c0,35.182 26.55,62.538 61.294,63.196c34.744,0.658 64.22,-28.964 63.634,-63.926c-0.586,-34.89 -27.794,-61.22 -63.122,-61.22Zm125.222,-787.236c-34.742,-0.146 -62.976,26.99 -63.634,61.22c-0.732,34.304 28.964,63.634 64.074,63.196c34.67,-0.292 62.098,-28.014 62.026,-62.538c-0.072,-34.524 -27.648,-61.806 -62.464,-61.878Zm1148.93,372.59c-33.5,-0.146 -62.902,28.964 -62.976,62.538c-0.146,33.572 29.11,63.122 62.61,63.122c33.646,0.074 62.83,-28.964 63.05,-62.538c0.074,-33.718 -28.964,-62.976 -62.684,-63.122Zm-1149.08,711.168c33.792,0 62.464,-28.892 62.464,-62.902c0,-34.23 -28.38,-62.684 -62.464,-62.684c-33.718,0 -62.976,29.038 -63.05,62.684c-0.074,33.426 29.476,62.902 63.05,62.902Zm1149.08,-373.98c34.524,0 62.83,-28.014 63.05,-61.952c0,-34.084 -28.014,-62.172 -62.39,-62.464c-35.548,-0.438 -64.732,28.306 -64.146,62.83c0.512,33.938 29.184,61.66 63.488,61.586Zm-563.932,438.858c-34.158,0.074 -62.83,28.526 -63.05,62.098c-0.292,33.938 28.014,62.172 62.318,62.464c34.89,0.292 63.196,-26.55 64,-60.636c0.732,-34.89 -28.306,-64 -63.268,-63.926Zm-62.756,-1277.15c-0.366,33.426 28.818,62.83 62.464,63.122c33.938,0.22 62.83,-28.526 63.05,-62.39c0.146,-33.866 -28.526,-63.05 -62.318,-63.268c-33.28,-0.22 -62.756,28.892 -63.196,62.538Zm-709.194,363.082c0.292,34.596 28.892,62.684 62.83,62.026c34.304,-0.804 61.806,-29.33 61.22,-63.708c-0.438,-34.742 -28.526,-62.244 -62.976,-61.66c-34.45,0.512 -61.366,28.452 -61.074,63.342Zm1332.44,613.522c-0.732,-33.426 -28.306,-60.49 -61.732,-60.562c-34.67,-0.22 -62.976,27.722 -62.976,61.732c0,34.084 28.598,62.098 62.976,61.806c34.304,-0.438 62.538,-29.184 61.732,-62.976Zm-1274.44,-412.818c0,-34.45 -28.38,-62.684 -62.318,-62.318c-33.354,0.586 -60.562,28.014 -60.928,61.44c-0.438,34.742 26.916,62.83 61.22,63.342c33.938,0.366 62.026,-27.868 62.026,-62.464Zm914.872,648.264c-34.67,0.512 -62.464,28.892 -61.732,62.976c0.804,34.67 28.598,61.22 63.634,60.928c34.67,-0.366 61.878,-28.234 61.294,-62.902c-0.366,-34.45 -28.38,-61.44 -63.196,-61.002Zm-414.062,-1149.44c34.012,0.804 62.464,-27.136 62.83,-61.586c0.292,-34.596 -27.428,-63.05 -61.586,-63.05c-33.28,0 -61.002,27.136 -61.732,60.562c-0.512,34.89 26.332,63.414 60.49,64.074Zm710.144,361.766c33.426,0.878 63.122,-27.794 63.488,-61.586c0.512,-33.646 -28.306,-62.684 -62.318,-62.756c-33.792,-0.074 -62.61,28.892 -62.464,62.61c0.438,32.988 28.014,60.854 61.294,61.732Zm-124.636,787.308c34.012,0.804 62.464,-27.356 62.756,-61.732c0.146,-34.596 -27.648,-62.902 -61.66,-62.902c-34.012,0.074 -61.806,28.306 -61.586,62.83c0.22,33.646 26.99,61.002 60.49,61.806Zm-785.994,-1083.39c34.158,-0.074 61.732,-28.526 61.586,-63.05c-0.22,-34.45 -28.818,-62.538 -62.756,-61.732c-33.426,0.878 -60.27,28.306 -60.49,61.952c-0.146,34.524 27.794,62.902 61.66,62.83Zm-363.372,709.34c35.402,0.586 62.684,-25.674 63.05,-60.708c0.366,-35.182 -26.038,-62.39 -61.148,-62.464c-34.084,-0.22 -61.366,25.82 -62.098,59.466c-0.95,35.328 25.526,63.122 60.196,63.708Zm1152.29,-708.68c-35.182,-0.732 -62.756,25.674 -63.342,60.416c-0.512,35.402 25.82,62.464 60.782,62.684c35.254,0.438 62.318,-26.258 62.464,-61.294c0,-34.084 -26.186,-61.148 -59.904,-61.806Zm-727.332,1145.64c0.146,-35.036 -26.698,-62.098 -61.732,-62.026c-34.304,0 -60.854,25.892 -61.44,59.904c-0.732,35.182 25.746,62.684 60.562,63.122c35.182,0.438 62.39,-26.186 62.61,-61.002Zm201.508,65.462c0.366,-35.182 -26.258,-62.098 -61.44,-62.098c-34.962,0 -61.806,27.062 -61.66,62.244c0.22,33.866 26.55,60.562 60.562,61.002c35.328,0.512 62.318,-25.966 62.538,-61.148Zm270.92,-132.096c0.292,-30.428 -21.578,-52.444 -51.786,-52.444c-28.892,0.146 -53.394,24.502 -52.956,52.516c0.438,26.844 24.868,51.42 51.858,52.298c27.868,0.878 52.59,-23.772 52.882,-52.37Zm-681.398,-257.608c-30.866,-0.732 -53.174,20.188 -53.468,50.396c-0.512,29.11 22.602,53.76 50.834,54.346c27.428,0.586 53.468,-24.942 53.686,-52.662c0.366,-27.21 -23.406,-51.346 -51.054,-52.078Zm1072.79,-278.822c0.95,-27.502 -21.942,-52.078 -49.59,-53.174c-30.866,-1.024 -53.76,19.456 -54.93,49.152c-1.17,29.11 21.212,53.98 49.81,55.442c27.648,1.39 53.54,-23.186 54.71,-51.42Zm-442.368,-590.628c-28.964,-0.146 -53.614,23.552 -53.686,51.638c-0.146,27.648 25.6,53.174 53.248,53.102c27.648,-0.22 51.054,-23.698 51.42,-51.638c0.438,-30.5 -21.138,-52.882 -50.98,-53.102Zm-683.958,258.194c0.292,27.794 23.626,51.492 51.126,51.786c27.648,0.366 53.394,-25.162 53.394,-52.882c0.074,-28.234 -24.356,-52.004 -53.322,-51.786c-30.282,0.146 -51.566,22.162 -51.2,52.882Zm993.498,156.088c-0.366,27.94 25.234,53.248 53.174,52.81c28.526,-0.512 51.638,-25.162 50.908,-54.272c-0.658,-28.452 -23.552,-50.322 -52.37,-49.956c-27.94,0.292 -51.492,23.698 -51.712,51.42Zm-152.136,579.364c-28.014,-0.512 -53.322,24.65 -53.102,52.882c0.292,27.722 23.698,50.908 51.712,51.126c29.184,0.292 51.638,-21.066 52.298,-49.81c0.658,-29.258 -22.236,-53.614 -50.908,-54.198Zm-922.258,-579.876c-0.438,28.306 24.43,53.54 52.59,53.322c27.574,-0.22 50.908,-23.698 51.2,-51.712c0.366,-29.842 -22.09,-52.59 -51.932,-52.516c-28.16,0 -51.274,22.894 -51.858,50.908Zm309.102,632.392c0,-28.234 -22.748,-51.712 -50.468,-52.516c-28.014,-0.804 -53.468,24.21 -53.468,52.516c0.074,28.014 23.114,51.126 51.2,51.492c30.282,0.512 52.736,-21.504 52.736,-51.492Zm736.62,-737.28c27.94,0.804 53.322,-24.356 52.956,-52.444c-0.438,-27.722 -24.21,-50.834 -52.078,-50.762c-28.452,0.074 -51.346,22.82 -51.566,50.834c-0.366,27.794 22.82,51.638 50.688,52.37Zm52.884,612.134c-0.22,-27.868 -23.626,-51.054 -51.638,-51.126c-28.452,-0.146 -51.566,22.308 -52.004,50.396c-0.438,28.746 23.918,53.322 52.444,52.81c27.574,-0.512 51.274,-24.576 51.2,-52.078Zm-1073.66,-279.992c27.794,-0.292 51.2,-23.918 51.42,-51.712c0.074,-28.16 -22.82,-51.126 -51.054,-51.566c-28.014,-0.292 -51.858,22.454 -52.662,50.176c-0.804,28.234 23.918,53.394 52.298,53.102Zm896.584,-561.078c-27.574,0.074 -51.42,23.698 -51.712,51.492c-0.366,28.892 23.698,52.516 53.028,52.004c28.38,-0.586 50.322,-23.26 50.102,-52.078c-0.22,-27.94 -23.698,-51.42 -51.42,-51.42Zm-663.698,103.496c28.598,-0.074 50.762,-22.454 50.834,-51.2c0.146,-28.234 -22.602,-51.712 -50.396,-52.298c-28.452,-0.586 -52.882,24.064 -52.444,52.882c0.512,28.306 23.626,50.762 52.004,50.614Zm332.214,1022.54c28.014,-0.292 50.614,-23.478 50.614,-51.786c0.146,-28.452 -22.674,-51.638 -50.542,-52.004c-27.794,-0.292 -51.566,22.748 -52.298,50.688c-0.658,28.818 23.478,53.394 52.224,53.102Zm-0.584,-1233.63c-28.014,0.146 -51.638,22.966 -52.298,50.762c-0.658,28.38 23.478,52.81 52.516,52.81c28.598,0 50.98,-22.162 51.42,-50.688c0.366,-30.062 -21.942,-52.882 -51.638,-52.882Zm588.726,792.138c0.438,-28.746 -21.504,-51.42 -50.102,-52.004c-28.964,-0.586 -53.468,22.966 -53.248,51.492c0.292,27.502 24.064,51.2 51.712,51.42c27.868,0.292 51.274,-22.894 51.638,-50.908Zm-764.928,-764.198c-28.16,0.878 -50.322,24.21 -49.738,52.59c0.586,27.94 24.43,51.126 52.004,50.762c28.598,-0.366 51.42,-24.942 50.542,-54.052c-0.804,-28.234 -24.21,-50.102 -52.81,-49.298Zm-361.106,815.178c28.014,-0.074 51.054,-22.966 51.274,-51.2c0.366,-28.818 -21.578,-51.346 -50.03,-51.786c-29.404,-0.586 -52.882,22.454 -52.59,51.712c0.292,28.014 23.772,51.42 51.346,51.274Zm413.988,311.37c0.22,-28.818 -21.578,-51.2 -50.176,-51.638c-28.746,-0.438 -51.638,21.358 -52.444,49.738c-0.732,28.818 22.966,53.394 51.566,53.322c27.722,-0.074 50.908,-23.332 51.054,-51.42Zm-208.968,-160.842c23.698,-0.292 42.276,-19.382 42.496,-43.446c0.292,-24.796 -17.116,-43.154 -41.398,-43.958c-24.43,-0.658 -45.348,19.018 -45.714,42.862c-0.438,23.332 21.212,44.836 44.618,44.544Zm754.396,-449.462c0.438,23.99 19.456,42.934 43.082,42.934c23.186,0 44.91,-22.09 44.252,-44.982c-0.804,-22.82 -21.284,-42.276 -44.252,-42.276c-25.38,0 -43.446,18.652 -43.082,44.324Zm-209.262,536.282c23.552,0.878 44.032,-19.676 44.032,-44.252c0,-24.868 -17.334,-42.496 -42.13,-42.862c-25.014,-0.366 -45.13,18.87 -45.13,43.154c0.074,22.454 20.334,43.154 43.228,43.958Zm-676.426,-678.472c-0.658,23.332 20.772,45.276 44.178,45.13c24.576,-0.074 43.446,-19.822 42.934,-45.13c-0.366,-24.65 -18.358,-42.13 -42.934,-42.058c-23.626,0 -43.666,19.09 -44.178,42.058Zm538.186,-294.62c-23.04,-0.658 -45.056,21.066 -45.056,44.398c0.146,23.26 19.602,42.642 43.154,43.008c25.674,0.438 44.178,-17.774 44.178,-43.3c-0.22,-23.332 -19.456,-43.374 -42.276,-44.106Zm-539.942,479.378c22.82,0.292 43.446,-19.822 44.032,-42.788c0.586,-22.966 -18.87,-43.446 -42.058,-44.178c-23.626,-0.804 -43.74,17.774 -44.764,41.18c-1.17,24.138 18.944,45.568 42.788,45.788Zm885.03,-139.996c23.406,0 42.422,-19.382 42.716,-43.228c0.292,-24.43 -17.7,-43.082 -41.764,-43.594c-24.356,-0.586 -45.056,19.676 -44.544,43.666c0.438,23.186 20.48,43.154 43.594,43.154Zm-87.114,546.598c23.186,0.292 42.862,-18.944 43.228,-42.642c0.586,-23.99 -17.482,-43.446 -41.252,-44.252c-24.576,-0.804 -44.544,18.652 -44.544,43.446c-0.074,23.478 19.164,43.154 42.57,43.446Zm-546.45,86.6c24.284,0.146 43.886,-20.334 43.082,-45.13c-0.804,-24.356 -19.236,-41.838 -43.74,-41.398c-23.918,0.438 -42.642,19.602 -42.35,43.3c0.146,23.406 19.822,43.082 43.008,43.228Zm97.06,-927.744c0.22,23.478 19.382,42.35 43.228,42.496c24.138,0.074 42.788,-18.432 43.154,-42.422c0.292,-23.552 -18.432,-43.3 -41.984,-44.178c-23.772,-0.804 -44.69,19.894 -44.398,44.106Zm43.374,972.362c23.698,-0.074 42.35,-19.018 42.35,-43.008c-0.074,-23.698 -19.456,-43.3 -42.642,-43.082c-23.332,0.074 -42.496,19.822 -42.35,43.446c0.074,23.918 18.944,42.788 42.642,42.642Zm-259.292,-883.2c-23.99,0 -43.446,19.018 -43.446,42.422c0,23.186 19.676,42.57 43.3,42.57c23.844,0.074 42.862,-18.87 42.862,-42.57c0,-23.99 -18.506,-42.422 -42.716,-42.422Zm546.816,-86.82c-23.552,-0.074 -43.446,19.31 -43.52,42.496c-0.074,22.894 19.894,43.228 42.934,43.446c23.26,0.22 42.862,-19.456 42.862,-42.934c0.146,-24.21 -18.286,-42.862 -42.276,-43.008Zm-97.572,927.596c0.146,-23.332 -19.164,-43.374 -42.422,-43.74c-22.674,-0.292 -43.228,19.894 -43.594,42.862c-0.292,22.894 19.602,43.082 42.862,43.228c23.772,0.292 42.862,-18.506 43.154,-42.35Zm348.672,-349.036c23.406,0 43.154,-19.53 43.154,-42.642c0.074,-23.406 -19.382,-42.57 -43.154,-42.57c-24.21,0 -42.642,18.358 -42.642,42.496c0,23.772 18.87,42.716 42.642,42.716Zm-886.856,-42.278c0.366,-23.186 -18.944,-42.642 -42.788,-42.862c-23.99,-0.292 -43.154,18.212 -43.52,41.91c-0.22,23.478 18.87,42.862 42.642,43.154c23.406,0.292 43.3,-18.87 43.666,-42.204Zm883.784,138.972c-0.366,-24.284 -18.87,-42.13 -43.228,-41.692c-23.626,0.292 -42.862,19.822 -42.276,43.154c0.512,23.406 20.26,42.57 43.74,42.058c23.698,-0.512 42.204,-19.822 41.764,-43.52Zm-718.336,-631.37c0.586,23.626 20.406,42.642 43.886,41.91c23.48,-0.732 41.546,-20.26 41.106,-44.252c-0.44,-23.992 -19.382,-41.984 -43.666,-41.398c-23.698,0.586 -41.838,19.676 -41.326,43.74Zm-162.23,589.532c-23.99,-0.438 -43.228,17.846 -43.812,41.546c-0.586,23.552 18.286,43.3 41.91,43.886c23.552,0.586 43.008,-18.286 43.446,-41.984c0.366,-24.356 -17.334,-42.934 -41.546,-43.446Zm751.25,-546.596c-24.43,0.146 -42.716,18.798 -42.276,43.154c0.366,23.332 18.432,41.398 41.546,41.838c24.284,0.438 43.154,-17.994 43.374,-42.204c0,-24.576 -18.212,-42.862 -42.642,-42.788Zm-330.68,22.308c19.09,-1.024 35.62,-18.944 34.742,-37.596c-1.024,-19.018 -18.87,-35.62 -37.596,-35.036c-19.31,0.658 -35.548,17.628 -35.474,36.864c0.22,20.042 18.14,36.938 38.326,35.766Zm276.774,123.904c-0.22,19.09 16.676,36.278 35.694,36.572c18.944,0.292 36.278,-16.75 36.498,-35.766c0.146,-19.018 -16.75,-36.498 -35.84,-36.572c-18.724,-0.22 -36.132,16.97 -36.352,35.766Zm-51.054,507.832c-19.164,0.586 -35.84,17.7 -35.548,36.572c0.366,19.09 17.262,35.402 36.572,35.548c19.822,0 36.132,-15.872 36.426,-35.328c0.22,-20.334 -17.042,-37.376 -37.45,-36.79Zm-634.588,-399.58c-0.438,19.602 17.628,37.23 37.888,36.718c19.456,-0.438 35.548,-17.116 35.254,-36.572c-0.292,-19.236 -16.822,-35.402 -36.352,-35.474c-19.164,-0.074 -36.278,16.458 -36.79,35.328Zm177.444,471.698c20.554,0.292 35.62,-14.41 35.986,-35.108c0.438,-20.406 -14.848,-36.572 -34.67,-37.01c-19.822,-0.292 -35.914,15.58 -36.206,35.62c-0.146,20.918 14.262,36.06 34.89,36.498Zm544.11,-86.674c19.968,0.146 36.352,-16.092 36.06,-35.766c-0.22,-19.748 -16.896,-35.474 -36.938,-34.962c-19.31,0.438 -34.742,15.872 -35.036,34.742c-0.366,19.822 15.506,35.914 35.914,35.986Zm90.844,-384.074c0.074,-20.918 -14.482,-35.986 -35.036,-36.278c-20.554,-0.22 -35.548,14.628 -35.766,35.402c-0.366,20.26 15.068,36.498 34.89,36.644c19.968,0.292 35.766,-15.58 35.914,-35.766Zm-526.848,526.336c18.944,0.732 36.278,-15.872 36.864,-35.108c0.438,-19.456 -15.434,-36.572 -34.742,-37.302c-19.456,-0.804 -35.84,15.214 -36.426,35.108c-0.512,20.042 14.628,36.572 34.304,37.302Zm-268.726,-370.614c19.822,0.438 36.426,-15.798 36.572,-35.548c0.146,-19.164 -14.848,-34.89 -34.084,-35.694c-19.968,-0.878 -36.938,14.628 -37.742,34.378c-0.512,19.382 15.798,36.572 35.254,36.864Zm234.276,-404.408c0.804,19.53 15.872,33.792 35.402,33.792c20.554,0 35.986,-15.506 35.84,-35.766c-0.438,-20.188 -16.238,-35.328 -36.79,-35.036c-20.188,0.512 -35.108,16.53 -34.45,37.01Zm241.152,0.366c0.878,19.53 16.018,33.5 35.84,33.06c19.456,-0.512 34.304,-15.434 34.378,-34.816c0.074,-19.968 -15.946,-35.694 -36.206,-35.328c-20.26,0.438 -34.89,16.53 -34.012,37.084Zm-313.418,88.942c18.87,-0.366 34.012,-15.872 34.23,-35.108c0.22,-19.456 -14.19,-34.67 -33.5,-35.254c-20.406,-0.804 -36.426,14.336 -36.426,34.67c-0.146,20.114 15.946,36.206 35.694,35.694Zm458.24,-70.436c-20.334,-0.804 -36.572,14.628 -36.79,34.742c0,19.018 15.286,35.036 34.158,35.694c19.018,0.804 36.718,-16.092 36.864,-35.182c0.074,-18.87 -15.14,-34.596 -34.23,-35.254Zm-544.402,85.212c-19.09,-0.366 -36.572,17.116 -36.278,36.206c0.292,18.652 16.31,34.742 34.962,35.108c19.748,0.366 35.986,-16.018 35.694,-35.986c-0.292,-19.018 -15.726,-34.962 -34.378,-35.328Zm34.304,492.544c-0.22,-19.236 -15.36,-34.304 -34.742,-34.524c-19.968,-0.146 -36.278,16.238 -35.84,35.914c0.366,19.09 15.726,34.012 35.108,34.304c20.406,0.292 35.84,-15.14 35.474,-35.694Zm279.992,196.608c19.822,0 35.766,-16.676 35.036,-36.572c-0.586,-19.382 -15.798,-33.792 -35.402,-33.718c-19.456,0.22 -34.89,15.068 -35.402,34.012c-0.658,19.164 16.384,36.352 35.766,36.278Zm404.918,-305.226c-0.366,-19.31 -15.652,-34.524 -34.67,-34.742c-19.822,-0.074 -35.62,16.238 -35.254,36.278c0.438,20.188 16.604,35.108 36.864,34.23c19.382,-0.804 33.426,-16.018 33.06,-35.766Zm-249.418,251.026c0.074,-19.602 -16.822,-36.426 -36.206,-35.986c-18.944,0.586 -34.012,16.238 -34.084,35.548c-0.074,20.114 16.018,36.278 35.914,35.766c18.578,-0.512 34.304,-16.604 34.378,-35.328Zm269.094,-371.712c-0.804,-19.164 -16.458,-33.866 -35.84,-33.718c-19.236,0.22 -34.89,15.434 -35.254,34.304c-0.512,19.164 16.75,36.498 35.986,36.278c19.456,-0.146 35.84,-17.334 35.108,-36.864Zm-795.722,156.526c20.042,0.438 36.644,-15.58 36.572,-35.108c-0.146,-18.286 -16.31,-34.742 -34.596,-35.254c-18.798,-0.586 -35.108,14.556 -36.206,33.28c-1.098,20.26 13.97,36.644 34.23,37.084Zm55.516,-235.3c-16.238,-0.512 -31.086,14.044 -31.086,30.282c0.22,15.286 13.75,28.672 29.622,28.964c16.604,0.366 31.378,-13.75 30.94,-29.696c-0.146,-15.36 -13.97,-29.184 -29.476,-29.55Zm-0.952,100.644c-15.872,0.22 -29.55,13.75 -29.622,29.184c-0.074,16.238 14.922,30.5 31.232,29.696c15.58,-0.658 29.038,-14.922 28.526,-30.282c-0.438,-15.434 -14.41,-28.746 -30.134,-28.598Zm543.526,-217.014c16.018,-0.366 29.988,-15.726 29.038,-31.744c-1.024,-15.14 -15.434,-28.38 -30.5,-28.014c-15.214,0.438 -28.892,14.116 -29.11,29.404c-0.22,15.946 14.628,30.794 30.574,30.354Zm-371.346,511.852c17.116,-1.828 27.648,-12.142 28.964,-29.622c1.17,-15.726 -14.262,-30.866 -30.134,-30.794c-15.726,0.146 -30.646,15.286 -30.282,30.866c0.292,15.798 15.872,31.086 31.452,29.55Zm96.182,30.574c15.214,-1.098 28.38,-15.58 27.794,-30.574c-0.586,-16.018 -16.164,-30.208 -31.818,-28.964c-15.36,1.17 -28.234,15.434 -27.722,30.72c0.586,15.946 15.946,29.916 31.744,28.818Zm-31.964,-662.234c0,17.116 13.238,29.622 31.086,29.11c15.58,-0.366 29.258,-13.75 29.258,-28.964c0.22,-16.164 -14.628,-29.916 -31.452,-29.404c-16.384,0.586 -28.892,13.166 -28.892,29.258Zm-175.834,461.896c0.146,-15.286 -13.75,-29.33 -29.038,-29.622c-15.36,-0.22 -29.404,13.678 -29.622,28.964c-0.146,15.434 13.604,29.55 28.964,29.622c15.434,0.22 29.404,-13.532 29.696,-28.964Zm483.546,110.008c16.31,-0.586 28.892,-13.458 28.818,-29.404c-0.146,-17.042 -13.678,-29.55 -31.378,-28.964c-15.652,0.586 -29.184,14.262 -29.11,29.33c0,16.018 14.848,29.622 31.67,29.038Zm28.526,-401.702c-0.074,18.14 9.07,28.38 27.21,29.55c17.628,1.316 31.012,-10.972 31.306,-28.16c0.292,-16.458 -11.338,-28.964 -27.722,-29.696c-17.994,-0.804 -30.72,10.606 -30.794,28.306Zm30.574,321.244c15.798,-0.95 28.014,-14.628 27.502,-30.866c-0.438,-16.018 -13.97,-29.184 -29.476,-28.892c-16.384,0.292 -29.622,15.14 -28.526,32.036c1.024,15.726 15.286,28.598 30.5,27.722Zm-433.152,-489.398c-15.798,0.512 -29.11,14.116 -28.964,29.404c0.366,15.58 14.044,28.598 29.842,28.526c17.042,0 30.866,-14.19 29.842,-30.574c-0.878,-15.946 -14.336,-27.94 -30.72,-27.356Zm197.412,-30.574c-16.53,-0.438 -29.55,11.41 -30.134,27.574c-0.586,15.798 12.214,29.184 28.234,29.77c16.238,0.512 29.33,-11.63 29.916,-27.722c0.512,-16.164 -11.776,-29.11 -28.014,-29.622Zm94.354,30.866c-16.53,0 -28.672,12.142 -28.672,28.598c-0.146,16.458 12.142,28.746 28.598,28.746c16.384,0.074 28.672,-12.142 28.746,-28.598c-0.074,-16.53 -12.214,-28.746 -28.672,-28.746Zm-66.632,630.418c0,-16.31 -12.8,-29.404 -28.598,-29.55c-15.652,-0.074 -29.11,13.458 -29.184,29.038c-0.146,15.434 13.532,29.404 28.892,29.476c15.58,0.22 28.892,-13.092 28.892,-28.964Zm-333.898,-91.136c-0.438,16.604 11.264,28.964 27.722,29.55c16.75,0.512 29.11,-10.972 29.622,-27.574c0.586,-16.75 -11.118,-29.11 -27.648,-29.622c-16.53,-0.512 -29.11,11.19 -29.696,27.648Zm571.832,-303.982c-16.458,-0.292 -29.11,11.85 -29.33,28.086c-0.22,16.018 12.362,29.11 28.306,29.476c16.092,0.292 28.892,-12.068 29.184,-28.38c0.22,-16.458 -11.776,-28.892 -28.16,-29.184Zm-601.088,-95.378c-15.946,-0.512 -29.622,12.214 -30.134,27.794c-0.586,15.58 12.58,29.038 28.526,29.55c16.092,0.366 29.622,-11.996 30.208,-27.868c0.512,-15.434 -12.654,-28.964 -28.598,-29.476Zm458.312,459.776c0.292,-16.092 -12.288,-29.55 -28.014,-29.988c-15.506,-0.292 -28.964,13.02 -29.184,28.892c-0.438,15.872 12.58,29.622 28.014,29.988c15.434,0.438 28.892,-12.874 29.184,-28.892Zm113.446,-235.52c0.074,15.798 13.238,28.964 28.892,28.964c16.092,-0.074 28.526,-12.726 28.598,-29.11c0.072,-16.384 -12.288,-28.746 -28.672,-28.746c-16.164,0 -28.818,12.726 -28.818,28.892Zm-513.61,-306.03c-15.506,-0.146 -28.672,13.312 -28.746,29.184c-0.146,15.946 13.02,29.404 28.452,29.476c15.58,0.146 28.818,-13.238 28.818,-29.184c-0.074,-16.018 -13.02,-29.476 -28.526,-29.476Z" transform="scale(0.0364579)" fill="#000"></path></svg>