<?xml version="1.0" encoding="UTF-8"?><svg width="64" height="64" version="1.1" viewBox="7.29166e-05 -122.667 64 64" xmlns="http://www.w3.org/2000/svg" xmlns:xlink="http://www.w3.org/1999/xlink"><!--Generated by IJSVG (https://github.com/iconjar/IJSVG)--><path d="M1658.88,-3268.02c-64.438,-64.438 -141.898,-96.548 -232.594,-96.548h-1097.14c-90.698,0 -168.156,32.11 -232.594,96.548c-64.438,64.292 -96.548,141.898 -96.548,232.594v1097.14c0,90.698 32.11,168.302 96.548,232.74c64.438,64.146 142.044,96.402 232.594,96.402h1097.14c90.698,0 168.156,-32.256 232.594,-96.548c64.438,-64.438 96.548,-141.898 96.548,-232.594v-1097.14c0,-90.698 -32.11,-168.302 -96.548,-232.594Zm-223.012,615.864c-0.22,26.844 -22.748,49.006 -49.518,48.566c-26.55,-0.366 -49.152,-23.406 -48.64,-49.81c0.438,-26.844 23.186,-48.86 49.956,-48.566c26.844,0.438 48.42,22.748 48.202,49.81Zm-1004.47,194.56c23.332,0.074 41.034,18.14 40.814,41.618c-0.292,23.332 -18.432,40.886 -42.058,40.448c-23.04,-0.366 -40.74,-18.944 -40.156,-42.422c0.586,-22.382 18.724,-39.79 41.398,-39.644Zm-41.398,-100.938c0.292,-22.308 18.432,-40.594 40.668,-41.034c22.674,-0.292 41.546,18.578 41.546,41.546c0,22.968 -18.798,41.91 -41.326,41.692c-22.894,-0.366 -41.106,-19.164 -40.886,-42.204Zm76.288,70.436c0.512,-18.432 16.458,-33.572 35.108,-33.354c18.87,0.22 34.084,15.58 34.012,34.378c-0.146,18.506 -15.726,34.304 -34.304,34.45c-18.87,0.22 -35.328,-16.604 -34.816,-35.474Zm92.232,-277.21c-23.406,0.292 -43.3,-19.31 -42.788,-42.13c0.512,-22.82 19.31,-40.886 42.422,-40.814c23.26,0 41.546,18.212 41.618,41.18c0.074,23.114 -18.212,41.618 -41.252,41.764Zm49.664,56.758c0,18.506 -17.188,35.474 -35.62,35.182c-18.358,-0.146 -33.938,-16.018 -34.084,-34.524c-0.292,-20.406 13.898,-35.108 34.158,-35.182c19.31,-0.146 35.62,15.726 35.548,34.524Zm-54.49,105.472c-0.22,18.652 -15.726,34.304 -34.158,34.45c-18.724,0.22 -35.254,-16.676 -35.036,-35.474c0.366,-18.652 15.798,-33.866 34.67,-33.938c19.822,-0.074 34.816,15.068 34.524,34.962Zm14.848,37.888c15.506,0.512 28.452,14.116 28.086,29.476c-0.366,15.286 -14.044,28.672 -29.33,28.526c-15.946,-0.146 -29.258,-14.41 -28.598,-30.5c0.732,-15.652 14.19,-28.014 29.842,-27.502Zm-48.422,160.182c19.018,0.292 33.572,15.36 33.28,34.524c-0.074,18.87 -15.434,34.158 -34.158,34.23c-18.432,0.074 -34.012,-15.58 -34.23,-34.23c-0.146,-19.53 15.506,-34.89 35.108,-34.524Zm37.888,195.584c22.82,0 41.692,18.944 41.692,41.764c0,22.748 -19.164,41.91 -41.692,41.91c-22.308,0 -41.984,-19.748 -41.984,-41.91c0.074,-22.382 19.53,-41.764 41.984,-41.764Zm14.336,-21.064c-18.87,-0.366 -34.23,-16.822 -33.866,-36.206c0.22,-20.114 15.068,-34.084 35.62,-33.572c18.432,0.438 34.304,16.604 34.084,34.742c-0.146,18.432 -17.554,35.474 -35.84,35.036Zm-33.498,-208.018c0.292,-15.798 13.02,-28.086 28.964,-27.94c15.872,0.146 28.818,13.092 28.526,28.598c-0.22,15.58 -13.458,28.38 -29.038,28.16c-15.872,-0.22 -28.598,-13.092 -28.452,-28.818Zm55.222,-49.518c0.512,-13.166 11.85,-23.478 25.162,-22.894c12.874,0.586 22.82,11.044 22.82,23.844c-0.146,13.166 -11.19,23.99 -24.43,23.698c-13.02,-0.292 -23.918,-11.702 -23.552,-24.65Zm493.934,-13.24c-10.678,-0.22 -19.018,-8.996 -18.87,-19.676c0.146,-10.752 8.63,-18.944 19.602,-18.724c10.898,0.146 18.944,8.484 18.798,19.456c-0.292,10.826 -8.85,19.164 -19.53,18.944Zm19.456,47.398c-0.074,10.898 -8.338,19.382 -19.09,19.456c-10.46,0 -19.164,-8.778 -19.236,-19.382c0,-10.678 8.412,-19.236 19.164,-19.236c10.898,0 19.236,8.266 19.164,19.164Zm-6.656,-113.884c0.074,-13.824 10.166,-23.772 23.844,-23.626c13.678,0.22 23.332,10.24 23.26,24.21c-0.074,13.458 -10.606,24.064 -23.918,23.844c-13.166,-0.146 -23.478,-10.972 -23.186,-24.43Zm-1.902,-113.006c-15.434,-0.292 -27.502,-12.362 -27.794,-27.94c-0.22,-16.238 11.922,-28.672 28.234,-28.746c16.312,-0.074 28.452,12.068 28.452,28.526c-0.146,16.164 -12.726,28.452 -28.892,28.16Zm-11.264,16.896c12.726,0.074 23.99,11.702 23.918,24.356c-0.146,12.726 -11.702,24.064 -24.356,23.844c-12.726,-0.146 -23.918,-11.63 -23.772,-24.356c0.146,-12.58 11.702,-23.99 24.21,-23.844Zm-18.798,60.344c10.898,0.512 18.724,8.924 18.506,19.822c-0.22,11.41 -9.07,19.602 -20.846,18.798c-12.068,-0.878 -18.212,-7.606 -18.14,-19.822c0.074,-11.702 8.484,-19.382 20.48,-18.798Zm-41.178,247.808c11.776,-0.438 20.772,7.9 20.846,19.31c0.074,10.678 -8.266,19.236 -19.164,19.676c-11.19,0.366 -21.138,-8.704 -21.138,-19.456c-0.074,-10.02 8.996,-19.164 19.456,-19.53Zm-19.092,-282.698c0.22,-10.24 9.29,-19.382 19.456,-19.602c10.02,-0.292 19.676,8.558 20.26,18.652c0.658,10.678 -8.63,20.846 -19.382,21.138c-10.532,0.292 -20.48,-9.582 -20.334,-20.188Zm20.7,-35.036c-12.58,-0.512 -22.82,-11.19 -22.82,-23.844c0.146,-13.386 10.898,-23.626 24.576,-23.114c12.654,0.438 22.82,10.898 22.82,23.478c-0.074,12.726 -11.922,23.99 -24.576,23.478Zm-9.436,-64.658c-15.36,-0.146 -28.746,-13.678 -28.672,-28.964c0.074,-15.434 13.312,-28.38 28.964,-28.306c16.018,0.074 28.306,12.508 28.234,28.672c0.074,15.652 -13.02,28.746 -28.526,28.598Zm-26.258,60.782c-0.074,10.898 -8.192,19.09 -19.164,19.018c-10.898,0 -19.164,-8.118 -19.09,-19.09c0,-10.972 8.118,-19.09 19.164,-19.09c10.972,0 19.09,8.118 19.09,19.164Zm0.512,-132.828c-18.432,0.074 -35.548,-16.896 -35.474,-35.328c0.074,-18.724 16.53,-34.596 35.84,-34.45c19.894,0.146 34.304,15.068 33.938,35.328c-0.22,18.652 -15.872,34.304 -34.304,34.45Zm-12.726,76.216c-0.074,12.946 -10.02,22.82 -22.894,23.186c-13.238,0.292 -23.332,-8.996 -23.918,-22.09c-0.586,-13.75 9.142,-24.43 22.748,-24.65c13.386,-0.22 24.064,10.24 24.064,23.552Zm-55.442,-34.598c-15.726,-0.292 -28.672,-13.166 -28.746,-28.746c0,-15.58 14.628,-29.988 29.988,-29.55c15.286,0.438 28.086,13.824 28.16,29.404c0.074,17.042 -12.214,29.184 -29.404,28.892Zm-61.514,70.584c0,10.094 -9.142,19.018 -19.602,19.31c-11.85,0.292 -20.626,-7.972 -20.626,-19.456c0,-10.678 8.266,-19.164 19.31,-19.53c11.19,-0.292 21.066,8.924 20.918,19.676Zm-11.044,-48.568c-0.074,-12.8 10.752,-24.064 23.626,-24.576c12.434,-0.366 24.356,10.752 25.014,23.406c0.658,12.434 -10.386,24.356 -23.04,25.088c-13.532,0.732 -25.454,-10.46 -25.6,-23.918Zm-10.532,450.196c10.46,-0.878 20.772,8.63 21.212,19.31c0.366,10.02 -8.412,19.676 -18.578,20.334c-10.532,0.804 -20.7,-8.558 -21.138,-19.236c-0.22,-10.094 8.338,-19.676 18.506,-20.406Zm34.522,45.274c13.166,0 23.26,9.654 23.626,22.528c0.512,13.312 -10.166,24.356 -23.332,24.356c-12.946,0.074 -24.284,-11.338 -23.844,-24.138c0.366,-12.726 10.606,-22.602 23.552,-22.748Zm14.19,-25.526c0.074,-10.46 9.07,-19.456 19.53,-19.382c10.532,0.074 19.018,8.85 19.018,19.748c-0.074,10.606 -8.85,19.456 -19.31,19.382c-10.24,-0.074 -19.31,-9.436 -19.236,-19.748Zm18.724,-402.286c-10.678,-0.366 -19.236,-9.362 -18.798,-19.822c0.366,-10.678 9.07,-18.652 20.042,-18.358c10.826,0.292 19.018,8.924 18.652,19.748c-0.366,10.824 -9.07,18.798 -19.894,18.432Zm-32.62,-150.528c-19.31,0 -35.402,-16.31 -35.036,-35.182c0.438,-18.506 16.238,-33.792 34.89,-33.866c19.822,0 34.742,15.286 34.45,35.254c-0.292,19.018 -15.214,33.792 -34.304,33.792Zm-20.408,32.548c-0.292,16.018 -12.726,28.306 -28.818,28.234c-15.946,-0.074 -28.746,-12.654 -28.818,-28.306c-0.146,-16.164 13.75,-29.916 29.622,-29.476c15.652,0.586 28.16,13.75 28.014,29.55Zm-35.912,62.464c0.074,13.604 -10.24,23.844 -23.918,23.844c-13.092,0 -23.04,-9.508 -23.552,-22.528c-0.512,-13.678 9.436,-24.356 22.966,-24.65c13.678,-0.22 24.21,9.948 24.502,23.332Zm-20.846,55.882c0.732,10.898 -8.484,20.406 -19.822,20.406c-10.606,0.074 -19.748,-8.63 -19.894,-19.018c-0.146,-10.24 8.704,-19.31 19.31,-19.676c10.826,-0.292 19.822,7.606 20.406,18.286Zm-38.912,-132.388c-18.432,0.292 -34.304,-15.214 -34.67,-33.866c-0.438,-18.944 14.336,-34.45 33.134,-35.036c19.018,-0.586 34.67,13.97 35.182,32.768c0.658,19.53 -14.556,35.914 -33.646,36.132Zm-27.282,15.578c16.238,-0.366 28.818,11.63 29.038,27.648c0.22,16.018 -11.776,29.038 -27.428,29.476c-15.652,0.512 -28.892,-12.214 -29.184,-27.94c-0.366,-16.018 11.702,-28.818 27.574,-29.184Zm-8.266,74.898c12.946,0.438 22.528,10.606 22.382,23.552c-0.146,12.8 -10.24,23.114 -22.82,23.406c-13.238,0.292 -23.918,-10.46 -23.772,-23.918c0,-13.458 10.606,-23.552 24.21,-23.04Zm0.512,101.816c-10.314,-0.074 -19.018,-9.07 -18.944,-19.748c0.074,-10.606 8.778,-19.602 19.164,-19.53c10.386,0 19.018,8.996 19.018,19.748c-0.074,10.678 -8.924,19.602 -19.236,19.53Zm19.164,282.916c-0.366,10.972 -8.63,18.724 -19.822,18.358c-10.898,-0.366 -18.798,-8.63 -18.432,-19.748c0.366,-10.972 8.704,-18.798 19.822,-18.432c11.044,0.438 18.798,8.704 18.432,19.822Zm-38.694,-247.88c-0.438,10.606 -9.436,18.798 -20.114,18.578c-10.606,-0.366 -19.382,-9.362 -19.018,-19.748c0.364,-10.386 9.508,-18.87 20.042,-18.506c10.678,0.292 19.456,9.29 19.09,19.676Zm-40.74,82.432c-10.606,-0.22 -19.676,-9.07 -19.748,-19.31c0,-10.752 9.874,-20.48 20.626,-20.188c10.386,0.292 19.602,9.508 19.748,19.748c0.292,10.606 -9.508,20.042 -20.626,19.748Zm20.408,46.664c0.438,10.24 -8.63,19.822 -18.944,20.188c-10.826,0.512 -20.918,-8.996 -20.846,-19.822c0.074,-10.386 9.216,-19.382 19.748,-19.53c10.532,-0.148 19.822,8.85 20.042,19.164Zm-19.456,-161.646c-12.434,-0.22 -23.04,-10.972 -23.26,-23.406c-0.22,-12.726 11.484,-24.356 24.21,-24.138c12.434,0.292 22.748,10.826 22.894,23.552c0.146,13.386 -10.678,24.284 -23.844,23.99Zm-11.63,-64.658c-15.798,0 -28.892,-12.946 -28.892,-28.452c0,-15.58 13.02,-28.234 28.964,-28.234c16.092,0 28.452,12.214 28.452,28.234c0.074,15.872 -12.58,28.452 -28.526,28.452Zm-24.722,89.308c13.02,0.074 24.064,10.826 24.284,23.698c0.146,12.946 -10.678,24.064 -23.552,24.356c-13.532,0.292 -25.6,-11.41 -25.234,-24.502c0.292,-12.508 11.702,-23.552 24.502,-23.552Zm0.73,160.768c12.142,0.366 22.966,11.338 22.966,23.552c0.074,13.02 -10.898,23.626 -24.356,23.406c-13.532,-0.366 -23.552,-11.264 -22.82,-24.796c0.732,-12.508 11.702,-22.528 24.21,-22.162Zm25.162,136.484c16.164,0.512 27.794,12.8 27.574,29.258c-0.074,16.092 -12.508,28.746 -28.306,28.964c-15.652,0.292 -29.988,-14.044 -29.77,-29.622c0.22,-15.946 14.19,-29.038 30.5,-28.598Zm10.606,-17.262c-12.946,-0.22 -23.114,-10.166 -23.406,-22.82c-0.22,-13.166 10.678,-24.064 23.918,-23.918c12.946,0.146 22.966,10.166 23.114,22.966c0.22,13.678 -10.02,23.918 -23.626,23.772Zm19.822,-59.392c-10.314,-0.074 -19.456,-9.436 -19.31,-19.748c0.146,-10.24 9.582,-19.456 19.822,-19.382c10.24,0.22 19.456,9.654 19.382,19.822c-0.292,10.314 -9.654,19.456 -19.894,19.31Zm38.326,69.414c13.238,0.22 23.332,10.972 23.114,24.65c-0.292,13.75 -10.314,23.552 -23.99,23.406c-13.75,-0.292 -23.332,-10.386 -23.26,-24.356c0.22,-13.312 10.898,-23.918 24.138,-23.698Zm8.996,65.316c16.31,-0.292 28.598,11.338 29.11,27.648c0.512,16.53 -12.58,30.134 -28.746,30.062c-15.434,-0.074 -28.598,-13.238 -28.746,-28.892c-0.146,-15.798 12.362,-28.526 28.38,-28.818Zm25.894,-60.562c-0.22,-10.386 9.728,-20.48 20.188,-20.554c10.46,-0.074 20.772,10.094 20.042,20.48c-0.95,11.702 -7.9,18.578 -19.382,19.822c-10.24,1.024 -20.626,-9.216 -20.846,-19.748Zm37.74,32.036c12.874,0.512 23.406,11.922 23.114,24.942c-0.438,12.8 -11.922,23.844 -24.576,23.406c-13.166,-0.512 -23.26,-11.484 -22.82,-24.942c0.366,-13.238 11.338,-23.918 24.284,-23.406Zm30.208,58.588c15.506,-0.146 28.452,12.874 28.452,28.746c0,15.946 -12.434,28.598 -28.234,28.672c-15.8,0.074 -28.38,-12.508 -28.452,-28.452c-0.074,-15.726 12.654,-28.892 28.234,-28.964Zm49.592,60.854c18.652,0.292 33.792,15.798 33.718,34.67c0,18.87 -15.068,34.378 -33.718,34.596c-19.236,0.22 -35.328,-16.238 -34.89,-35.328c0.512,-18.724 16.384,-34.158 34.89,-33.938Zm19.894,-32.328c0.22,-15.286 13.898,-28.818 29.038,-28.598c15.506,0.22 28.38,13.604 28.234,29.11c-0.146,15.872 -12.946,28.38 -28.746,28.234c-15.434,-0.074 -28.746,-13.458 -28.526,-28.746Zm36.646,-63.124c0,-12.874 10.094,-23.26 22.748,-23.626c12.874,-0.366 24.138,10.898 24.138,23.99c-0.074,12.434 -10.606,23.186 -22.894,23.478c-13.312,0.366 -24.064,-10.314 -23.99,-23.844Zm39.496,-36.79c-10.314,-0.292 -18.944,-9.508 -18.652,-19.968c0.22,-10.678 9.142,-19.456 19.53,-19.31c10.532,0.292 18.87,9.29 18.652,19.968c-0.146,10.752 -9.216,19.53 -19.53,19.31Zm46.666,41.252c16.53,0.292 28.086,11.996 28.086,28.598c0,16.53 -13.678,30.134 -29.33,29.55c-15.214,-0.512 -28.818,-14.336 -28.892,-29.33c0,-16.238 13.458,-29.038 30.134,-28.818Zm9.362,-17.188c-12.8,-0.074 -24.064,-10.972 -24.356,-23.698c-0.22,-12.58 10.972,-23.99 23.698,-24.356c13.678,-0.438 25.162,10.898 25.014,24.502c-0.22,13.02 -11.118,23.552 -24.356,23.552Zm18.432,-135.534c-0.804,-11.264 8.046,-21.138 19.018,-21.358c10.386,-0.22 19.382,8.558 19.676,19.236c0.366,10.826 -7.754,19.968 -18.286,20.554c-10.24,0.658 -19.748,-8.046 -20.406,-18.432Zm38.326,30.574c13.386,-0.366 24.502,10.166 24.65,23.26c0.22,13.166 -10.678,23.99 -24.064,23.918c-13.604,-0.074 -24.21,-10.752 -23.918,-23.99c0.22,-12.58 10.532,-22.82 23.332,-23.186Zm13.752,64.22c15.872,0.586 27.94,13.532 27.574,29.476c-0.292,15.872 -13.386,28.672 -28.892,28.452c-15.58,-0.146 -28.452,-13.238 -28.452,-28.964c0.074,-16.53 13.386,-29.476 29.77,-28.964Zm25.088,-89.674c-13.532,0.658 -24.284,-9.362 -24.576,-22.82c-0.22,-13.458 10.314,-24.284 23.478,-24.21c12.726,0.146 22.82,10.314 23.114,23.114c0.22,13.238 -9.142,23.332 -22.016,23.918Zm11.702,-79.798c-12.874,0.146 -24.356,-11.41 -23.99,-24.138c0.292,-12.58 10.678,-22.82 23.478,-22.82c13.02,-0.146 23.406,9.728 23.918,22.454c0.512,13.02 -10.386,24.43 -23.406,24.502Zm59.32,-302.226c-23.26,-0.146 -40.886,-18.212 -40.522,-41.764c0.366,-23.186 18.798,-40.814 42.204,-40.302c22.454,0.438 39.936,18.506 39.936,41.18c-0.074,23.332 -17.994,41.106 -41.618,40.886Zm73.508,161.06c0.512,19.456 -14.922,35.84 -33.938,36.132c-18.652,0.366 -35.62,-16.604 -35.402,-35.108c0.146,-18.506 15.872,-34.084 34.524,-34.304c19.164,-0.292 34.45,14.336 34.816,33.28Zm-87.918,-138.094c18.578,-0.074 34.45,15.36 34.742,33.866c0.292,18.724 -16.75,35.474 -35.254,35.036c-18.504,-0.438 -34.012,-16.458 -33.792,-34.962c0.074,-18.724 15.36,-33.866 34.304,-33.938Zm34.962,205.824c0.438,15.286 -14.044,29.988 -29.476,29.988c-15.798,0 -28.526,-12.654 -28.746,-28.672c-0.292,-17.042 11.776,-29.55 28.746,-29.55c15.214,0.074 28.964,13.02 29.476,28.234Zm-29.55,70.51c15.872,0 28.818,12.8 28.746,28.452c0,15.434 -13.166,28.452 -28.746,28.452c-15.946,0 -28.526,-12.654 -28.526,-28.526c0.074,-16.092 12.434,-28.38 28.526,-28.38Zm9.582,257.316c22.674,0 41.106,18.944 41.106,41.984c-0.22,22.894 -19.236,41.618 -41.838,41.106c-22.382,-0.586 -40.228,-18.798 -40.302,-41.18c-0.146,-23.04 18.358,-41.838 41.034,-41.91Zm-49.372,-57.198c0.292,-18.798 15.726,-33.718 34.67,-33.646c18.724,0.074 34.304,15.58 34.45,34.158c0.074,18.286 -15.726,34.378 -34.158,34.742c-19.018,0.22 -35.254,-16.164 -34.962,-35.254Zm87.846,-69.924c-18.432,-0.146 -34.304,-15.946 -34.524,-34.304c-0.22,-19.018 16.238,-34.742 35.474,-34.378c19.018,0.366 33.646,15.58 33.28,34.67c-0.146,18.724 -15.798,34.158 -34.23,34.012Zm17.114,-115.566c-19.018,-0.95 -33.866,-17.482 -33.134,-36.938c0.804,-19.822 16.018,-33.5 36.572,-32.768c18.506,0.732 33.718,17.042 33.134,35.402c-0.804,18.87 -18.066,35.182 -36.572,34.304Zm71.754,-5.998c22.894,0.146 41.546,18.87 41.546,41.618c-0.22,22.602 -19.09,41.18 -42.058,41.18c-22.82,0.074 -41.91,-18.358 -42.276,-41.034c-0.366,-22.966 19.018,-42.058 42.788,-41.764Zm-0.658,-58.148c-22.382,0 -41.91,-19.676 -41.764,-42.058c0.074,-22.382 19.748,-41.764 41.984,-41.692c22.454,0.146 41.838,19.676 41.838,42.058c-0.146,22.382 -19.676,41.764 -42.058,41.692Zm-12.58,-334.922c27.21,0.22 48.932,22.162 48.786,49.298c-0.22,26.77 -22.82,49.078 -49.59,48.786c-26.844,-0.366 -49.152,-22.966 -48.786,-49.664c0.22,-27.062 22.382,-48.494 49.59,-48.42Zm-31.086,117.03c22.748,0.074 41.91,19.456 41.546,41.838c-0.22,22.602 -19.968,41.618 -42.276,41.106c-22.162,-0.586 -40.594,-19.164 -40.886,-41.106c-0.074,-22.528 19.164,-41.838 41.618,-41.838Zm-88.796,-236.252c27.794,-0.512 49.956,21.138 50.176,49.006c0.366,28.086 -21.138,50.03 -48.932,50.102c-27.282,0.074 -50.322,-22.748 -50.176,-49.664c0.074,-26.404 22.528,-49.078 48.932,-49.444Zm-33.5,311.734c16.018,0.366 28.014,12.8 27.868,29.038c-0.22,15.946 -12.946,28.818 -28.526,28.818c-15.36,0 -28.818,-13.386 -29.038,-28.818c-0.366,-15.946 13.386,-29.404 29.696,-29.038Zm-58.222,-99.18c-19.53,0.292 -35.474,-15.434 -35.254,-34.67c0.22,-18.578 16.092,-34.304 34.524,-34.378c18.432,0 34.084,15.58 34.23,34.304c0.074,19.164 -14.556,34.378 -33.5,34.742Zm24.576,-133.048c0.22,23.626 -18.358,42.862 -41.546,42.788c-22.236,-0.074 -41.546,-19.09 -42.13,-41.398c-0.658,-22.308 19.676,-42.862 42.13,-42.862c22.674,0 41.398,18.652 41.546,41.472Zm-82.358,-155.282c27.722,-0.512 50.176,21.212 50.322,48.786c0.22,27.574 -22.162,50.176 -49.372,50.03c-26.55,-0.22 -49.006,-22.674 -49.298,-49.078c-0.292,-26.624 21.724,-49.298 48.348,-49.738Zm-51.932,112.64c-0.074,22.602 -19.456,41.692 -41.984,41.546c-22.528,-0.22 -41.91,-19.822 -41.618,-42.058c0.22,-22.454 19.894,-41.838 42.13,-41.692c22.528,0.074 41.618,19.602 41.472,42.204Zm-112.054,-138.678c27.136,0.22 48.494,21.942 48.348,49.372c-0.074,27.136 -22.09,49.152 -48.932,48.932c-26.844,-0.146 -49.078,-22.674 -48.86,-49.444c0.292,-26.99 22.528,-49.006 49.444,-48.86Zm-71.022,96.768c22.748,0 41.18,19.018 41.034,41.984c-0.292,22.966 -19.236,41.546 -41.91,41.106c-22.674,-0.44 -40.668,-19.53 -40.228,-42.716c0.438,-22.308 18.944,-40.374 41.106,-40.374Zm-95.158,-70.584c27.21,-0.074 48.932,21.504 49.006,48.86c0.146,27.21 -21.578,49.372 -48.566,49.518c-26.844,0.22 -48.786,-21.87 -48.932,-49.078c-0.146,-27.356 21.358,-49.078 48.494,-49.298Zm-40.084,114.25c22.674,-0.586 41.692,18.212 41.764,41.106c0.146,23.04 -18.286,41.984 -41.034,42.058c-22.528,0.146 -41.252,-18.798 -41.106,-41.91c0.146,-22.382 18.066,-40.668 40.374,-41.252Zm-14.92,104.886c18.578,0.366 33.718,16.092 33.646,34.89c-0.074,19.164 -14.848,34.084 -33.938,34.158c-18.944,0.074 -34.378,-14.922 -34.67,-33.792c-0.366,-19.164 16.018,-35.62 34.962,-35.254Zm-30.208,196.242c0.292,16.822 -12.288,30.062 -28.672,30.134c-15.652,0.074 -29.916,-14.556 -29.476,-30.134c0.438,-15.286 13.75,-28.014 29.476,-28.086c16.384,0 28.38,11.63 28.672,28.086Zm-64.22,-339.748c27.722,-0.22 49.444,21.504 49.444,49.518c0,28.234 -21.43,49.664 -49.372,49.59c-27.136,-0.22 -50.176,-23.552 -49.664,-50.25c0.658,-26.478 23.04,-48.64 49.59,-48.86Zm-46.006,277.212c0.366,22.894 -17.994,41.91 -40.886,42.496c-22.674,0.512 -41.692,-18.286 -41.91,-41.326c-0.146,-23.26 17.774,-41.984 40.668,-42.276c23.04,-0.438 41.764,17.92 42.13,41.106Zm-72.046,-158.062c27.136,0 49.152,21.65 49.372,48.566c0.22,27.21 -23.186,50.468 -50.176,50.03c-26.99,-0.438 -48.348,-22.748 -48.274,-50.03c0.146,-27.502 21.358,-48.566 49.078,-48.566Zm-76.362,149.212c27.136,-0.146 48.86,21.578 48.932,48.86c0,27.356 -21.504,49.372 -48.566,49.444c-26.99,0.146 -48.786,-21.724 -48.86,-49.006c-0.146,-27.428 21.358,-49.226 48.494,-49.298Zm-74.752,214.82c-0.146,-27.502 21.138,-49.006 48.494,-49.078c27.502,-0.074 48.932,21.138 48.932,48.566c0.074,27.282 -21.504,49.444 -48.42,49.59c-26.916,0.146 -48.86,-21.87 -49.006,-49.078Zm25.308,165.084c0.22,-27.428 23.04,-49.664 50.688,-49.152c26.99,0.586 48.86,22.82 48.566,49.738c-0.292,27.282 -23.844,50.322 -50.614,49.518c-26.844,-0.95 -48.786,-23.626 -48.64,-50.102Zm126.318,199.24c-27.356,0.366 -49.81,-22.382 -49.59,-50.25c0.292,-27.574 21.578,-48.494 49.152,-48.42c27.21,0 49.226,21.87 49.298,48.86c0.146,26.55 -22.236,49.372 -48.86,49.81Zm29.55,-117.32c-23.186,-0.438 -40.96,-18.652 -40.96,-42.13c0.074,-23.698 17.554,-41.252 41.18,-41.252c23.552,0 41.692,17.554 42.13,40.886c0.438,23.186 -19.236,42.934 -42.35,42.496Zm88.794,234.788c-27.356,0.22 -49.298,-21.212 -49.738,-48.274c-0.292,-26.77 21.724,-49.006 48.932,-49.152c27.428,-0.146 48.932,20.992 49.152,48.348c0.22,27.502 -20.918,48.86 -48.348,49.078Zm34.158,-310.93c-15.798,-0.366 -28.38,-13.532 -27.94,-29.184c0.366,-15.872 13.238,-28.014 29.184,-27.722c16.092,0.292 27.94,12.726 27.648,28.964c-0.146,15.798 -13.166,28.38 -28.892,27.94Zm59.612,98.67c18.578,0.512 33.646,16.164 33.646,35.036c0,19.894 -14.922,34.67 -35.108,34.304c-18.724,-0.22 -34.084,-15.652 -34.158,-34.304c0,-18.944 17.042,-35.548 35.62,-35.036Zm-25.526,131.876c0.366,-22.748 18.066,-39.936 40.96,-39.936c23.332,-0.074 41.252,17.92 41.106,41.252c-0.074,23.26 -18.286,41.034 -41.692,40.74c-23.26,-0.146 -40.814,-18.506 -40.374,-42.058Zm80.09,156.744c-27.282,-0.438 -48.42,-22.236 -48.128,-49.59c0.292,-27.354 21.87,-48.348 49.372,-48.054c27.356,0.292 48.494,21.942 48.128,49.298c-0.438,27.282 -22.236,48.714 -49.372,48.348Zm15.434,-201.142c0.512,-18.944 15.798,-33.5 34.962,-33.134c19.018,0.22 33.572,15.214 33.426,34.378c-0.146,18.798 -15.58,34.23 -34.012,34.304c-19.09,0 -34.816,-16.384 -34.378,-35.548Zm38.912,89.6c-0.146,-23.406 17.774,-41.472 41.106,-41.472c23.406,0 41.18,17.92 40.96,41.398c-0.146,23.406 -18.14,41.106 -41.618,40.814c-22.748,-0.438 -40.302,-18.212 -40.448,-40.74Zm111.176,138.678c-26.404,-0.512 -48.86,-22.894 -49.372,-49.298c-0.586,-26.844 22.308,-49.738 49.738,-49.884c28.086,0 49.372,21.284 49.298,49.518c-0.074,27.574 -22.748,50.25 -49.664,49.664Zm70.656,-97.718c-22.82,-0.292 -41.692,-19.09 -41.546,-41.618c0.146,-22.454 19.31,-41.326 42.058,-41.398c23.332,-0.074 42.642,19.382 42.13,42.642c-0.512,22.674 -19.456,40.594 -42.642,40.374Zm10.9,-129.17c-0.292,-18.652 16.092,-34.962 35.328,-35.036c20.042,0 34.742,14.702 34.524,34.962c-0.22,19.164 -16.75,35.548 -35.182,34.962c-18.066,-0.586 -34.304,-16.896 -34.67,-34.89Zm84.26,200.192c-26.844,-0.146 -49.226,-22.602 -49.298,-49.226c-0.074,-26.99 21.942,-48.932 49.152,-49.152c27.648,-0.22 49.372,20.918 49.59,48.202c0.292,27.868 -21.87,50.322 -49.444,50.176Zm40.594,-114.834c-23.332,0.146 -41.91,-17.554 -42.422,-40.668c-0.512,-22.748 18.066,-41.618 41.106,-41.984c23.26,-0.292 41.91,17.628 42.13,40.668c0.438,23.26 -17.7,41.764 -40.814,41.984Zm15.14,-104.96c-18.724,-0.074 -34.304,-15.58 -34.524,-34.084c-0.22,-18.798 16.75,-35.548 35.328,-35.182c19.164,0.366 34.45,16.676 34.012,36.132c-0.512,19.09 -15.434,33.354 -34.816,33.134Zm30.062,-196.024c-0.366,-15.58 12.434,-28.598 28.234,-28.818c16.238,-0.292 28.598,11.63 28.818,27.794c0.292,15.872 -12.068,28.746 -27.868,28.964c-15.726,0.438 -28.892,-12.362 -29.184,-27.94Zm63.928,339.018c-27.282,0.074 -48.932,-21.43 -49.006,-48.64c-0.074,-27.21 21.578,-48.786 48.86,-48.714c27.648,0 48.86,21.138 48.86,48.566c0,27.574 -21.212,48.786 -48.714,48.786Zm46.152,-276.846c0,-22.748 18.944,-41.252 41.984,-41.106c22.308,0.074 40.74,18.066 41.106,40.374c0.586,22.602 -18.286,41.692 -41.106,41.984c-22.966,0.074 -41.984,-18.578 -41.984,-41.252Zm72.632,159.012c-26.478,0.366 -49.372,-22.236 -49.59,-48.86c-0.366,-26.77 21.796,-49.152 48.786,-49.372c27.21,-0.146 49.372,21.504 49.59,48.494c0.146,26.77 -22.016,49.372 -48.786,49.738Zm75.044,-148.846c-26.55,-0.658 -48.86,-22.894 -49.152,-49.372c-0.438,-27.136 22.308,-49.884 49.738,-49.884c28.014,0.074 49.298,21.504 49.152,49.738c0,27.502 -22.894,50.102 -49.738,49.518Zm26.99,-165.668c-26.844,0.22 -50.322,-23.626 -49.738,-50.468c0.586,-26.916 22.82,-48.274 50.176,-48.128c27.356,0.074 48.566,21.65 48.494,49.152c0,26.844 -22.09,49.226 -48.932,49.444Z" transform="scale(0.0364583)" fill="#000"></path></svg>