<?xml version="1.0" encoding="UTF-8"?><svg width="64" height="64" version="1.1" viewBox="5.33327 -122.667 64 64" xmlns="http://www.w3.org/2000/svg" xmlns:xlink="http://www.w3.org/1999/xlink"><!--Generated by IJSVG (https://github.com/iconjar/IJSVG)--><path d="M1624.14,-3169.54v-124.49l90.354,-70.538h-977.782l-590.432,513.25h391.57c-0.71,9.714 -1.002,18.498 -1.002,28.46c0,95.29 33.002,174.11 99.072,237.078c66.07,63.072 147.434,94.39 243.778,94.39c22.506,0 44.574,-1.682 66.004,-4.682c-13.29,29.718 -19.998,57.248 -19.998,82.936c0,45.144 20.568,93.396 61.564,144.648c-179.354,12.208 -311.136,44.492 -395.14,96.746c-48.142,29.71 -86.858,67.218 -116.07,112.142c-29.214,45.254 -43.784,93.784 -43.784,146.11c0,44.106 9.428,83.822 28.43,119.142c19.002,35.32 43.784,64.322 74.57,86.784c30.712,22.71 66.144,41.604 106.144,57c39.928,15.286 79.572,26.142 119.136,32.286c39.438,6.136 78.65,9.136 117.512,9.136c61.572,0 123.216,-7.928 185.358,-23.712c61.996,-15.93 120.138,-39.504 174.496,-70.824c54.214,-31.108 98.356,-73.538 132.214,-126.712c33.784,-53.394 50.718,-113.394 50.718,-179.822c0,-50.358 -10.284,-96.176 -30.858,-137.786c-20.428,-41.472 -45.43,-75.616 -75.212,-102.144c-29.718,-26.572 -59.428,-50.996 -89.212,-72.996c-29.718,-22.148 -54.858,-44.574 -75.286,-67.716c-20.502,-23.07 -30.786,-45.962 -30.786,-68.498c0,-22.498 7.928,-44.214 23.844,-65.214c15.792,-21.072 35.08,-41.362 57.644,-60.826c22.572,-19.426 45.144,-40.996 67.642,-64.608c22.498,-23.53 41.786,-54.068 57.644,-91.466c15.93,-37.39 23.786,-79.748 23.786,-126.888c0,-61.498 -11.644,-111.82 -34.502,-152.29c-2.714,-4.674 -5.566,-8.244 -8.572,-13.816l260.148,-213.358v78.256c-33.8,4.25 -30.282,24.438 -30.282,48.618v588.192c0,27.238 22.286,49.526 49.526,49.526h18.234c27.238,0 49.526,-22.286 49.526,-49.526v-588.192c0,-24.122 3.554,-44.288 -29.996,-48.596Zm-490.788,1017.04c5.216,3.43 16.932,12.712 35.284,27.604c18.512,14.826 31.072,26.038 37.786,33.894c6.576,7.606 16.362,19.04 29.148,34.502c12.858,15.426 21.57,28.818 26.142,39.928c4.572,11.322 9.216,24.964 13.926,40.894c4.506,15.748 6.788,31.89 6.788,48.282c0,77.934 -30.004,135.68 -89.856,173.07c-60,37.398 -131.504,56.108 -214.572,56.108c-41.998,0 -83.214,-4.996 -123.714,-14.606c-40.426,-9.676 -79.14,-24.394 -116.07,-43.894c-36.93,-19.464 -66.64,-46.644 -89.146,-81.356c-22.572,-34.926 -33.858,-75.038 -33.858,-119.998c0,-47.178 12.786,-88.182 38.502,-122.998c25.57,-34.86 59.144,-61.22 100.718,-79.156c41.428,-18.038 83.426,-30.822 125.996,-38.392c42.57,-7.782 85.928,-11.68 130.004,-11.68c20.428,0 36.278,1.148 47.564,3.182c2.078,1.002 13.86,9.464 35.358,25.432c21.504,15.828 34.86,25.578 40.002,29.184Zm-15.352,-459.784c-33.858,40.5 -81.072,60.746 -141.502,60.746c-54.214,0 -101.932,-21.782 -142.928,-65.426c-41.142,-43.534 -70.502,-92.928 -88.43,-148.254c-18,-55.354 -26.998,-109.642 -26.998,-162.962c0,-62.602 16.436,-115.894 49.284,-159.89c32.856,-44.112 79.996,-66.216 141.43,-66.216c54.286,0 102.282,23.032 143.712,69.288c41.574,46.102 71.358,97.888 89.22,155.282c17.928,57.322 26.85,112.136 26.85,164.498c0,61.47 -16.926,112.502 -50.636,152.934Z" transform="scale(0.0364583)" fill="#000"></path></svg>