<?xml version="1.0" encoding="UTF-8"?><svg width="64" height="64" version="1.1" viewBox="7.29137e-05 -122.662 64 64" xmlns="http://www.w3.org/2000/svg" xmlns:xlink="http://www.w3.org/1999/xlink"><!--Generated by IJSVG (https://github.com/iconjar/IJSVG)--><path d="M896.76,-2885.62c-27.618,-30.838 -59.618,-46.19 -95.802,-46.19c-40.952,0 -72.382,14.738 -94.288,44.15c-21.906,29.322 -32.864,64.848 -32.864,106.584c0,35.548 5.998,71.738 18,108.64c11.958,36.886 31.524,69.814 58.954,98.838c27.334,29.096 59.144,43.616 95.284,43.616c40.288,0 71.76,-13.502 94.332,-40.492c22.476,-26.954 33.756,-60.98 33.756,-101.962c0,-34.904 -5.954,-71.454 -17.906,-109.664c-11.894,-38.262 -31.752,-72.784 -59.466,-103.52Zm762.098,-382.384c-64.358,-64.424 -141.86,-96.57 -232.572,-96.57h-1097.14c-90.712,0 -168.14,32.146 -232.572,96.57c-64.424,64.286 -96.57,141.86 -96.57,232.572v1097.14c0,90.712 32.146,168.288 96.57,232.712c64.432,64.146 142,96.432 232.572,96.432h1097.14c90.712,0 168.214,-32.286 232.572,-96.57c64.432,-64.432 96.644,-141.86 96.644,-232.572v-1097.14c0,-90.712 -32.22,-168.288 -96.644,-232.572Zm-361.048,358.414v392.126c0,18.154 -14.856,33.016 -33.016,33.016h-12.156c-18.162,0 -33.016,-14.856 -33.016,-33.016v-392.126c0,-16.12 -2.34,-29.578 20.188,-32.41v-52.172l-173.43,142.24c2.004,3.716 3.906,6.092 5.712,9.208c15.242,26.976 23.004,60.526 23.004,101.53c0,31.43 -5.238,59.662 -15.858,84.598c-10.57,24.928 -23.428,45.29 -38.43,60.972c-15.002,15.74 -30.048,30.128 -45.092,43.074c-15.046,12.976 -27.904,26.506 -38.436,40.55c-10.614,14 -15.894,28.474 -15.894,43.476c0,15.024 6.854,30.288 20.524,45.67c13.62,15.426 30.376,30.376 50.19,45.144c19.85,14.666 39.658,30.946 59.472,48.662c19.858,17.694 36.52,40.456 50.14,68.096c13.722,27.744 20.568,58.288 20.568,91.86c0,44.288 -11.294,84.282 -33.806,119.882c-22.58,35.446 -51.998,63.73 -88.144,84.472c-36.242,20.882 -75,36.6 -116.334,47.214c-41.42,10.518 -82.52,15.806 -123.568,15.806c-25.908,0 -52.048,-1.996 -78.336,-6.1c-26.382,-4.096 -52.81,-11.33 -79.426,-21.526c-26.668,-10.262 -50.286,-22.864 -70.758,-37.998c-20.524,-14.98 -37.046,-34.312 -49.716,-57.856c-12.668,-23.552 -18.958,-50.022 -18.958,-79.426c0,-34.882 9.714,-67.24 29.192,-97.404c19.478,-29.944 45.282,-54.952 77.378,-74.76c55.998,-34.838 143.858,-56.364 263.432,-64.498c-27.334,-34.172 -41.048,-66.334 -41.048,-96.432c0,-17.122 4.476,-35.474 13.334,-55.288c-14.284,1.996 -28.994,3.124 -44.002,3.124c-64.234,0 -118.476,-20.882 -162.524,-62.932c-44.046,-41.976 -66.048,-94.522 -66.048,-158.048c0,-6.642 0.19,-12.492 0.672,-18.974h-261.046l393.618,-342.17h651.856l-60.24,47.024v82.996c22.368,2.874 20.004,16.318 20.004,32.394Zm-397.428,609.23c-7.52,-1.36 -18.088,-2.122 -31.708,-2.122c-29.382,0 -58.288,2.596 -86.666,7.782c-28.38,5.046 -56.378,13.568 -83.998,25.592c-27.722,11.952 -50.096,29.528 -67.146,52.766c-17.144,23.208 -25.666,50.542 -25.666,81.994c0,29.974 7.52,56.714 22.572,80.004c15.002,23.142 34.808,41.26 59.428,54.236c24.62,12.998 50.432,22.814 77.378,29.264c26.998,6.408 54.476,9.736 82.476,9.736c55.376,0 103.05,-12.47 143.046,-37.406c39.906,-24.928 59.904,-63.422 59.904,-115.382c0,-10.928 -1.522,-21.686 -4.528,-32.19c-3.138,-10.62 -6.24,-19.712 -9.282,-27.26c-3.05,-7.41 -8.858,-16.332 -17.43,-26.616c-8.522,-10.314 -15.046,-17.934 -19.434,-23.004c-4.476,-5.238 -12.852,-12.712 -25.19,-22.594c-12.236,-9.926 -20.048,-16.114 -23.522,-18.402c-3.43,-2.406 -12.332,-8.908 -26.668,-19.456c-14.328,-10.634 -22.184,-16.274 -23.566,-16.94Z" transform="scale(0.0364568)" fill="#000"></path></svg>