<?xml version="1.0" encoding="UTF-8"?><svg width="64" height="64" version="1.1" viewBox="7.29137e-05 -122.662 64 64" xmlns="http://www.w3.org/2000/svg" xmlns:xlink="http://www.w3.org/1999/xlink"><!--Generated by IJSVG (https://github.com/iconjar/IJSVG)--><path d="M1658.86,-3268c-64.358,-64.424 -141.86,-96.57 -232.572,-96.57h-1097.14c-90.712,0 -168.14,32.146 -232.572,96.57c-64.424,64.286 -96.57,141.86 -96.57,232.572v1097.14c0,90.712 32.146,168.288 96.57,232.712c64.432,64.146 142,96.432 232.572,96.432h1097.14c90.712,0 168.214,-32.286 232.572,-96.57c64.432,-64.432 96.644,-141.86 96.644,-232.572v-1097.14c0,-90.712 -32.22,-168.288 -96.644,-232.572Zm-591.44,1360.07l-295.416,79.156c-18.184,4.872 -37.046,-6.02 -41.918,-24.202l-2.216,-8.266c-4.878,-18.19 6.02,-37.046 24.202,-41.926l295.416,-79.156c18.184,-4.872 37.046,6.02 41.926,24.202l2.216,8.266c4.864,18.19 -6.02,37.054 -24.21,41.926Zm170.268,-409.776c-18.19,19.296 -37.45,37.624 -56.774,55.794c-36.11,33.93 -58.302,73.684 -59.45,124.76c-0.768,34.216 -19.09,58.186 -52.758,67.482c-4.768,1.354 -368.354,99.05 -368.354,99.05c-20.042,5.368 -40.836,-6.634 -46.212,-26.676l-0.834,-3.102c-5.368,-20.042 6.634,-40.836 26.676,-46.212c0,0 316.87,-88.788 311.472,-83.77c28.898,-7.124 45.626,-21.92 52.612,-51.748c14.936,-63.78 56.422,-111.264 101.946,-155.378c75.432,-73.084 126.296,-158.106 139.988,-264.608c20.502,-159.43 -56.832,-324.25 -198.992,-404.254c-153.088,-86.154 -306.652,-80.472 -449.594,21.562c-198.97,142.028 -228.126,416.234 -68.704,601.732c44.42,51.69 89.564,102.744 139.132,159.546c130.4,-19.054 130.392,-19.054 130.4,-151.67c0.008,-82.44 0.512,-164.886 -0.22,-247.318c-0.256,-29.338 9.334,-52.246 40.69,-51.514c30.962,0.716 40.016,24.416 39.906,53.196c-0.46,127.152 -0.738,254.304 0.096,381.448c0.204,31.502 -11.666,48.954 -42.912,56.546c-60.958,14.812 -121.118,32.936 -182.082,47.69c-43.908,10.628 -49.686,-2.034 -67.708,-42.504c-17.978,-40.374 -47.294,-78.204 -79.184,-109.444c-135.98,-133.178 -189.718,-292.198 -146.542,-477.088c43.616,-186.792 163.554,-308.254 347.502,-361.998c210.198,-61.418 436.458,30.252 550.686,218.924c114.19,188.606 89.41,430.278 -60.782,589.554Zm-307.352,-471.582c-2.574,35.006 -22.368,54.74 -53.11,54.236c-30.61,-0.498 -52.882,-21.468 -52.15,-53.408c0.716,-31.078 20.202,-51.492 53.35,-51.142c33.12,0.366 49.546,19.938 51.91,50.314Z" transform="scale(0.0364568)" fill="#000"></path></svg>