<?xml version="1.0" encoding="UTF-8"?><svg width="64" height="64" version="1.1" viewBox="13.4189 -122.671 64 64" xmlns="http://www.w3.org/2000/svg" xmlns:xlink="http://www.w3.org/1999/xlink"><!--Generated by IJSVG (https://github.com/iconjar/IJSVG)--><path d="M1271.35,-1713.35l-382.822,102.576c-27.274,7.306 -55.566,-9.026 -62.874,-36.3v0c-7.306,-27.274 9.026,-55.566 36.3,-62.874l382.822,-102.576c27.274,-7.306 55.566,9.026 62.874,36.3v0c7.314,27.274 -9.026,55.566 -36.3,62.874Zm-177.248,-1176.46c-3.43,46.666 -29.828,72.968 -70.81,72.302c-40.806,-0.658 -70.502,-28.62 -69.522,-71.204c0.95,-41.436 26.932,-68.652 71.124,-68.17c44.164,0.476 66.056,26.572 69.208,67.072Zm490.782,-157.278c-152.29,-251.53 -453.924,-373.738 -734.15,-291.862c-245.234,71.65 -405.13,233.582 -463.272,482.604c-57.548,246.484 14.08,458.488 195.364,636.036c42.518,41.64 81.606,92.08 105.574,145.898c24.028,53.95 31.73,70.824 90.258,56.656c81.284,-19.668 161.478,-43.828 242.746,-63.568c41.662,-10.122 57.49,-33.382 57.212,-75.382c-1.112,-169.508 -0.738,-339.024 -0.124,-508.534c0.138,-38.37 -11.922,-69.962 -53.204,-70.92c-41.794,-0.972 -54.586,29.564 -54.236,68.682c0.966,109.898 0.292,219.808 0.286,329.706c-0.008,176.8 0,176.8 -173.846,202.204c-66.084,-75.724 -126.266,-143.798 -185.482,-212.7c-212.538,-247.296 -173.67,-612.864 91.59,-802.202c190.566,-136.032 395.286,-143.602 599.384,-28.746c189.514,106.65 292.616,326.378 265.29,538.932c-18.256,141.992 -86.06,255.334 -186.624,352.768c-60.694,58.806 -115.998,122.112 -135.906,207.14c-9.312,39.768 -31.612,59.494 -70.136,68.988c7.198,-6.692 -415.24,111.674 -415.24,111.674c-26.726,7.16 -42.73,34.882 -35.57,61.608l1.104,4.132c7.16,26.72 34.882,42.73 61.608,35.57c0,0 484.71,-130.252 491.066,-132.052c44.888,-12.39 69.318,-44.346 70.342,-89.958c1.528,-68.088 31.114,-121.088 79.258,-166.326c25.776,-24.224 51.442,-48.662 75.696,-74.378c200.206,-212.342 233.246,-534.528 81.014,-785.972Z" transform="scale(0.0364633)" fill="#000"></path></svg>