<?xml version="1.0" encoding="UTF-8"?><svg width="64" height="64" version="1.1" viewBox="5.33338 -121.419 64 64" xmlns="http://www.w3.org/2000/svg" xmlns:xlink="http://www.w3.org/1999/xlink"><!--Generated by IJSVG (https://github.com/iconjar/IJSVG)--><path d="M1867.8,-2517.26l-4.732,-0.768c-148.662,-101.128 -287.174,-215.508 -417.668,-345.256l-144.208,-150.646c-58.426,-64.76 -115.192,-136.506 -169.208,-204.938l-65.632,-93.002c-8.046,-4.9 -18.074,-13.02 -26.96,-15.396c-19.354,-8.39 -40.228,1.756 -56.02,13.736l-118.762,154.676c-190.522,235.958 -416.052,456.294 -662.104,625.182c-19.464,15.2 -48.376,30.032 -54.396,55.084c-6.458,22.528 5.274,41.12 19.266,55.128c197.032,135.716 385.412,296.836 553.084,480.578c29.762,31.268 53.892,62.362 83.01,91.722c49.042,65.258 106.65,131.036 151.734,201.048c14.138,14.774 16.56,39.066 38.67,46.27c17.306,5.99 38.67,10.058 55.186,0l16.414,-16.486c203.872,-288.804 462.424,-548.184 751.308,-757.6c28.92,-25.82 84.15,-35.43 84.94,-83.354c-2.062,-22.112 -14.936,-43.894 -33.924,-55.976Zm-197.362,77.26c-32.9,82.242 -99.744,147.8 -158.194,219.618c-126.456,136.112 -259.848,267.82 -409.176,372.882c-30.2,21.366 -70.948,41.092 -107.146,24.138c-109.92,-57.534 -202.606,-151.786 -298.81,-237.664c-111.58,-103.454 -223.546,-223.92 -308.114,-349.93c-12.574,-17.678 -16.114,-39.49 -15.748,-62.808c10.87,-43.498 40.674,-79.294 68.872,-115.96c99.92,-127.35 222.318,-248.138 345.922,-358.474c2.846,-2.824 8.118,-8.836 12.602,-11.71c53.072,-45.904 105.808,-86.528 161.44,-126.456c57.958,-45.108 130.89,-7.65 179.654,33.836c51.076,39.044 104.28,83.28 150.966,128.49l8.492,4.878c129.31,119.968 249.402,253.308 348.05,394.27c15.996,24.532 30.128,52.342 21.19,84.89Zm-55.924,-71.3c-127.67,-184.73 -295.226,-348.32 -472.774,-491.242c-45.926,-32.256 -99.102,-88.708 -158.368,-48.326c-184.042,127.174 -361.172,299.652 -503.794,475.546c-29.038,42.73 -79.792,83.426 -56.766,140.17c16.486,41.888 53.526,72.162 77.238,109.1c139.872,168.024 304.874,324.682 477.302,450.692c75.732,48.398 129.704,-29.732 188.496,-65.506c120.466,-95.166 231.944,-210.68 337.51,-323.05v-2.786c42.336,-51.17 86.996,-101.552 120.094,-156.76c14.432,-26.982 7.16,-63.992 -8.938,-87.838Zm-609.778,-372.062l16.07,-51.566h2.078c33.024,94.574 67.314,188.92 102.664,282.324l-70.876,1.206l-1.588,8.566l10.526,253.162v4.11c-26.266,4.476 -58.448,3.19 -84.224,0.666l-2.034,-2.742l11.784,-261.01v-1.91c-19.808,-2.056 -44.786,0 -64.958,-2.056l80.56,-230.752Zm-41.838,841.676c6.86,-92.914 8.046,-178.696 12.852,-271.382c32.63,3.218 60.826,2.034 90.61,0.864l2.056,12.332l11.688,259.028c-39.124,5.69 -80.516,2.502 -117.204,-0.842Zm296.88,-322.904c-169.186,52.706 -381.922,50.3 -542.172,-20.304c-28.994,-13.912 -65.632,-35.774 -75.308,-69.61c-7.328,-61.966 59.144,-96.204 104.324,-118.858c26.588,-11.586 53.526,-24.488 83.01,-26.12c27.312,20.202 55.954,36.264 84.122,54.418c-54.814,14.556 -120.444,27.034 -145.818,86.944c4.432,45.524 56.02,59.984 91.772,71.248c129.426,34.334 269.056,29.93 393.158,-15.228c23.392,-13.736 60.43,-30.23 57.212,-64.066c-4.11,-36.198 -45.546,-52.312 -74.488,-63.576c-17.796,2.422 -34.706,6.436 -51.2,11.71c-8.814,-25.03 -16.436,-50.432 -27.012,-74.518c54.886,14.512 109.598,29.338 166.262,39.49v1.142c-11.616,1.214 -24.51,5.2 -35.722,9.632v2.004c32.16,16.194 76.918,42.81 77.364,85.088c-7.658,51.17 -63.736,74.51 -105.502,90.602Z" transform="scale(0.0364583)" fill="#000"></path></svg>