<?xml version="1.0" encoding="UTF-8"?><svg width="64" height="64" version="1.1" viewBox="7.29137e-05 -122.662 64 64" xmlns="http://www.w3.org/2000/svg" xmlns:xlink="http://www.w3.org/1999/xlink"><!--Generated by IJSVG (https://github.com/iconjar/IJSVG)--><path d="M1053.67,-2530.09v-1.332c7.476,-2.954 16.076,-5.61 23.816,-6.422v-0.76c-37.778,-6.766 -74.254,-16.654 -110.84,-26.324c7.044,16.054 12.128,32.988 18.008,49.678c10.994,-3.51 22.264,-6.188 34.128,-7.812c19.296,7.512 46.922,18.256 49.664,42.386c2.144,22.564 -22.55,33.55 -38.144,42.716c-82.74,30.106 -175.82,33.038 -262.108,10.152c-23.83,-7.512 -58.23,-17.152 -61.184,-47.498c16.918,-39.944 60.672,-48.26 97.214,-57.966c-18.784,-12.098 -37.88,-22.806 -56.086,-36.278c-19.654,1.09 -37.61,9.684 -55.34,17.408c-30.12,15.104 -74.43,37.932 -69.552,79.242c6.458,22.564 30.88,37.142 50.206,46.41c106.832,47.074 248.656,48.676 361.45,13.538c27.846,-10.73 65.228,-26.288 70.342,-60.408c-0.3,-28.19 -30.134,-45.934 -51.574,-56.73Zm-199.19,-72.236l-7.856,174.006l1.354,1.828c17.182,1.69 38.642,2.546 56.144,-0.438v-2.742l-7.014,-168.77l1.06,-5.712l47.25,-0.804c-23.566,-62.266 -46.424,-125.17 -68.44,-188.212h-1.39l-10.708,34.378l-53.708,153.834c13.45,1.368 30.106,0 43.308,1.368v1.266Zm208.034,-180.348l-5.662,-3.248c-31.122,-30.134 -66.596,-59.634 -100.644,-85.658c-32.512,-27.662 -81.138,-52.626 -119.772,-22.564c-37.084,26.624 -72.244,53.708 -107.622,84.304c-2.992,1.916 -6.502,5.924 -8.404,7.804c-82.402,73.56 -164,154.082 -230.62,238.986c-18.798,24.444 -38.67,48.31 -45.912,77.304c-0.248,15.55 2.114,30.09 10.504,41.874c56.378,84.004 131.028,164.316 205.408,233.29c64.138,57.256 125.93,120.086 199.212,158.442c24.13,11.308 51.296,-1.85 71.432,-16.092c99.554,-70.042 188.482,-157.85 272.786,-248.59c38.97,-47.88 83.53,-91.582 105.464,-146.41c5.954,-21.708 -3.466,-40.236 -14.132,-56.59c-65.77,-93.982 -145.832,-182.872 -232.038,-262.854Zm214.834,330.468c-22.068,36.806 -51.836,70.392 -80.062,104.506v1.866c-70.378,74.912 -144.698,151.918 -225.002,215.362c-39.198,23.852 -75.176,75.936 -125.666,43.674c-114.952,-84.012 -224.958,-188.452 -318.208,-300.464c-15.806,-24.628 -40.5,-44.808 -51.492,-72.734c-15.346,-37.83 18.484,-64.966 37.844,-93.448c95.078,-117.262 213.168,-232.25 335.864,-317.03c39.512,-26.916 74.956,10.708 105.574,32.22c118.368,95.276 230.07,204.34 315.18,327.498c10.738,15.894 15.594,40.566 5.968,58.55Zm-371.396,74.174c-19.858,0.776 -38.648,1.566 -60.408,-0.578c-3.204,61.792 -3.994,118.982 -8.566,180.926c24.458,2.23 52.056,4.36 78.132,0.556l-7.79,-172.682l-1.368,-8.222Zm752.91,-889.974c-64.358,-64.424 -141.86,-96.57 -232.572,-96.57h-1097.14c-90.712,0 -168.14,32.146 -232.572,96.57c-64.424,64.286 -96.57,141.86 -96.57,232.572v1097.14c0,90.712 32.146,168.288 96.57,232.712c64.432,64.146 142,96.432 232.572,96.432h1097.14c90.712,0 168.214,-32.286 232.572,-96.57c64.432,-64.432 96.644,-141.86 96.644,-232.572v-1097.14c0,-90.712 -32.22,-168.288 -96.644,-232.572Zm-252.628,846.154c-192.592,139.616 -364.96,312.524 -500.874,505.066l-10.942,10.994c-11.008,6.7 -25.256,3.994 -36.79,0c-14.738,-4.798 -16.354,-20.992 -25.782,-30.844c-30.054,-46.672 -68.462,-90.528 -101.15,-134.034c-19.412,-19.574 -35.504,-40.302 -55.34,-61.154c-111.784,-122.492 -237.364,-229.902 -368.728,-320.38c-9.318,-9.34 -17.144,-21.73 -12.836,-36.754c4.016,-16.698 23.288,-26.588 36.256,-36.718c164.038,-112.596 314.39,-259.482 441.41,-416.782l79.178,-103.124c10.526,-7.988 24.444,-14.752 37.346,-9.158c5.924,1.588 12.61,7 17.972,10.27l43.746,62.004c36.016,45.62 73.86,93.448 112.808,136.624l96.138,100.426c86.996,86.498 179.338,162.75 278.448,230.174l3.152,0.512c12.668,8.054 21.248,22.58 22.616,37.318c-0.526,31.948 -37.346,38.348 -56.628,55.566Z" transform="scale(0.0364568)" fill="#000"></path></svg>