<?xml version="1.0" encoding="UTF-8"?><svg width="64" height="64" version="1.1" viewBox="7.29137e-05 -122.662 64 64" xmlns="http://www.w3.org/2000/svg" xmlns:xlink="http://www.w3.org/1999/xlink"><!--Generated by IJSVG (https://github.com/iconjar/IJSVG)--><path d="M877.714,-2995.05c-273.628,0 -495.396,227.548 -495.396,508.124c0,280.722 221.77,508.27 495.396,508.27c273.626,0 495.396,-227.548 495.396,-508.27c0,-280.576 -221.696,-508.124 -495.396,-508.124Zm0.074,964.096c-251.758,0 -455.9,-204.142 -455.9,-455.972c0,-251.684 204.142,-455.826 455.9,-455.826c251.83,0 455.972,204.142 455.972,455.826c0.074,251.83 -204.068,455.972 -455.972,455.972Zm124.27,-288.402h-52.882v-273.994c0,-10.678 -8.63,-19.31 -19.236,-19.31h-168.302c-10.678,0 -19.31,8.558 -19.31,19.31v81.628c0,10.678 8.63,19.236 19.31,19.236h52.882v173.13h-52.882c-10.678,0 -19.31,8.558 -19.31,19.31v86.454c0,10.678 8.63,19.31 19.31,19.31h240.42c10.606,0 19.236,-8.63 19.236,-19.31v-86.454c0,-10.752 -8.63,-19.31 -19.236,-19.31Zm-168.302,-360.742h96.182c10.606,0 19.236,-8.412 19.236,-19.164v-81.7c0,-10.678 -8.63,-19.31 -19.236,-19.31h-96.182c-10.606,0 -19.236,8.558 -19.236,19.31v81.7c0,10.752 8.63,19.164 19.236,19.164Zm825.124,-587.922c-64.366,-64.438 -141.898,-96.548 -232.594,-96.548h-1097.14c-90.698,0 -168.156,32.11 -232.594,96.548c-64.438,64.292 -96.548,141.898 -96.548,232.594v1097.14c0,90.698 32.11,168.302 96.548,232.74c64.438,64.146 142.044,96.402 232.594,96.402h1097.14c90.698,0 168.228,-32.256 232.594,-96.548c64.438,-64.438 96.622,-141.824 96.622,-232.594v-1097.14c0,-90.698 -32.182,-168.302 -96.622,-232.594Zm-212.554,937.106c-6.948,27.868 -28.598,51.054 -49.518,73.582c-15.214,16.384 -30.94,33.28 -41.252,52.078c-10.386,18.944 -16.164,41.326 -21.87,62.976c-7.754,29.77 -15.798,60.342 -35.402,80.896c-19.602,20.334 -48.566,29.11 -79.286,38.4c-21.358,6.51 -43.594,13.312 -62.244,24.284c-17.774,10.678 -33.866,26.332 -49.372,41.618c-22.236,21.942 -45.202,44.47 -73.728,52.224c-7.68,2.194 -15.798,3.146 -24.868,3.146c-21.138,0 -43.52,-5.778 -65.098,-11.41c-21.066,-5.412 -42.862,-11.044 -63.562,-11.338h-1.462c-21.212,0 -43.3,5.12 -64.586,10.166c-20.554,4.754 -41.91,9.728 -61.66,9.728c-9.654,0 -18.212,-1.17 -26.186,-3.438c-27.21,-7.972 -49.518,-30.5 -71.094,-52.444c-15.726,-15.872 -32.036,-32.402 -50.468,-43.594c-18.286,-11.118 -40.374,-17.92 -61.732,-24.502c-29.404,-9.07 -59.758,-18.358 -79.652,-38.912c-19.164,-19.968 -26.99,-48.86 -35.254,-79.434c-5.998,-22.162 -12.142,-44.764 -23.04,-64.146c-10.24,-18.432 -26.038,-34.962 -41.398,-50.834c-21.358,-22.236 -43.52,-45.276 -50.98,-73.508c-7.606,-28.234 0,-59.172 7.46,-89.234c5.266,-21.43 10.752,-43.666 10.532,-64.732c-0.22,-22.162 -6.364,-44.91 -12.142,-66.998c-8.118,-30.646 -15.798,-59.538 -9.142,-86.454c6.876,-27.794 28.526,-51.054 49.444,-73.582c15.214,-16.31 30.94,-33.28 41.252,-52.15c10.386,-18.87 16.238,-41.252 21.796,-62.976c7.68,-29.696 15.726,-60.416 35.328,-80.822c19.53,-20.26 48.566,-29.11 79.286,-38.474c21.358,-6.51 43.52,-13.238 62.244,-24.21c17.846,-10.678 33.866,-26.332 49.372,-41.692c22.236,-21.87 45.202,-44.544 73.728,-52.15c7.754,-2.122 15.872,-3.146 24.868,-3.146c21.138,0 43.446,5.778 65.024,11.338c21.066,5.486 42.862,11.118 63.634,11.338l1.462,0.074c21.212,0 43.228,-5.12 64.512,-10.166c20.626,-4.682 41.91,-9.802 61.66,-9.802c9.654,0 18.212,1.17 26.258,3.51c27.21,7.972 49.518,30.574 71.022,52.298c15.726,16.018 32.036,32.548 50.468,43.74c18.286,11.118 40.374,17.92 61.732,24.43c29.404,9.142 59.758,18.432 79.58,38.986c19.236,19.894 27.062,48.86 35.328,79.506c5.924,22.016 12.142,44.69 22.966,64.074c10.314,18.432 26.112,34.89 41.472,50.834c21.358,22.308 43.446,45.202 50.98,73.508c7.534,28.234 -0.074,59.246 -7.46,89.234c-5.34,21.43 -10.752,43.666 -10.606,64.732c0.292,22.162 6.364,44.91 12.214,66.998c8.412,30.646 16.018,59.612 9.436,86.454Z" transform="scale(0.0364568)" fill="#000"></path></svg>