<?xml version="1.0" encoding="UTF-8"?><svg width="64" height="64" version="1.1" viewBox="6.10323 -122.667 64 64" xmlns="http://www.w3.org/2000/svg" xmlns:xlink="http://www.w3.org/1999/xlink"><!--Generated by IJSVG (https://github.com/iconjar/IJSVG)--><path d="M1863.09,-2382.55c-8.778,-33.134 -17.846,-67.364 -18.286,-100.572c-0.366,-31.598 7.826,-64.878 15.798,-97.06c10.972,-44.982 22.454,-91.502 11.118,-133.778c-11.338,-42.422 -44.47,-76.874 -76.508,-110.226c-22.966,-23.99 -46.812,-48.714 -62.244,-76.288c-16.31,-29.038 -25.6,-63.122 -34.524,-96.11c-12.434,-46.006 -24.138,-89.38 -53.028,-119.296c-29.696,-30.794 -75.264,-44.764 -119.37,-58.514c-32.036,-9.728 -65.098,-19.822 -92.598,-36.572c-27.648,-16.75 -52.078,-41.546 -75.776,-65.536c-32.256,-32.622 -65.682,-66.486 -106.57,-78.482c-12.142,-3.51 -24.942,-5.194 -39.424,-5.194c-29.696,0 -61.586,7.606 -92.526,14.702c-31.964,7.534 -65.024,15.14 -96.842,15.14l-1.974,-0.146c-31.158,-0.292 -63.854,-8.778 -95.452,-16.97c-32.33,-8.412 -65.828,-17.116 -97.5,-17.116c-13.532,0 -25.674,1.536 -37.376,4.608c-42.716,11.338 -77.238,45.422 -110.592,78.116c-23.26,23.114 -47.25,46.738 -74.094,62.684c-27.94,16.53 -61.22,26.624 -93.33,36.278c-46.08,13.97 -89.674,27.282 -118.93,57.71c-29.404,30.646 -41.472,76.8 -53.174,121.344c-8.338,32.548 -17.116,66.268 -32.694,94.574c-15.434,28.16 -38.986,53.686 -61.878,78.116c-31.306,33.792 -63.854,68.682 -74.094,110.372c-10.02,40.374 1.462,83.748 13.678,129.682c8.704,33.06 17.846,67.218 18.212,100.498c0.366,31.598 -7.826,64.95 -15.726,97.06c-11.044,45.056 -22.454,91.502 -11.118,133.778c11.264,42.276 44.398,76.946 76.434,110.226c23.04,23.918 46.812,48.714 62.172,76.288c16.384,29.038 25.674,63.05 34.596,96.182c12.434,45.934 24.21,89.234 52.956,119.15c29.77,30.94 75.338,44.836 119.442,58.442c32.036,9.874 65.17,20.042 92.598,36.79c27.648,16.75 52.15,41.472 75.702,65.39c32.33,32.842 65.828,66.634 106.642,78.556c12.068,3.438 24.868,5.12 39.35,5.12c29.696,0 61.66,-7.388 92.526,-14.482c32.036,-7.606 65.098,-15.214 96.914,-15.214h2.122c31.086,0.438 63.854,8.85 95.378,16.97c32.256,8.558 65.756,17.188 97.5,17.188c13.532,0 25.674,-1.462 37.302,-4.534c42.788,-11.556 77.238,-45.422 110.592,-78.336c23.26,-22.894 47.396,-46.518 74.094,-62.464c28.014,-16.53 61.294,-26.698 93.33,-36.426c46.08,-13.97 89.6,-27.136 118.93,-57.636c29.404,-30.866 41.472,-76.8 53.102,-121.418c8.484,-32.402 17.262,-66.048 32.768,-94.5c15.434,-28.16 39.132,-53.54 61.878,-78.116c31.306,-33.718 63.854,-68.608 74.24,-110.3c9.948,-40.374 -1.536,-83.748 -13.75,-129.682Zm-839.094,657.992c-410.478,0 -743.132,-341.358 -743.132,-762.368c0,-420.864 332.654,-762.222 743.132,-762.222c410.478,0 743.132,341.358 743.132,762.222c0,421.01 -332.654,762.368 -743.132,762.368Zm0.146,-1446.25c-377.71,0 -683.958,306.25 -683.958,683.886c0,377.782 306.25,684.032 683.958,684.032c377.782,0 684.032,-306.25 684.032,-684.032c0,-377.636 -306.25,-683.886 -684.032,-683.886Zm-94.94,242.906c0,-16.092 12.874,-28.964 28.818,-28.964h144.31c15.872,0 28.818,12.946 28.818,28.964v122.514c0,16.092 -12.874,28.818 -28.818,28.818h-144.31c-15.946,0 -28.818,-12.726 -28.818,-28.818v-122.514Zm310.2,850.872c0,16.018 -13.02,28.964 -28.892,28.964h-360.594c-15.946,0 -28.892,-12.946 -28.892,-28.964v-129.682c0,-16.092 12.946,-28.892 28.892,-28.892h79.286v-259.804h-79.286c-15.946,0 -28.892,-12.874 -28.892,-28.818v-122.514c0,-16.092 12.946,-28.892 28.892,-28.892h252.49c15.872,0 28.818,12.8 28.818,28.892v411.062h79.36c15.872,0 28.892,12.8 28.892,28.892v129.756Z" transform="scale(0.0364583)" fill="#000"></path></svg>