<?xml version="1.0" encoding="UTF-8"?><svg width="64" height="64" version="1.1" viewBox="7.29137e-05 -122.662 64 64" xmlns="http://www.w3.org/2000/svg" xmlns:xlink="http://www.w3.org/1999/xlink"><!--Generated by IJSVG (https://github.com/iconjar/IJSVG)--><path d="M1658.86,-3268c-64.358,-64.424 -141.86,-96.57 -232.572,-96.57h-1097.14c-90.712,0 -168.14,32.146 -232.572,96.57c-64.424,64.286 -96.57,141.86 -96.57,232.572v1097.14c0,90.712 32.146,168.288 96.57,232.712c64.432,64.146 142,96.432 232.572,96.432h1097.14c90.712,0 168.214,-32.286 232.572,-96.57c64.432,-64.432 96.644,-141.86 96.644,-232.572v-1097.14c0,-90.712 -32.22,-168.288 -96.644,-232.572Zm-1207.65,227.862c19.508,-21.234 46.496,-31.862 80.948,-31.862c28.116,0 50.374,9.334 66.736,27.984c16.362,18.666 24.546,40.624 24.546,65.88c0,29.28 -9.472,54.682 -28.416,76.208c-18.944,21.534 -45.642,32.292 -80.092,32.292c-29.28,0 -52.1,-9.318 -68.454,-27.984c-16.37,-18.652 -24.546,-41.186 -24.546,-67.598c0,-28.702 9.758,-53.672 29.28,-74.92Zm724.73,792.174c-83.808,0 -153.088,-62.018 -164.55,-142.658h-435.354v-44.346c-0.542,44.486 -0.82,90.998 -0.82,139.718c0,5.068 0.044,10.064 0.052,15.112l330.73,170.89c19.954,-27.794 52.472,-45.97 89.3,-45.97c60.73,0 109.956,49.226 109.956,109.956c0,12.566 -2.208,24.584 -6.086,35.826l102.92,53.182l-21.65,41.904l-105.94,-54.748c-20.004,20.802 -48.054,33.792 -79.2,33.792c-60.73,0 -109.956,-49.226 -109.956,-109.956c0,-7.03 0.724,-13.882 1.99,-20.546l-311.734,-161.076c1.104,112.948 4.966,221.396 11.674,325.172h-155.868c8.032,-114.812 12.054,-245.994 12.054,-393.538c0,-165.902 -10.05,-305.122 -30.134,-417.654l172.222,-23.252c-2.356,40.99 -4.294,85.212 -5.844,132.498l307.624,-158.954c-1.258,-6.664 -1.99,-13.516 -1.99,-20.546c0,-60.73 49.226,-109.956 109.956,-109.956c31.136,0 59.188,12.998 79.192,33.792l105.948,-54.748l21.65,41.904l-102.926,53.182c3.876,11.242 6.092,23.266 6.092,35.826c0,60.73 -49.226,109.956 -109.956,109.956c-36.828,0 -69.346,-18.176 -89.3,-45.97l-327.848,169.414c-0.9,35.694 -1.588,73.026 -2.078,111.974h435.324c11.462,-80.64 80.742,-142.658 164.55,-142.658c91.808,0 166.24,74.43 166.24,166.24c0,91.81 -74.43,166.24 -166.24,166.24Z" transform="scale(0.0364568)" fill="#000"></path></svg>