<?xml version="1.0" encoding="UTF-8"?><svg width="64" height="64" version="1.1" viewBox="11.9349 -122.667 64 64" xmlns="http://www.w3.org/2000/svg" xmlns:xlink="http://www.w3.org/1999/xlink"><!--Generated by IJSVG (https://github.com/iconjar/IJSVG)--><path d="M1224.46,-2342.5c17.182,120.956 121.118,213.986 246.82,213.986c137.72,0 249.366,-111.646 249.366,-249.366c0,-137.72 -111.646,-249.366 -249.366,-249.366c-125.704,0 -229.632,93.03 -246.82,213.986h-652.982c0.724,-58.434 1.762,-114.418 3.116,-167.966l491.776,-254.098c29.93,41.698 78.71,68.96 133.954,68.96c91.092,0 164.93,-73.846 164.93,-164.93c0,-18.842 -3.314,-36.872 -9.136,-53.738l154.382,-79.77l-32.476,-62.852l-158.918,82.118c-30.01,-31.196 -72.09,-50.688 -118.792,-50.688c-91.092,0 -164.93,73.846 -164.93,164.93c0,10.54 1.09,20.824 2.984,30.816l-461.436,238.424c2.326,-70.934 5.238,-137.26 8.77,-198.752l-258.348,34.882c30.134,168.792 45.202,377.622 45.202,626.476c0,221.316 -6.026,418.084 -18.08,590.306h233.794c-10.05,-155.67 -15.842,-318.332 -17.518,-487.754l467.602,241.612c-1.894,9.998 -2.984,20.276 -2.984,30.822c0,91.092 73.846,164.93 164.93,164.93c46.702,0 88.78,-19.492 118.792,-50.688l158.918,82.118l32.476,-62.852l-154.382,-79.77c5.814,-16.866 9.128,-34.896 9.128,-53.738c0,-91.092 -73.846,-164.93 -164.93,-164.93c-55.244,0 -104.016,27.26 -133.946,68.952l-496.092,-256.336c-0.014,-7.578 -0.08,-15.068 -0.08,-22.666c0,-73.07 0.424,-142.848 1.228,-209.576v66.516h653.048Zm-744.688,-718.518c51.668,0 91.714,-16.142 120.13,-48.442c28.416,-32.292 42.62,-70.392 42.62,-114.314c0,-37.88 -12.266,-70.816 -36.812,-98.808c-24.54,-27.978 -57.922,-41.984 -100.096,-41.984c-51.668,0 -92.152,15.938 -121.418,47.792c-29.294,31.868 -43.922,69.332 -43.922,112.376c0,39.614 12.274,73.42 36.812,101.398c24.54,28 58.77,41.984 102.686,41.984Z" transform="scale(0.0364585)" fill="#000"></path></svg>