<?xml version="1.0" encoding="UTF-8"?><svg width="64" height="64" version="1.1" viewBox="7.29137e-05 -122.662 64 64" xmlns="http://www.w3.org/2000/svg" xmlns:xlink="http://www.w3.org/1999/xlink"><!--Generated by IJSVG (https://github.com/iconjar/IJSVG)--><path d="M1658.86,-3268c-64.358,-64.424 -141.86,-96.57 -232.572,-96.57h-1097.14c-90.712,0 -168.14,32.146 -232.572,96.57c-64.424,64.286 -96.57,141.86 -96.57,232.572v1097.14c0,90.712 32.146,168.288 96.57,232.712c64.432,64.146 142,96.432 232.572,96.432h1097.14c90.712,0 168.214,-32.286 232.572,-96.57c64.432,-64.432 96.644,-141.86 96.644,-232.572v-1097.14c0,-90.712 -32.22,-168.288 -96.644,-232.572Zm-1432.38,602.646c-11.06,-149.848 21.54,-253.448 108.924,-346.616c147.938,-157.6 464.684,-176.772 822.052,-49.766c62.728,22.324 87.632,37.83 76.112,47.484c-8.528,7.132 -66.296,7.03 -166.122,-0.308c-156.05,-11.476 -274.842,10.232 -336.076,61.492c-93.22,78.022 -79.008,249.058 41.23,495.792c13.02,26.712 26.148,52.86 29.14,58.186c6.978,12.244 1.916,23.618 -10.226,23.048c-5.172,-0.256 -121.636,-14.98 -258.824,-32.76c-137.194,-17.774 -252.314,-33.228 -255.882,-34.362c-6.1,-1.968 -27.904,-74.716 -40.2,-133.94c-3.108,-14.972 -7.658,-54.652 -10.13,-88.246Zm526.746,-42.934c-15.242,-37.31 -14.518,-85.986 1.756,-115.126c14.73,-26.354 52.758,-56.84 86.814,-69.602c56.686,-21.234 155.948,-12.764 228.286,19.536c68.674,30.64 129.544,84.538 152.174,134.656c29.038,64.33 4.856,136.104 -57.352,170.364c-41.238,22.688 -121.38,34.516 -172.018,25.424h0.052c-109.502,-19.698 -207.938,-87.588 -239.712,-165.252Zm733.534,393.844c-39.738,77.144 -83.654,130.524 -157.184,191.188c-122.208,100.762 -264.258,170.934 -460.406,227.46c-105.354,30.384 -275.72,67.226 -310.806,67.226c-7.438,0 -21.394,-24.386 -64.9,-113.628l-0.102,0.052c-141.216,-289.368 -225.236,-464.12 -225.236,-468.458c0,-7.08 8.63,-6.1 93.476,10.54c149.226,29.302 228.96,37.566 361.86,37.618c175.842,0.052 319.02,-27.802 430.278,-83.756c58.85,-29.608 94.252,-55.86 123.238,-91.414c35.708,-43.82 47.178,-73.992 47.586,-124.79c0.358,-48.31 -6.144,-73.794 -34.1,-132.9c-11.06,-23.354 -20.772,-50.176 -21.702,-59.582c-1.448,-15.14 -0.212,-17.306 10.95,-18.6c24.394,-2.896 144.786,113.986 189.118,183.588c76.42,120.042 82.622,249.892 17.928,375.456Z" transform="scale(0.0364568)" fill="#000"></path></svg>