<?xml version="1.0" encoding="UTF-8"?><svg width="64" height="64" version="1.1" viewBox="5.57324 -122.667 64 64" xmlns="http://www.w3.org/2000/svg" xmlns:xlink="http://www.w3.org/1999/xlink"><!--Generated by IJSVG (https://github.com/iconjar/IJSVG)--><path d="M511.48,-1760.58c-188.292,-385.822 -300.318,-618.826 -300.318,-624.61c0,-9.436 11.506,-8.126 124.636,14.058c198.97,39.066 305.276,50.088 482.48,50.154c234.452,0.066 425.37,-37.068 573.704,-111.682c78.474,-39.476 125.666,-74.474 164.316,-121.878c47.608,-58.426 62.902,-98.662 63.452,-166.386c0.482,-64.416 -8.2,-98.384 -45.472,-177.204c-14.746,-31.144 -27.7,-66.896 -28.936,-79.44c-1.93,-20.188 -0.278,-23.084 14.606,-24.802c32.52,-3.854 193.046,151.984 252.16,244.788c101.896,160.044 110.168,333.18 23.91,500.604c-52.984,102.86 -111.542,174.028 -209.584,254.918c-162.94,134.348 -352.336,227.906 -613.866,303.28c-140.478,40.514 -367.63,89.636 -414.412,89.636c-9.918,0 -28.526,-32.52 -86.536,-151.5l-0.138,0.066Zm52.436,-622.206c-182.922,-23.698 -336.42,-44.302 -341.174,-45.816c-8.126,-2.618 -37.2,-99.62 -53.6,-178.578c-4.132,-19.982 -10.196,-72.894 -13.502,-117.672c-14.752,-199.804 28.724,-337.942 145.226,-462.16c197.252,-210.132 619.586,-235.696 1096.07,-66.348c83.638,29.762 116.846,50.432 101.486,63.312c-11.366,9.508 -88.394,9.37 -221.498,-0.416c-208.07,-15.294 -366.46,13.642 -448.102,81.986c-124.292,104.032 -105.34,332.084 54.982,661.058c17.364,35.62 34.86,70.48 38.86,77.576c9.304,16.326 2.552,31.488 -13.642,30.728c-6.898,-0.33 -162.194,-19.96 -345.11,-43.666Zm613.654,-178.986c-145.994,-26.25 -277.24,-116.78 -319.612,-220.328c-20.326,-49.744 -19.36,-114.644 2.34,-153.498c19.638,-35.138 70.342,-75.784 115.748,-92.804c75.578,-28.314 207.93,-17.02 304.384,26.046c91.56,40.858 172.726,112.714 202.898,179.544c38.722,85.774 6.474,181.474 -76.478,227.152c-54.982,30.244 -161.836,46.022 -229.354,33.894h0.074Z" transform="scale(0.0364583)" fill="#000"></path></svg>