<?xml version="1.0" encoding="UTF-8"?><svg width="64" height="64" version="1.1" viewBox="7.29137e-05 -122.662 64 64" xmlns="http://www.w3.org/2000/svg" xmlns:xlink="http://www.w3.org/1999/xlink"><!--Generated by IJSVG (https://github.com/iconjar/IJSVG)--><path d="M1404.55,-2638.67c-101.668,0 -122.938,186.77 -122.938,219.868c0,44.918 23.64,70.926 63.832,70.926c104.024,0 122.938,-189.14 122.938,-212.78c2.362,-52.004 -18.908,-78.014 -63.832,-78.014Zm254.31,-629.328c-64.358,-64.424 -141.86,-96.57 -232.572,-96.57h-1097.14c-90.712,0 -168.14,32.146 -232.572,96.57c-64.424,64.286 -96.57,141.86 -96.57,232.572v1097.14c0,90.712 32.146,168.288 96.57,232.712c64.432,64.146 142,96.432 232.572,96.432h1097.14c90.712,0 168.214,-32.286 232.572,-96.57c64.432,-64.432 96.644,-141.86 96.644,-232.572v-1097.14c0,-90.712 -32.22,-168.288 -96.644,-232.572Zm-1439.43,1366.29v-1170.29h1170.29l-0.03,263.314h-76.04v-187.246h-1022.57v1018.15h1022.57v-187.246h76.04l0.03,263.314h-1170.29Zm691.062,-715.176c-11.82,-14.19 -30.734,-21.284 -56.744,-21.284c-11.82,0 -26.01,2.362 -42.554,7.094c-16.544,4.732 -33.098,11.82 -52.012,21.278v276.618l14.19,14.182l40.184,4.726v30.734h-177.312v-30.734l40.184,-4.726l14.19,-14.182v-217.512c0,-28.372 -7.094,-49.65 -18.914,-63.832c-11.82,-14.182 -30.734,-21.278 -54.382,-21.278c-14.182,0 -28.372,2.362 -42.554,7.088c-14.19,4.732 -33.098,11.82 -49.65,21.284v276.612l14.182,14.19l40.192,4.726v30.734h-182.046v-30.734l44.924,-4.726l14.182,-14.19v-297.896h-59.106v-26.002l96.936,-28.372h30.734v44.918c28.372,-16.552 54.382,-28.372 75.652,-37.83c21.284,-7.094 40.192,-11.82 56.744,-11.82c21.278,0 37.83,4.726 54.374,14.182c14.198,7.094 28.38,18.922 37.836,37.83c30.734,-18.908 59.106,-33.098 82.746,-42.554c23.64,-9.456 42.554,-14.19 59.1,-14.19c33.104,0 59.106,11.82 78.022,33.098c18.916,21.278 28.372,52.012 28.372,89.842v234.058l14.182,14.19l44.918,4.726v30.734h-179.676v-30.734l37.83,-4.726l14.19,-14.19v-217.512c0,-28.358 -7.094,-49.634 -18.914,-63.818Zm427.856,342.31c-122.938,0 -200.952,-66.194 -200.952,-167.856c0,-82.746 54.374,-269.524 269.516,-269.524c130.034,0 200.96,63.832 200.96,174.95c0,70.926 -52.012,262.43 -269.524,262.43Z" transform="scale(0.0364568)" fill="#000"></path></svg>