<?xml version="1.0" encoding="UTF-8"?><svg width="64" height="64" version="1.1" viewBox="6.26669 -107.889 64 64" xmlns="http://www.w3.org/2000/svg" xmlns:xlink="http://www.w3.org/1999/xlink"><!--Generated by IJSVG (https://github.com/iconjar/IJSVG)--><path d="M832.812,-2380.47c38.422,-23.64 73.882,-41.376 103.432,-53.196c29.55,-11.82 53.196,-17.73 73.882,-17.73c41.376,0 73.882,14.774 97.528,41.376c23.648,26.594 35.46,65.016 35.46,112.296v292.572l17.73,17.73l56.152,5.91v38.414h-224.6v-38.414l47.286,-5.91l17.73,-17.73v-271.886c0,-35.466 -8.864,-62.062 -23.648,-79.792c-14.774,-17.73 -38.422,-26.594 -70.926,-26.594c-14.774,0 -32.504,2.954 -53.196,8.864c-20.684,5.91 -41.376,14.774 -65.016,26.594v345.768l17.73,17.73l50.234,5.91v38.414h-221.638v-38.414l50.234,-5.91l17.73,-17.73v-271.886c0,-35.466 -8.864,-62.062 -23.648,-79.792c-14.774,-17.73 -38.422,-26.594 -67.972,-26.594c-17.73,0 -35.46,2.954 -53.196,8.864c-17.736,5.91 -41.376,14.774 -62.062,26.594v345.768l17.73,17.73l50.234,5.91v38.414h-227.54v-38.414l56.152,-5.91l17.73,-17.73v-372.362h-73.882v-32.504l121.168,-35.466h38.422v56.152c35.46,-20.684 67.972,-35.466 94.566,-47.286c26.594,-8.864 50.234,-14.774 70.926,-14.774c26.594,0 47.286,5.91 67.972,17.73c17.738,8.864 35.466,23.64 47.294,47.286Zm821.474,-95.202c-268.932,0 -336.896,233.464 -336.896,336.904c0,127.078 97.522,209.824 251.194,209.824c271.886,0 336.904,-239.374 336.904,-328.032c0,-138.906 -88.656,-218.698 -251.202,-218.698Zm-76.828,455.108c-50.234,0 -79.792,-32.512 -79.792,-88.664c0,-41.37 26.594,-274.842 153.674,-274.842c56.144,0 82.746,32.512 79.792,97.528c0,29.558 -23.648,265.976 -153.674,265.976Zm-1407.52,-905.156v1462.86h1462.86l-0.036,-329.142h-95.05v234.058h-1278.22v-1272.69h1278.22v234.058h95.05l0.036,-329.142Z" transform="scale(0.0368759)" fill="#000"></path></svg>