<?xml version="1.0" encoding="UTF-8"?><svg width="64" height="64" version="1.1" viewBox="7.29137e-05 -122.662 64 64" xmlns="http://www.w3.org/2000/svg" xmlns:xlink="http://www.w3.org/1999/xlink"><!--Generated by IJSVG (https://github.com/iconjar/IJSVG)--><path d="M879.178,-2658.67c-79.946,-0.292 -144.458,63.05 -144.676,142.19c-0.292,71.68 55.442,144.164 143.946,144.164c88.21,0 143.652,-71.9 143.872,-143.434c0.146,-78.628 -64,-142.848 -143.14,-142.922Zm779.702,-609.354c-64.366,-64.438 -141.898,-96.548 -232.594,-96.548h-1097.14c-90.698,0 -168.156,32.11 -232.594,96.548c-64.438,64.292 -96.548,141.898 -96.548,232.594v1097.14c0,90.698 32.11,168.302 96.548,232.74c64.438,64.146 142.044,96.402 232.594,96.402h1097.14c90.698,0 168.228,-32.256 232.594,-96.548c64.438,-64.438 96.622,-141.824 96.622,-232.594v-1097.14c0,-90.698 -32.182,-168.302 -96.622,-232.594Zm-55.15,1084.42c-14.044,64.586 -78.628,104.96 -137.654,102.838c-66.048,-2.34 -120.246,-50.468 -130.634,-114.688c-4.754,-29.184 -1.024,-57.418 10.094,-84.918c5.924,-15.068 11.484,-30.5 14.044,-46.446c6.876,-42.204 -10.166,-74.972 -44.178,-99.548c-28.598,-20.626 -61.44,-30.794 -95.818,-35.402c-46.3,-6.07 -91.94,-3.292 -135.972,13.312c-18.87,7.022 -36.278,16.604 -51.126,30.354c-35.548,32.988 -40.228,80.018 -17.92,119.296c53.322,93.842 -9.142,205.458 -114.322,215.552c-44.47,4.316 -85.87,-3.072 -122.148,-31.086c-56.174,-43.446 -71.094,-119.516 -37.302,-181.614c26.038,-47.982 17.116,-101.522 -31.744,-134.144c-26.844,-18.14 -56.758,-27.574 -88.356,-31.67c-48.86,-6.364 -97.06,-2.78 -143.286,15.652c-19.822,7.826 -38.034,18.578 -52.882,34.084c-29.77,30.866 -35.328,67.072 -22.82,107.008c5.778,18.358 14.19,36.06 18.506,54.93c17.482,77.312 -31.524,152.576 -109.276,166.912c-51.858,9.728 -95.086,-8.558 -130.486,-46.666c-28.086,-30.208 -34.524,-67.876 -34.158,-107.3c0.074,-11.922 1.828,-24.138 4.316,-36.06c4.022,-19.676 13.312,-36.572 28.526,-50.322c23.552,-21.43 48.786,-39.424 81.188,-44.106c9.142,-1.098 18.432,-0.512 27.648,-1.098c10.678,-0.586 21.504,-0.438 31.89,-2.56c39.204,-7.826 61.514,-32.622 68.534,-74.24c6.218,-36.498 3.146,-72.924 -2.998,-108.836c-4.388,-25.892 -12.362,-51.054 -16.604,-77.02c-14.994,-92.234 13.312,-175.25 91.502,-226.596c98.158,-64.586 226.012,-37.45 292.06,59.466c19.456,28.746 43.958,54.052 72.118,74.826c35.548,26.258 80.822,25.6 114.396,-4.608c24.65,-22.454 48.566,-47.104 67.876,-74.02c49.884,-69.486 134.73,-104.228 218.112,-85.578c86.236,19.018 150.894,86.602 164.06,172.032c2.048,13.386 2.122,27.062 3.218,40.522c0.292,27.356 -5.998,53.248 -13.02,79.506c-6.51,24.43 -10.02,49.956 -11.85,75.118c-1.756,24.284 -2.268,48.86 1.316,72.85c7.972,54.492 41.618,80.604 96.842,79.506c14.116,-0.292 28.672,-0.074 42.276,3.146c60.782,13.97 93.258,57.27 100.352,116.298c2.634,22.09 0.586,43.886 -4.316,65.316Z" transform="scale(0.0364568)" fill="#000"></path></svg>