<?xml version="1.0" encoding="UTF-8"?><svg width="64" height="64" version="1.1" viewBox="0.00387142 -71.0916 64 64" xmlns="http://www.w3.org/2000/svg" xmlns:xlink="http://www.w3.org/1999/xlink"><!--Generated by IJSVG (https://github.com/iconjar/IJSVG)--><path d="M2046.39,-1372.93c-9.802,-82.578 -55.296,-143.214 -140.434,-162.89c-19.09,-4.462 -39.424,-4.682 -59.246,-4.316c-77.312,1.462 -124.342,-35.036 -135.606,-111.396c-4.974,-33.5 -4.17,-68.022 -1.756,-101.962c2.56,-35.328 7.46,-71.094 16.604,-105.252c9.728,-36.79 18.578,-72.996 18.212,-111.25c-1.536,-18.87 -1.61,-38.034 -4.534,-56.758c-18.358,-119.516 -108.982,-214.09 -229.668,-240.786c-116.736,-26.038 -235.52,22.602 -305.298,119.882c-27.062,37.814 -60.562,72.118 -95.012,103.644c-47.03,42.204 -110.372,43.228 -160.182,6.436c-39.424,-29.038 -73.654,-64.586 -100.938,-104.814c-92.452,-135.606 -271.36,-173.642 -408.796,-83.382c-109.568,71.9 -149.138,188.124 -128.146,317.22c5.924,36.352 17.188,71.606 23.26,107.886c8.63,50.322 12.874,101.302 4.17,152.43c-9.802,58.222 -41.034,92.892 -95.89,103.862c-14.482,2.998 -29.842,2.852 -44.69,3.584c-12.874,0.878 -25.966,0 -38.692,1.536c-45.422,6.436 -80.75,31.67 -113.664,61.66c-21.284,19.382 -34.304,43.082 -39.936,70.582c-3.364,16.75 -5.852,33.792 -5.998,50.468c-0.586,55.222 8.484,107.812 47.908,150.162c49.59,53.322 110.08,78.922 182.71,65.39c108.836,-20.114 177.444,-125.514 152.942,-233.764c-6.144,-26.332 -17.994,-51.054 -26.038,-76.874c-17.482,-55.954 -9.802,-106.57 31.964,-149.796c20.846,-21.65 46.372,-36.644 74.02,-47.616c64.732,-25.82 132.242,-30.794 200.63,-21.942c44.178,5.706 86.09,18.944 123.612,44.178c68.388,45.788 80.97,120.612 44.398,187.83c-47.25,86.966 -26.404,193.536 52.224,254.318c50.762,39.204 108.764,49.518 171.008,43.52c147.31,-14.116 234.716,-170.422 160.11,-301.788c-31.232,-54.93 -24.722,-120.832 25.014,-166.912c20.846,-19.382 45.13,-32.768 71.606,-42.642c61.732,-23.186 125.586,-27.062 190.39,-18.506c48.128,6.436 94.062,20.626 134.144,49.518c47.616,34.524 71.46,80.458 61.806,139.484c-3.584,22.236 -11.41,43.958 -19.676,65.024c-15.506,38.474 -20.772,77.97 -14.116,118.93c14.628,89.892 90.404,157.184 182.858,160.476c82.724,2.852 173.056,-53.468 192.804,-143.946c6.73,-30.208 9.654,-60.636 5.924,-91.428Zm-1021.44,-172.836c-123.83,0 -201.874,-101.302 -201.508,-201.802c0.292,-110.738 90.698,-199.46 202.606,-199.168c110.812,0.146 200.704,89.966 200.412,200.118c-0.438,100.132 -78.044,200.85 -201.508,200.85Z" transform="scale(0.0312514)" fill="#000"></path></svg>