<?xml version="1.0" encoding="UTF-8"?><svg width="64" height="64" version="1.1" viewBox="7.29137e-05 -122.662 64 64" xmlns="http://www.w3.org/2000/svg" xmlns:xlink="http://www.w3.org/1999/xlink"><!--Generated by IJSVG (https://github.com/iconjar/IJSVG)--><path d="M1658.86,-3268c-64.358,-64.424 -141.86,-96.57 -232.572,-96.57h-1097.14c-90.712,0 -168.14,32.146 -232.572,96.57c-64.424,64.286 -96.57,141.86 -96.57,232.572v1097.14c0,90.712 32.146,168.288 96.57,232.712c64.432,64.146 142,96.432 232.572,96.432h1097.14c90.712,0 168.214,-32.286 232.572,-96.57c64.432,-64.432 96.644,-141.86 96.644,-232.572v-1097.14c0,-90.712 -32.22,-168.288 -96.644,-232.572Zm-441.146,1140.94c-18.586,43.944 -45.18,83.404 -79.046,117.27c-33.866,33.866 -73.318,60.468 -117.27,79.052c-45.532,19.258 -93.856,29.024 -143.646,29.024c-49.79,0 -98.114,-9.764 -143.646,-29.024c-43.944,-18.592 -83.404,-45.188 -117.27,-79.052c-33.866,-33.864 -60.468,-73.318 -79.052,-117.27c-19.258,-45.532 -29.024,-93.864 -29.024,-143.646c0,-49.782 9.764,-98.114 29.024,-143.646c18.586,-43.944 45.18,-83.398 79.046,-117.27c33.866,-33.866 73.318,-60.46 117.27,-79.046c45.532,-19.258 93.864,-29.024 143.646,-29.024c49.782,0 98.114,9.764 143.646,29.024c15.462,6.538 30.354,14.094 44.662,22.586v-171.06c-0.03,-103.372 -84.158,-187.516 -187.546,-187.538h-0.052c-50.096,0 -97.184,19.5 -132.622,54.916c-35.446,35.424 -54.966,82.534 -54.974,132.644v42.716h-125.316v-42.738c0.022,-83.594 32.592,-162.172 91.706,-221.264c59.1,-59.07 137.662,-91.596 221.206,-91.596c0.03,0 0.088,0 0.088,0c83.552,0.014 162.106,32.57 221.184,91.656c59.078,59.086 91.626,137.64 91.656,221.192v293.962c10.036,16.172 18.848,33.142 26.332,50.842c19.258,45.532 29.024,93.864 29.024,143.646c0,49.782 -9.764,98.114 -29.024,143.646Zm-339.962,-387.314c-134.364,0 -243.668,109.312 -243.668,243.668c0,134.364 109.304,243.668 243.668,243.668c134.364,0 243.668,-109.304 243.668,-243.668c0,-134.356 -109.304,-243.668 -243.668,-243.668Zm1.208,348.166c-57.102,0 -103.388,-46.284 -103.388,-103.388c0,-57.096 46.284,-103.388 103.388,-103.388c57.096,0 103.388,46.284 103.388,103.388c-0.008,57.102 -46.292,103.388 -103.388,103.388Z" transform="scale(0.0364568)" fill="#000"></path></svg>