<?xml version="1.0" encoding="UTF-8"?><svg width="64" height="64" version="1.1" viewBox="17.1539 -122.667 64 64" xmlns="http://www.w3.org/2000/svg" xmlns:xlink="http://www.w3.org/1999/xlink"><!--Generated by IJSVG (https://github.com/iconjar/IJSVG)--><path d="M1533.95,-2378.11c-11.234,-26.558 -24.452,-51.998 -39.512,-76.258v-440.95c-0.03,-125.33 -48.86,-243.164 -137.48,-331.784c-88.62,-88.62 -206.446,-137.45 -331.776,-137.48c0,0 -0.074,0 -0.124,0c-125.322,0 -243.164,48.794 -331.812,137.392c-88.678,88.634 -137.53,206.496 -137.56,331.9v64.102h187.978v-64.08c0.014,-75.162 29.308,-145.824 82.476,-198.964c53.138,-53.124 123.78,-82.374 198.92,-82.374c0,0 0.052,0 0.074,0c155.084,0.036 281.292,126.244 281.33,281.314v256.586c-21.46,-12.734 -43.798,-24.064 -66.998,-33.88c-68.294,-28.892 -140.792,-43.534 -215.472,-43.534c-74.68,0 -147.17,14.65 -215.472,43.534c-65.916,27.882 -125.104,67.774 -175.902,118.58c-50.806,50.798 -90.698,109.984 -118.58,175.902c-28.892,68.3 -43.534,140.792 -43.534,215.472c0,74.686 14.65,147.17 43.534,215.472c27.882,65.916 67.774,125.104 118.58,175.902c50.798,50.798 109.984,90.698 175.902,118.58c68.308,28.876 140.8,43.528 215.478,43.528c74.678,0 147.17,-14.65 215.472,-43.534c65.916,-27.882 125.104,-67.774 175.902,-118.58c50.806,-50.798 90.698,-109.984 118.58,-175.902c28.884,-68.3 43.534,-140.792 43.534,-215.472c-0.008,-74.678 -14.65,-147.17 -43.534,-215.472Zm-509.952,580.982c-201.538,0 -365.502,-163.972 -365.502,-365.51c0,-201.538 163.964,-365.502 365.502,-365.502c201.538,0 365.502,163.958 365.502,365.502c0,201.544 -163.964,365.51 -365.502,365.51Zm156.884,-363.836c0,85.646 -69.43,155.078 -155.078,155.078c-85.648,0 -155.078,-69.43 -155.078,-155.078c0,-85.646 69.43,-155.078 155.078,-155.078c85.648,0 155.078,69.43 155.078,155.078Z" transform="scale(0.0364583)" fill="#000"></path></svg>