<?xml version="1.0" encoding="UTF-8"?><svg width="64" height="64" version="1.1" viewBox="7.29137e-05 -122.662 64 64" xmlns="http://www.w3.org/2000/svg" xmlns:xlink="http://www.w3.org/1999/xlink"><!--Generated by IJSVG (https://github.com/iconjar/IJSVG)--><path d="M1111.48,-2683.39c-38.4,-19.894 -90.478,-29.622 -156.746,-29.622h-163.182v483.766h153.308c43.228,0 72.192,-1.024 87.552,-3.51c15.14,-2.414 32.036,-7.388 50.322,-14.556c31.158,-11.63 58.514,-28.964 82.212,-52.298c22.966,-22.382 40.886,-48.494 53.322,-78.19c12.434,-29.476 18.944,-60.416 18.944,-92.818c0,-45.348 -11.556,-87.186 -34.304,-125.366c-22.602,-38.62 -53.028,-67.584 -91.428,-87.406Zm2.414,340.48c-10.606,10.752 -22.382,19.602 -35.254,26.844c-12.8,7.388 -28.818,13.312 -47.982,18.066c-19.164,4.754 -46.08,7.094 -80.75,7.094h-88.796v-360.374h86.674c33.5,0 57.344,1.316 72.338,3.804c15.068,2.486 31.012,7.826 47.982,15.652c16.604,7.9 31.452,17.846 44.398,30.062c35.182,32.988 52.59,75.41 52.59,127.414c0,53.028 -17.042,96.548 -51.2,131.438Zm-499.784,114.394h69.266v-484.498h-69.266v484.498Zm1044.77,-1039.51c-64.366,-64.438 -141.898,-96.548 -232.594,-96.548h-1097.14c-90.698,0 -168.156,32.11 -232.594,96.548c-64.438,64.292 -96.548,141.898 -96.548,232.594v1097.14c0,90.698 32.11,168.302 96.548,232.74c64.438,64.146 142.044,96.402 232.594,96.402h1097.14c90.698,0 168.228,-32.256 232.594,-96.548c64.438,-64.438 96.622,-141.824 96.622,-232.594v-1097.14c0,-90.698 -32.182,-168.302 -96.622,-232.594Zm-781.166,1366.31c-323.146,0 -585.142,-262.07 -585.142,-585.142c0,-323.072 261.998,-585.142 585.142,-585.142c323.144,0 585.142,262.07 585.142,585.142c0,323.072 -261.998,585.142 -585.142,585.142Zm-229.23,-957.074c-26.112,0 -47.396,21.358 -47.396,47.47c0,26.478 21.284,47.542 47.396,47.542c26.478,0 47.982,-21.066 47.982,-47.542c0,-26.112 -21.43,-47.47 -47.982,-47.47Z" transform="scale(0.0364568)" fill="#000"></path></svg>