<?xml version="1.0" encoding="UTF-8"?><svg width="64" height="64" version="1.1" viewBox="5.33334 -122.667 64 64" xmlns="http://www.w3.org/2000/svg" xmlns:xlink="http://www.w3.org/1999/xlink"><!--Generated by IJSVG (https://github.com/iconjar/IJSVG)--><path d="M1309.33,-2704.38c-25.234,-11.776 -49.078,-19.676 -71.68,-23.406c-22.528,-3.876 -58.66,-5.706 -108.69,-5.706h-129.902v540.598h133.194c51.932,0 92.306,-3.584 121.124,-10.678c28.818,-7.094 52.81,-16.018 72.046,-26.99c19.236,-10.898 36.864,-24.284 52.882,-40.302c51.274,-52.078 76.946,-117.76 76.946,-197.194c0,-78.044 -26.332,-141.75 -79.068,-191.05c-19.456,-18.286 -41.838,-33.426 -66.852,-45.276Zm-285.33,-660.188c-484.79,0 -877.714,392.996 -877.714,877.714c0,484.718 392.924,877.714 877.714,877.714c484.79,0 877.714,-392.996 877.714,-877.714c0,-484.718 -392.924,-877.714 -877.714,-877.714Zm-291.402,1265.3h-104.01v-726.82h104.01v726.82Zm-52.076,-802.742c-39.424,0 -71.534,-31.89 -71.534,-71.534c0,-39.35 32.036,-71.46 71.534,-71.46c39.57,0 71.606,32.036 71.606,71.46c-0.074,39.716 -32.036,71.534 -71.606,71.534Zm854.308,578.998c-18.724,44.398 -45.422,83.456 -80.164,117.102c-35.328,34.816 -76.434,60.854 -123.318,78.556c-27.428,10.678 -52.516,17.92 -75.41,21.65c-22.966,3.584 -66.634,5.34 -131.218,5.34h-229.888v-725.724h245.028c98.962,0 177.078,14.702 234.716,44.398c57.564,29.622 103.278,73.362 137.29,130.852c34.012,57.564 51.054,120.394 51.054,188.27c0.074,48.714 -9.436,95.232 -28.086,139.556Z" transform="scale(0.0364583)" fill="#000"></path></svg>