<?xml version="1.0" encoding="UTF-8"?><svg width="64" height="64" version="1.1" viewBox="5.33334 -122.667 64 64" xmlns="http://www.w3.org/2000/svg" xmlns:xlink="http://www.w3.org/1999/xlink"><!--Generated by IJSVG (https://github.com/iconjar/IJSVG)--><path d="M1024,-3364.57c-121.608,0 -220.19,98.582 -220.19,220.19c0,71.856 34.934,135.058 88.188,175.25c0.666,-72.404 59.444,-130.926 132,-130.926c72.556,0 131.342,58.522 132.008,130.926c53.248,-40.192 88.188,-103.388 88.188,-175.25c-0.008,-121.608 -98.59,-220.19 -220.196,-220.19Zm132,1359.99c-0.666,72.412 -59.444,130.926 -132,130.926c-72.556,0 -131.336,-58.522 -132,-130.926c-53.256,40.192 -88.188,103.388 -88.188,175.25c0,121.608 98.582,220.19 220.19,220.19c121.608,0 220.19,-98.582 220.19,-220.19c0,-71.856 -34.934,-135.058 -88.188,-175.25Zm525.526,-702.464c-71.856,0 -135.066,34.934 -175.25,88.188c72.404,0.666 130.926,59.444 130.926,132c0,72.556 -58.522,131.342 -130.918,132.008c40.192,53.248 103.388,88.188 175.25,88.188c121.6,-0.008 220.182,-98.59 220.182,-220.196c0,-121.606 -98.582,-220.19 -220.19,-220.19Zm-1270.73,220.19c5.68434e-14,-72.558 58.522,-131.342 130.926,-132c-40.192,-53.256 -103.394,-88.188 -175.25,-88.188c-121.608,0 -220.19,98.582 -220.19,220.19c0,121.608 98.582,220.19 220.19,220.19c71.856,0 135.058,-34.934 175.25,-88.188c-72.404,-0.666 -130.926,-59.444 -130.926,-132Zm1233.84,-620.64c-85.986,-85.986 -225.404,-85.986 -311.392,0c-50.812,50.812 -70.794,120.202 -61.558,186.28c-0.292,0.286 -0.644,0.476 -0.936,0.76c-51.594,51.594 -51.594,135.256 0,186.85c51.594,51.594 135.256,51.594 186.85,0c0.292,-0.292 0.476,-0.644 0.768,-0.936c66.07,9.23 135.46,-10.752 186.272,-61.558c85.98,-85.994 85.98,-225.404 -0.008,-311.398Zm-867.388,1054.23c51.594,-51.594 51.594,-135.248 0,-186.844c-51.594,-51.596 -135.256,-51.594 -186.85,0c-0.292,0.292 -0.476,0.644 -0.76,0.928c-66.078,-9.23 -135.468,10.744 -186.28,61.564c-85.994,85.986 -85.994,225.404 0,311.392c85.986,85.986 225.404,85.986 311.392,0c50.812,-50.812 70.794,-120.202 61.558,-186.28c0.3,-0.278 0.65,-0.468 0.944,-0.76Zm0,-867.188c-0.292,-0.292 -0.644,-0.476 -0.936,-0.76c9.23,-66.07 -10.752,-135.46 -61.558,-186.28c-85.994,-85.986 -225.404,-85.986 -311.392,0c-85.994,85.994 -85.994,225.404 0,311.398c50.812,50.812 120.202,70.794 186.272,61.558c0.286,0.292 0.476,0.644 0.76,0.936c51.594,51.594 135.256,51.594 186.85,0c51.594,-51.594 51.594,-135.256 0,-186.85Zm867.388,742.838c-50.812,-50.812 -120.202,-70.794 -186.28,-61.564c-0.286,-0.292 -0.468,-0.644 -0.76,-0.928c-51.594,-51.594 -135.256,-51.594 -186.85,0c-51.594,51.594 -51.594,135.248 0,186.844c0.292,0.292 0.644,0.476 0.936,0.76c-9.23,66.078 10.752,135.468 61.558,186.28c85.986,85.986 225.404,85.986 311.392,0c85.994,-85.986 85.994,-225.404 0.008,-311.392Z" transform="scale(0.0364583)" fill="#000"></path></svg>