<?xml version="1.0" encoding="UTF-8"?><svg width="64" height="64" version="1.1" viewBox="7.29137e-05 -122.662 64 64" xmlns="http://www.w3.org/2000/svg" xmlns:xlink="http://www.w3.org/1999/xlink"><!--Generated by IJSVG (https://github.com/iconjar/IJSVG)--><path d="M1658.86,-3268c-64.358,-64.424 -141.86,-96.57 -232.572,-96.57h-1097.14c-90.712,0 -168.14,32.146 -232.572,96.57c-64.424,64.286 -96.57,141.86 -96.57,232.572v1097.14c0,90.712 32.146,168.288 96.57,232.712c64.432,64.146 142,96.432 232.572,96.432h1097.14c90.712,0 168.214,-32.286 232.572,-96.57c64.432,-64.432 96.644,-141.86 96.644,-232.572v-1097.14c0,-90.712 -32.22,-168.288 -96.644,-232.572Zm-523.41,263.944c71.658,-71.658 187.838,-71.658 259.496,0c71.658,71.658 71.658,187.838 0,259.504c-42.342,42.342 -100.162,58.99 -155.232,51.296c-0.234,0.248 -0.394,0.542 -0.636,0.782c-42.994,43 -112.714,43 -155.706,0c-43,-42.994 -43,-112.714 0,-155.706c0.242,-0.242 0.534,-0.394 0.776,-0.636c-7.688,-55.07 8.968,-112.896 51.302,-155.238Zm-257.698,-214.228c101.34,0 183.494,82.146 183.494,183.494c0,59.882 -29.11,112.552 -73.494,146.038c-0.548,-60.336 -49.532,-109.108 -110,-109.108c-60.468,0 -109.45,48.772 -110,109.108c-44.384,-33.492 -73.494,-86.162 -73.494,-146.038c0,-101.346 82.154,-183.494 183.494,-183.494Zm-517.2,214.228c71.658,-71.658 187.838,-71.658 259.496,0c42.342,42.342 58.99,100.17 51.302,155.232c0.242,0.234 0.534,0.394 0.776,0.636c43,43 43,112.714 0,155.706c-42.994,43 -112.714,43 -155.706,0c-0.248,-0.242 -0.402,-0.534 -0.636,-0.782c-55.062,7.694 -112.888,-8.952 -155.232,-51.296c-71.658,-71.658 -71.658,-187.838 0,-259.496Zm-214.228,517.192c0,-101.332 82.154,-183.494 183.494,-183.494c59.882,0 112.552,29.11 146.044,73.494c-60.336,0.548 -109.108,49.532 -109.108,110c0,60.468 48.764,109.45 109.1,110.006c-33.492,44.376 -86.162,73.486 -146.038,73.486c-101.34,0 -183.494,-82.146 -183.494,-183.494Zm473.724,517.202c-71.658,71.658 -187.838,71.658 -259.496,0c-71.658,-71.658 -71.658,-187.838 0,-259.496c42.342,-42.342 100.162,-58.998 155.232,-51.302c0.234,-0.242 0.388,-0.534 0.636,-0.776c42.994,-42.994 112.714,-42.994 155.706,0c43,43 43,112.714 0,155.706c-0.242,0.248 -0.534,0.394 -0.776,0.636c7.694,55.062 -8.96,112.888 -51.302,155.232Zm257.704,214.234c-101.34,0 -183.494,-82.154 -183.494,-183.494c0,-59.89 29.118,-112.552 73.494,-146.044c0.548,60.336 49.532,109.1 110,109.1c60.468,0 109.45,-48.758 110,-109.1c44.384,33.492 73.494,86.154 73.494,146.038c0,101.346 -82.154,183.5 -183.494,183.5Zm517.194,-214.234c-71.658,71.658 -187.838,71.658 -259.496,0c-42.342,-42.342 -58.99,-100.17 -51.302,-155.232c-0.242,-0.242 -0.534,-0.394 -0.776,-0.636c-43,-42.994 -43,-112.706 0,-155.706c42.994,-42.994 112.714,-42.994 155.706,0c0.248,0.248 0.394,0.534 0.636,0.776c55.07,-7.694 112.896,8.96 155.232,51.302c71.666,71.658 71.666,187.846 0,259.496Zm30.742,-333.708c-59.882,0 -112.552,-29.11 -146.038,-73.486c60.336,-0.556 109.1,-49.532 109.1,-110.006c0,-60.468 -48.772,-109.444 -109.108,-110c33.492,-44.384 86.162,-73.494 146.044,-73.494c101.34,0 183.494,82.154 183.494,183.494c0,101.346 -82.154,183.494 -183.494,183.494Z" transform="scale(0.0364568)" fill="#000"></path></svg>