<?xml version="1.0" encoding="UTF-8"?><svg width="64" height="64" version="1.1" viewBox="9.72715 -122.667 64 64" xmlns="http://www.w3.org/2000/svg" xmlns:xlink="http://www.w3.org/1999/xlink"><!--Generated by IJSVG (https://github.com/iconjar/IJSVG)--><path d="M683.534,-2923.56c-250.712,160.512 -416.732,422.136 -416.732,702.01c-0.008,338.234 274.198,612.41 612.476,612.41c338.25,0 612.404,-274.176 612.404,-612.404c0,-261.434 -163.826,-484.732 -394.32,-572.496c-44.332,-16.86 -140.64,-47.192 -217.534,-40.718c-109.838,69.83 -243.632,213.314 -307.032,356.294c94.266,-113.05 241.24,-162.282 371.536,-141.348c191.832,31.108 338.358,197.566 338.358,398.204c0,222.858 -180.626,403.47 -403.42,403.47c-122.784,0 -232.814,-54.842 -306.776,-141.348c-109.51,-127.964 -137.692,-266.73 -115.574,-402.272c77.604,-474.632 641.082,-745.194 1060.04,-849.02c-136.734,72.338 -383.378,191.246 -555.864,320.688c503.194,194.238 584.514,-229.814 820.106,-419.576c-237.064,-92.424 -1096.27,-126.552 -1097.67,386.106Z" transform="scale(0.0364583)" fill="#000"></path></svg>