<?xml version="1.0" encoding="UTF-8"?><svg width="64" height="64" version="1.1" viewBox="7.29137e-05 -122.662 64 64" xmlns="http://www.w3.org/2000/svg" xmlns:xlink="http://www.w3.org/1999/xlink"><!--Generated by IJSVG (https://github.com/iconjar/IJSVG)--><path d="M1658.86,-3268c-64.358,-64.424 -141.86,-96.57 -232.572,-96.57h-1097.14c-90.712,0 -168.14,32.146 -232.572,96.57c-64.424,64.286 -96.57,141.86 -96.57,232.572v1097.14c0,90.712 32.146,168.288 96.57,232.712c64.432,64.146 142,96.432 232.572,96.432h1097.14c90.712,0 168.214,-32.286 232.572,-96.57c64.432,-64.432 96.644,-141.86 96.644,-232.572v-1097.14c0,-90.712 -32.22,-168.288 -96.644,-232.572Zm-823.048,512.314c114.988,-86.286 279.428,-165.566 370.578,-213.79c-279.304,69.216 -654.958,249.592 -706.678,566.024c-14.752,90.36 4.038,182.872 77.042,268.186c49.306,57.674 122.66,94.23 204.514,94.23c148.524,0 268.938,-120.408 268.938,-268.982c0,-133.764 -97.69,-244.736 -225.572,-265.472c-86.872,-13.956 -184.846,18.864 -247.69,94.23c42.262,-95.32 131.46,-190.976 204.69,-237.532c51.266,-4.316 115.47,15.908 145.02,27.144c153.666,58.506 262.882,207.382 262.882,381.666c0,225.484 -182.77,408.268 -408.268,408.268c-225.522,0 -408.32,-182.784 -408.32,-408.268c0,-186.588 110.68,-360.996 277.818,-468.012c0.936,-341.774 573.748,-319.02 731.78,-257.404c-157.052,126.508 -211.274,409.206 -546.736,279.712Z" transform="scale(0.0364568)" fill="#000"></path></svg>