<?xml version="1.0" encoding="UTF-8"?><svg width="64" height="64" version="1.1" viewBox="7.29137e-05 -122.662 64 64" xmlns="http://www.w3.org/2000/svg" xmlns:xlink="http://www.w3.org/1999/xlink"><!--Generated by IJSVG (https://github.com/iconjar/IJSVG)--><path d="M1658.86,-3268c-64.358,-64.424 -141.86,-96.57 -232.572,-96.57h-1097.14c-90.712,0 -168.14,32.146 -232.572,96.57c-64.424,64.286 -96.57,141.86 -96.57,232.572v1097.14c0,90.712 32.146,168.288 96.57,232.712c64.432,64.146 142,96.432 232.572,96.432h1097.14c90.712,0 168.214,-32.286 232.572,-96.57c64.432,-64.432 96.644,-141.86 96.644,-232.572v-1097.14c0,-90.712 -32.22,-168.288 -96.644,-232.572Zm-1138.58,1131.67c0,63.474 -3.394,110.3 -10.182,140.47c-5.712,28.24 -19.47,54.236 -39.6,74.848c-6.854,7.102 -14.328,13.554 -22.352,19.296h-155.574v-1170.23h118.806c5.962,2.084 11.798,4.506 17.482,7.248c25.008,12.354 46.116,31.386 60.986,54.988c12.31,21.496 20.29,45.194 23.478,69.756c5.376,40.594 7.702,81.532 6.956,122.478v681.15Zm202.482,-935.672h206.38c37.64,8.236 72.734,25.454 102.282,50.176c33.368,27.488 59.26,62.94 75.3,103.08c17.95,44.156 26.91,91.45 26.368,139.11c0,91.202 -30.172,164.22 -90.514,219.056c-24.906,23.494 -55.216,40.47 -88.254,49.444c-32.966,8.938 -79.974,13.386 -141.042,13.356h-90.522v-574.222Zm739.986,1170.28h-667.574c-8.016,-5.742 -15.498,-12.192 -22.346,-19.296c-19.778,-20.992 -33.368,-47.06 -39.264,-75.3c-7.088,-30.508 -10.634,-77.18 -10.634,-140.018v-331.806h181.036c80.07,0 130.59,-0.922 151.56,-2.772c65.924,-5.544 121.988,-21.878 168.192,-48.992c88.744,-52.348 133.12,-134.912 133.12,-247.676c0,-110.922 -43.746,-199.65 -131.254,-266.182c-19.456,-15.126 -40.608,-27.94 -63.02,-38.188h300.186v1170.23Z" transform="scale(0.0364568)" fill="#000"></path></svg>