<?xml version="1.0" encoding="UTF-8"?><svg width="64" height="64" version="1.1" viewBox="5.33946 -122.667 64 64" xmlns="http://www.w3.org/2000/svg" xmlns:xlink="http://www.w3.org/1999/xlink"><!--Generated by IJSVG (https://github.com/iconjar/IJSVG)--><path d="M1139.07,-2523.26c49.554,-13.466 95.028,-38.934 132.382,-74.166c90.522,-82.256 135.776,-191.788 135.776,-328.58c0.812,-71.498 -12.632,-142.432 -39.548,-208.67c-24.056,-60.212 -62.902,-113.394 -112.948,-154.616c-44.318,-37.098 -96.958,-62.924 -153.424,-75.278h-309.57v861.338h135.776c91.596,0.058 162.114,-6.62 211.558,-20.026Zm312.378,-841.222c33.624,15.368 65.346,34.59 94.538,57.278c131.254,99.796 196.878,232.886 196.878,399.272c0,169.158 -66.56,292.996 -199.68,371.522c-69.302,40.674 -153.402,65.17 -252.292,73.486c-31.452,2.772 -107.234,4.154 -227.342,4.154h-271.558v497.708c0,94.252 5.318,164.264 15.952,210.03c8.842,42.358 29.22,81.452 58.894,112.948c10.27,10.642 21.49,20.326 33.522,28.936h1001.35v-1755.33h-450.268Zm-1009.08,93.344c-22.308,-35.402 -53.964,-63.948 -91.48,-82.484c-8.536,-4.11 -17.29,-7.738 -26.222,-10.862h-178.212v1755.34h233.37c12.032,-8.608 23.252,-18.294 33.522,-28.936c30.2,-30.918 50.826,-69.91 59.4,-112.274c10.182,-45.26 15.272,-115.492 15.272,-210.71v-1021.72c1.112,-61.418 -2.378,-122.828 -10.438,-183.72c-4.776,-36.85 -16.742,-72.404 -35.21,-104.638Z" transform="scale(0.0364583)" fill="#000"></path></svg>