<?xml version="1.0" encoding="UTF-8"?><svg width="64" height="64" version="1.1" viewBox="7.29137e-05 -122.662 64 64" xmlns="http://www.w3.org/2000/svg" xmlns:xlink="http://www.w3.org/1999/xlink"><!--Generated by IJSVG (https://github.com/iconjar/IJSVG)--><path d="M943.726,-2917.33c-18.988,-5.456 -27.684,-6.262 -66.852,-6.114c-40.858,0.154 -47.236,0.848 -68.988,7.52c-47.85,14.672 -85.452,38.196 -118.564,74.16c-21.234,23.07 -32.694,40.99 -46.212,72.266c-28.446,65.792 -26.06,146.402 6.254,210.952c42.804,85.512 123.458,137.296 223.414,143.456c3.006,0.182 16.508,-0.922 30.018,-2.45c32.958,-3.738 52.342,-9.23 83.09,-23.538c69.2,-32.212 118.784,-91.918 138.394,-166.634c9.538,-36.344 10.08,-86.206 1.332,-121.82c-22.286,-90.742 -90.946,-161.632 -181.884,-187.794Zm715.132,-350.67c-64.358,-64.424 -141.86,-96.57 -232.572,-96.57h-1097.14c-90.712,0 -168.14,32.146 -232.572,96.57c-64.424,64.286 -96.57,141.86 -96.57,232.572v1097.14c0,90.712 32.146,168.288 96.57,232.712c64.432,64.146 142,96.432 232.572,96.432h1097.14c90.712,0 168.214,-32.286 232.572,-96.57c64.432,-64.432 96.644,-141.86 96.644,-232.572v-1097.14c0,-90.712 -32.22,-168.288 -96.644,-232.572Zm-402.6,717.188c-19.244,57.644 -47.368,103.878 -90.038,148.012c-33.09,34.216 -63.81,57.27 -103.636,77.766c-39.256,20.202 -73.824,31.832 -116.106,39.066c-45.304,7.754 -111.608,5.91 -155.166,-4.3c-51.792,-12.142 -105.816,-37.252 -147.954,-68.768c-28.46,-21.284 -25.702,-45.13 -25.702,222.662v234.664h-139.176v-405.892h0.014c0,-344.744 0.614,-409.592 4.038,-430.454c26.36,-160.856 148.516,-288.622 312.122,-326.444c33.946,-7.848 109.67,-10.02 146.366,-4.192c85.446,13.56 159.13,50.908 219.656,111.352c106.942,106.81 143.594,262.692 95.584,406.528Z" transform="scale(0.0364568)" fill="#000"></path></svg>