<?xml version="1.0" encoding="UTF-8"?><svg width="64" height="64" version="1.1" viewBox="14.9968 -122.667 64 64" xmlns="http://www.w3.org/2000/svg" xmlns:xlink="http://www.w3.org/1999/xlink"><!--Generated by IJSVG (https://github.com/iconjar/IJSVG)--><path d="M1434.62,-3192.58c-90.778,-90.668 -201.304,-146.696 -329.48,-167.03c-55.048,-8.734 -168.63,-5.486 -219.546,6.29c-245.408,56.73 -428.654,248.378 -468.188,489.662c-5.128,31.29 -6.056,128.564 -6.056,645.676h-0.014v608.842h208.742v-352c0,-401.694 -4.132,-365.926 38.56,-333.992c63.202,47.272 144.23,84.94 221.922,103.154c65.332,15.324 164.79,18.08 232.748,6.458c63.422,-10.848 115.266,-28.284 174.16,-58.594c59.744,-30.742 105.824,-65.324 155.458,-116.648c64.008,-66.202 106.188,-135.542 135.058,-222.01c72.032,-215.772 17.056,-449.594 -143.368,-609.806Zm-54.586,524.442c-29.404,112.076 -103.782,201.632 -207.586,249.952c-46.124,21.468 -75.206,29.704 -124.642,35.314c-20.26,2.296 -40.522,3.95 -45.02,3.672c-149.936,-9.238 -270.922,-86.922 -335.126,-215.178c-48.472,-96.826 -52.056,-217.738 -9.392,-316.43c20.282,-46.914 37.486,-73.802 69.332,-108.406c49.664,-53.95 106.064,-89.226 177.846,-111.242c32.622,-10.006 42.188,-11.052 103.476,-11.278c58.748,-0.22 71.798,0.972 100.278,9.164c136.404,39.242 239.396,145.584 272.83,281.696c13.13,53.438 12.31,128.22 -1.996,182.74Z" transform="scale(0.0364583)" fill="#000"></path></svg>