<?xml version="1.0" encoding="UTF-8"?><svg width="64" height="64" version="1.1" viewBox="7.29137e-05 -122.662 64 64" xmlns="http://www.w3.org/2000/svg" xmlns:xlink="http://www.w3.org/1999/xlink"><!--Generated by IJSVG (https://github.com/iconjar/IJSVG)--><path d="M1010.78,-2933.05c-32.22,-31.89 -79.55,-46.614 -124.298,-40.046c-47.118,6.48 -92.292,31.678 -120.078,70.642c-1.054,123.122 -0.088,246.338 -0.482,369.488c-0.394,28.27 7.314,58.354 28.064,78.65c24.24,20.926 52.992,37.222 84.678,43.484c40.8,8.096 85.936,10.664 123.516,-10.27c44.536,-23.844 71.424,-70.582 84.7,-117.884c21.11,-76.032 16.896,-156.76 1.778,-233.48c-12.654,-58.39 -34.216,-118.038 -77.876,-160.586Zm648.082,-334.95c-64.358,-64.424 -141.86,-96.57 -232.572,-96.57h-1097.14c-90.712,0 -168.14,32.146 -232.572,96.57c-64.424,64.286 -96.57,141.86 -96.57,232.572v1097.14c0,90.712 32.146,168.288 96.57,232.712c64.432,64.146 142,96.432 232.572,96.432h1097.14c90.712,0 168.214,-32.286 232.572,-96.57c64.432,-64.432 96.644,-141.86 96.644,-232.572v-1097.14c0,-90.712 -32.22,-168.288 -96.644,-232.572Zm-421.442,702.244c-32.278,77.56 -89.432,145.796 -163.892,185.782c-59.106,32.432 -128.154,45.678 -195.146,39.234c-38.568,-3.402 -77.02,-11.718 -112.436,-27.678c0.3,85.578 1.594,171.118 2.524,256.666c1.412,38.48 -1.382,77.48 6.202,115.478c2.56,10.144 5.874,21.708 15.382,27.494c9.546,5.332 20.926,3.796 31.408,4.066c18.008,0.176 36.016,-0.636 54.016,0.3c5.72,0 12.434,3.13 12.558,9.728c0.994,14.84 1.178,29.93 -0.118,44.8c-1.448,8.28 -11.74,8.192 -18.278,8.162c-83.2,-5.032 -166.604,-6.502 -249.952,-4.878c-43.6,0.512 -87.172,3.672 -130.772,4.82c-2.136,-2.618 -6.298,-4.426 -6.262,-8.25c-0.63,-13.942 -0.176,-27.882 -0.242,-41.794c-0.388,-5.238 1.806,-12.01 8.038,-12.252c23.332,-2.078 46.914,0.6 70.282,-1.206c15.594,-2.83 23.786,-18.784 26.316,-33.06c4.908,-30.326 2.918,-61.154 4.484,-91.722c0.088,-241.912 0,-483.854 0.058,-725.76c-0.03,-6.656 -0.242,-13.282 -0.878,-19.872c-1.404,-19.938 -9.684,-39.746 -25.344,-52.64c-17.43,-15.016 -38.838,-24.202 -58.712,-35.38c-7.556,-4.608 -16.86,-8.522 -20.598,-17.072c-1.178,-8.704 -1.266,-17.708 0.096,-26.382c4.148,-6.466 12.28,-8.06 18.784,-11.162c61.608,-26.77 123.034,-53.994 184.672,-80.794c14.3,-5.836 28.906,-12.464 44.618,-12.764c6.326,-0.994 9.882,4.908 13.554,8.85c7.168,31.4 9.062,63.774 15.178,95.422c12.77,-14.666 26.558,-28.452 42.094,-40.228c72.302,-55.648 170.548,-78.892 259.196,-54.382c58.99,16.172 108.456,56.306 145.912,103.614c15.718,20.444 29.784,42.422 39.6,66.362c17.708,42.102 23.128,88.196 23.332,133.544c1.148,65.792 -10.108,132.154 -35.68,192.95Z" transform="scale(0.0364568)" fill="#000"></path></svg>