<?xml version="1.0" encoding="UTF-8"?><svg width="64" height="64" version="1.1" viewBox="15.7087 -122.668 64 64" xmlns="http://www.w3.org/2000/svg" xmlns:xlink="http://www.w3.org/1999/xlink"><!--Generated by IJSVG (https://github.com/iconjar/IJSVG)--><path d="M1582.02,-3094.93c-14.724,-35.914 -35.818,-68.878 -59.392,-99.548c-56.188,-70.956 -130.392,-131.16 -218.872,-155.414c-132.966,-36.768 -280.35,-1.894 -388.798,81.568c-23.304,17.664 -43.988,38.348 -63.136,60.342c-9.172,-47.47 -12.018,-96.022 -22.77,-143.126c-5.508,-5.918 -10.84,-14.774 -20.32,-13.282c-23.582,0.454 -45.48,10.386 -66.94,19.148c-92.452,40.2 -184.59,81.028 -277,121.176c-9.758,4.652 -21.958,7.05 -28.19,16.764c-2.034,13.012 -1.894,26.514 -0.138,39.57c5.602,12.822 19.558,18.688 30.902,25.6c29.806,16.758 61.922,30.53 88.072,53.072c23.486,19.332 35.906,49.05 38.034,78.95c0.944,9.896 1.266,19.83 1.31,29.806c-0.088,362.87 0.052,725.782 -0.088,1088.65c-2.348,45.846 0.636,92.094 -6.73,137.574c-3.796,21.408 -16.076,45.348 -39.476,49.59c-35.05,2.706 -70.414,-1.31 -105.414,1.806c-9.354,0.358 -12.646,10.526 -12.062,18.38c0.088,20.868 -0.586,41.78 0.358,62.69c-0.044,5.734 6.188,8.448 9.398,12.376c65.398,-1.712 130.758,-6.458 196.154,-7.226c125.016,-2.436 250.126,-0.226 374.922,7.314c9.802,0.044 25.248,0.182 27.414,-12.236c1.946,-22.316 1.674,-44.938 0.182,-67.21c-0.182,-9.896 -10.254,-14.592 -18.834,-14.592c-27.012,-1.398 -54.016,-0.176 -81.028,-0.454c-15.712,-0.41 -32.79,1.894 -47.104,-6.1c-14.27,-8.668 -19.244,-26.016 -23.084,-41.238c-11.382,-57 -7.182,-115.492 -9.304,-173.216c-1.404,-128.314 -3.342,-256.636 -3.796,-384.994c53.116,23.94 110.796,36.404 168.652,41.508c100.498,9.662 204.062,-10.21 292.726,-58.85c111.696,-59.984 197.428,-162.334 245.84,-278.682c38.348,-91.194 55.238,-190.734 53.526,-289.426c-0.33,-68 -8.462,-137.15 -35.02,-200.294Zm-244.348,529.89c-19.916,70.964 -60.248,141.056 -127.056,176.83c-56.364,31.386 -124.072,27.546 -185.27,15.404c-47.514,-9.398 -90.646,-33.828 -127.012,-65.222c-31.114,-30.442 -42.686,-75.564 -42.094,-117.972c0.592,-184.73 -0.856,-369.554 0.724,-554.24c41.684,-58.448 109.436,-96.248 180.122,-105.962c67.116,-9.846 138.116,12.244 186.448,60.072c65.492,63.818 97.828,153.292 116.802,240.874c22.674,115.082 29.002,236.17 -2.662,350.216Z" transform="scale(0.0364587)" fill="#000"></path></svg>