<?xml version="1.0" encoding="UTF-8"?><svg width="64" height="64" version="1.1" viewBox="8.38825 -122.667 64 64" xmlns="http://www.w3.org/2000/svg" xmlns:xlink="http://www.w3.org/1999/xlink"><!--Generated by IJSVG (https://github.com/iconjar/IJSVG)--><path d="M695.742,-2844.63c13.692,-458.912 -255.612,-519.944 -255.612,-519.944v142.914c-107.168,-53.262 -210.052,-60.95 -210.052,-60.95v1166.53c0,0 448.476,-52.194 448.476,385.872c0,0 167.242,-701.14 1137.65,121.058c0,-281.57 1.726,-991.722 1.726,-1226.44c-894.698,-651.812 -1122.19,-9.04 -1122.19,-9.04Zm855.8,794.608l-56.576,-446.42h-2.048l-186.186,446.42h-80.274l-177.994,-446.42h-2.048l-64.804,446.42h-200.572l131.664,-775.402h198.524l157.418,414.398l166.7,-414.398h200.572l117.402,775.402h-201.78Z" transform="scale(0.0364583)" fill="#000"></path></svg>