<?xml version="1.0" encoding="UTF-8"?><svg width="64" height="64" version="1.1" viewBox="7.29137e-05 -122.662 64 64" xmlns="http://www.w3.org/2000/svg" xmlns:xlink="http://www.w3.org/1999/xlink"><!--Generated by IJSVG (https://github.com/iconjar/IJSVG)--><path d="M803.554,-2712.57l-87.778,516.938h133.712l43.206,-297.61h1.368l118.66,297.61h53.518l124.124,-297.61h1.368l37.712,297.61h134.518l-78.27,-516.93h-133.712l-111.126,276.26l-104.946,-276.26h-132.352Zm855.304,-555.432c-64.358,-64.424 -141.86,-96.57 -232.572,-96.57h-1097.14c-90.712,0 -168.14,32.146 -232.572,96.57c-64.424,64.286 -96.57,141.86 -96.57,232.572v1097.14c0,90.712 32.146,168.288 96.57,232.712c64.432,64.146 142,96.432 232.572,96.432h1097.14c90.712,0 168.214,-32.286 232.572,-96.57c64.432,-64.432 96.644,-141.86 96.644,-232.572v-1097.14c0,-90.712 -32.22,-168.288 -96.644,-232.572Zm-252.98,1366.29c-646.934,-548.132 -758.426,-80.706 -758.426,-80.706c0,-292.044 -298.978,-257.25 -298.978,-257.25v-777.684c0,0 68.586,5.128 140.04,40.63v-95.276c0,0 179.536,40.682 170.408,346.632c0,0 151.654,-428.514 748.112,6.026c0,156.482 -1.156,629.914 -1.156,817.628Z" transform="scale(0.0364568)" fill="#000"></path></svg>