<?xml version="1.0" encoding="UTF-8"?><svg width="64" height="64" version="1.1" viewBox="7.29166e-05 -122.667 64 64" xmlns="http://www.w3.org/2000/svg" xmlns:xlink="http://www.w3.org/1999/xlink"><!--Generated by IJSVG (https://github.com/iconjar/IJSVG)--><path d="M1658.86,-3268c-64.432,-64.424 -141.86,-96.57 -232.572,-96.57h-1097.14c-90.712,0 -168.14,32.146 -232.572,96.57c-64.424,64.286 -96.57,141.86 -96.57,232.572v1097.14c0,90.712 32.146,168.288 96.57,232.712c64.432,64.146 142,96.432 232.572,96.432h1097.14c90.712,0 168.14,-32.286 232.572,-96.57c64.424,-64.432 96.57,-141.86 96.57,-232.572v-1097.14c0,-90.712 -32.146,-168.288 -96.57,-232.572Zm-501.504,1353.71c-17.284,7.856 -45.568,12.574 -72.28,12.574c-91.144,0 -163.43,-36.14 -210.57,-92.79c-51.858,-59.64 -143.074,-188.496 -238.928,-359.856c-50.286,0 -83.288,0 -121,-3.138v262.496c0,97.44 21.994,117.87 64.424,124.146l81.716,11v45.568c-39.286,-1.572 -130.428,-4.644 -201.216,-4.644c-73.852,0 -147.712,3.072 -190.142,4.644v-45.568l59.714,-11c40.93,-7.856 64.432,-26.712 64.432,-124.146v-619.286c0,-97.426 -23.5,-116.21 -64.432,-124.138l-59.714,-11v-45.576c39.286,1.572 102.144,1.572 165.076,1.572c69.068,0 142.994,-4.71 235.71,-4.71c179.214,0 315.926,81.708 315.926,257.712c0,119.428 -94.282,238.928 -221.572,268.786c77.004,136.712 169.72,257.784 238.862,333.216c40.864,43.922 97.426,83.28 153.994,83.28v40.858Zm328.718,-1001.22c0,23.786 -0.074,45.86 -2.428,66.216c-2.29,20.356 -5.5,38.144 -9.648,51.076c-12.924,40.28 -33.214,68.996 -64.498,90.426c-31.21,21.496 -71.57,33.142 -115.426,33.142c-44.932,0 -82.93,-10.358 -113.862,-30.924c-30.998,-20.714 -53.138,-51.434 -66.64,-92.218c-2.568,-7.71 -4.644,-15.784 -6.144,-24.072c-1.572,-8.214 -2.998,-17.854 -4.294,-29.002c-1.28,-11.066 -2.208,-24.356 -2.706,-39.856c-0.498,-15.426 -0.71,-34.144 -0.71,-55.786c0,-21.642 0.212,-40.214 0.71,-55.712c0.504,-15.498 1.434,-28.79 2.706,-39.928c1.288,-11.074 2.714,-20.788 4.294,-29.002c1.492,-8.288 3.576,-16.282 6.144,-23.998c13.502,-40.784 35.642,-71.498 66.64,-92.146c30.932,-20.64 68.93,-30.998 113.862,-30.998c23.216,0 44.142,2.714 62.712,8.074c18.57,5.494 35.072,12.924 49.568,22.498c14.432,9.568 26.858,20.64 37.15,33.354c10.358,12.646 18.856,26.142 25.57,40.572c2.568,4.718 1.784,8.36 -2.362,10.928l-57.212,23.648c-4.644,2.568 -8.214,1.214 -10.854,-3.862c-12.858,-23.786 -23.786,-39.498 -41.86,-50.784c-18.074,-11.432 -34.86,-16.64 -62.712,-16.64c-30.004,0 -43.572,5.852 -62.428,19.354c-18.856,13.43 -32.432,30.07 -40.646,55.354c-1.572,4.644 -3.146,10.292 -4.71,17.072c-1.506,6.648 -2.648,15.002 -3.43,24.714c-0.79,9.786 -1.434,21.79 -2.004,36c-0.424,14.218 -0.702,31.43 -0.702,51.5c0,20.15 0.278,37.362 0.702,51.574c0.57,14.146 1.214,26.142 2.004,35.928c0.782,9.86 1.924,18.14 3.43,24.862c1.566,6.642 3.138,12.274 4.71,16.998c8.214,25.358 19.786,39.072 36.718,50.212c16.852,11.212 36.352,19.426 66.356,19.426c26.784,0 51.354,-7.644 67.284,-19.274c15.93,-11.644 29.002,-26.932 34.998,-48.076c2.574,-8.784 5.932,-19.858 8.074,-33.288c1.996,-13.422 1.996,-27.78 1.996,-47.352c0,-3.072 -1.572,-4.718 -4.644,-4.718h-91.494c-5.142,0 -7.716,-2.494 -7.716,-7.71v-52.436c0,-5.216 2.574,-7.716 7.716,-7.716h168.068c5.216,0 7.716,2.502 7.716,7.716v44.852Zm-633.644,283.004c0,-125.784 -78.57,-194.926 -210.57,-194.926c-42.43,0 -91.144,0 -127.284,3.13v394.43c36.14,3.284 59.714,4.718 113.138,4.718c139.856,0.008 224.716,-83.208 224.716,-207.352Z" transform="scale(0.0364583)" fill="#000"></path></svg>