<?xml version="1.0" encoding="UTF-8"?><svg width="64" height="64" version="1.1" viewBox="13.76 -122.667 64 64" xmlns="http://www.w3.org/2000/svg" xmlns:xlink="http://www.w3.org/1999/xlink"><!--Generated by IJSVG (https://github.com/iconjar/IJSVG)--><path d="M377.418,-1609.15v-1755.43h611.914c156.452,0 268.214,15.798 335.286,47.324c67.072,31.526 122.148,86.236 165.23,164.06c43.082,77.824 64.658,171.008 64.658,279.626c0,137.29 -32.914,247.882 -98.816,331.702c-65.902,83.82 -159.452,136.484 -280.796,158.062c62.244,44.69 113.738,93.622 154.478,146.652c40.74,53.102 96.182,148.26 166.474,285.622l174.738,342.382h-346.698l-210.212,-381.952c-75.702,-138.094 -127.122,-224.548 -154.258,-259.218c-27.136,-34.67 -55.882,-58.66 -86.236,-71.826c-30.354,-13.166 -78.994,-19.748 -146.066,-19.748h-59.978v732.746h-289.718Zm289.718,-1013.03h215.552c131.73,0 215.552,-5.778 251.466,-17.334c35.914,-11.556 65.024,-34.89 87.406,-70.07c22.382,-35.108 33.5,-81.846 33.5,-140.068c0,-55.882 -11.19,-100.79 -33.5,-134.73c-22.31,-33.94 -52.662,-57.27 -90.99,-70.07c-27.136,-8.778 -105.764,-13.166 -235.886,-13.166h-227.548v445.44Z" transform="scale(0.0364583)" fill="#000"></path></svg>