<?xml version="1.0" encoding="UTF-8"?><svg width="64" height="64" version="1.1" viewBox="7.09201 -122.189 64 64" xmlns="http://www.w3.org/2000/svg" xmlns:xlink="http://www.w3.org/1999/xlink"><!--Generated by IJSVG (https://github.com/iconjar/IJSVG)--><path d="M1194.64,-1810.86c-93.996,-102.282 -219.786,-266.57 -324.426,-452.286c172.852,-40.426 300.852,-202.716 300.852,-364.858c0,-239.002 -185.636,-349.93 -428.998,-349.93c-125.784,0 -226.144,6.356 -319.854,6.356c-85.504,0 -170.934,0 -224.146,-2.07v61.93l80.998,14.856c55.712,10.716 87.428,36.148 87.428,168.572v840.646c0,132.36 -31.714,157.93 -87.428,168.5l-80.998,15.14v61.718c57.57,-2.07 157.856,-6.29 258.216,-6.29c96,0 219.786,4.22 273.144,6.29v-61.718l-111.002,-15.14c-57.564,-8.36 -87.574,-36.14 -87.574,-168.5v-356.286c51.214,4.286 96,4.286 164.432,4.286c130.144,232.5 253.922,407.566 324.214,488.572c64.138,76.924 162.216,125.93 285.996,125.93c36.22,0 74.584,-6.364 98.004,-17.144v-55.362c-76.786,0 -153.57,-53.424 -208.86,-113.21Zm-510.142,-524.858c-72.572,0 -104.426,-1.93 -153.644,-6.568v-535.362c49.218,-4.286 115.214,-4.286 172.858,-4.286c179.354,0 285.93,94.004 285.93,264.572c0,168.572 -115.142,281.644 -305.144,281.644Zm651.36,-538.572c-2.144,-11.212 -4.074,-24.284 -5.786,-39.358c-1.784,-15.214 -2.934,-33.068 -3.642,-54.14c-0.716,-20.926 -1.002,-46.496 -1.002,-75.784c0,-29.432 0.286,-54.646 1.002,-75.644c0.71,-21.072 1.858,-39.146 3.642,-54.214c1.712,-15.002 3.642,-28.146 5.786,-39.358c2.07,-11.286 4.784,-22.002 8.288,-32.498c18.352,-55.5 48.428,-97.214 90.5,-125.22c41.998,-28 93.498,-42.064 154.638,-42.064c31.43,0 59.934,3.642 85.218,11.066c25,7.358 47.426,17.504 67.21,30.5c19.5,12.858 36.36,28 50.286,45.144c14.284,17.21 25.782,35.57 34.786,55.288c3.496,6.282 2.502,11.286 -3.072,14.782l-77.642,31.926c-6.576,3.504 -11.212,1.718 -14.862,-5.216c-17.422,-32.286 -32.286,-53.496 -56.708,-68.922c-24.714,-15.36 -47.572,-22.646 -85.218,-22.646c-40.93,0 -59.216,8.14 -84.854,26.5c-25.432,18 -44.076,40.646 -55.076,75.14c-2.208,6.218 -4.214,13.934 -6.568,23.004c-1.93,9.216 -3.504,20.502 -4.498,33.712c-1.002,13.216 -1.93,29.572 -2.786,48.86c-0.57,19.288 -0.856,42.716 -0.856,69.858c0,27.282 0.286,50.71 0.856,69.998c0.856,19.214 1.784,35.57 2.786,48.786c0.994,13.356 2.568,24.568 4.498,33.858c2.356,8.93 4.36,16.64 6.568,22.93c11,34.356 26.72,53.138 49.862,68.214c22.858,15.286 49.138,26.288 90.068,26.288c36.36,0 69.646,-10.358 91.356,-26.148c21.504,-15.784 39.358,-36.638 47.36,-65.142c3.504,-12.002 8.002,-26.932 11.074,-45.216c2.786,-18.286 2.786,-37.64 2.786,-64.352c0,-4.22 -2.362,-6.364 -6.29,-6.364h-124.358c-7,0 -10.43,-3.424 -10.43,-10.422v-71.286c0,-7.072 3.43,-10.504 10.43,-10.504h228.214c7.146,0 10.504,3.43 10.504,10.504v60.928c0,32.286 0,62.216 -3.358,89.93c-3.218,27.714 -7.57,51.712 -13.07,69.208c-17.43,54.792 -45.07,93.792 -87.428,122.858c-42.504,29.286 -97.288,45.07 -156.79,45.07c-61.14,0 -112.64,-14.066 -154.638,-41.998c-42.072,-28.284 -72.148,-69.786 -90.5,-125.286c-3.504,-10.496 -6.218,-21.284 -8.288,-32.57Z" transform="scale(0.0358056)" fill="#000"></path></svg>