<?xml version="1.0" encoding="UTF-8"?><svg width="64" height="64" version="1.1" viewBox="7.29137e-05 -122.662 64 64" xmlns="http://www.w3.org/2000/svg" xmlns:xlink="http://www.w3.org/1999/xlink"><!--Generated by IJSVG (https://github.com/iconjar/IJSVG)--><path d="M1009.47,-2635.34c14.9,-23.414 22.346,-54.55 22.346,-93.396c0,-37.252 -7.446,-67.19 -22.346,-89.804c-14.9,-22.614 -35.124,-38.18 -60.672,-46.702c-18.096,-5.852 -70.518,-8.784 -157.264,-8.784h-151.67v296.968h143.69c87.808,0 143.69,-3.854 167.636,-11.578c23.954,-7.724 43.382,-23.282 58.28,-46.702Zm649.392,-632.664c-64.358,-64.424 -141.86,-96.57 -232.572,-96.57h-1097.14c-90.712,0 -168.14,32.146 -232.572,96.57c-64.424,64.286 -96.57,141.86 -96.57,232.572v1097.14c0,90.712 32.146,168.288 96.57,232.712c64.432,64.146 142,96.432 232.572,96.432h1097.14c90.712,0 168.214,-32.286 232.572,-96.57c64.432,-64.432 96.644,-141.86 96.644,-232.572v-1097.14c0,-90.712 -32.22,-168.288 -96.644,-232.572Zm-581.208,1366.29l-140.164,-254.654c-50.49,-92.072 -84.75,-149.68 -102.846,-172.83c-18.096,-23.15 -37.252,-39.116 -57.476,-47.894c-20.224,-8.778 -52.684,-13.174 -97.39,-13.174h-39.914v488.55h-193.184v-1170.29h407.926c104.31,0 178.82,10.51 223.524,31.532c44.698,21.022 81.422,57.476 110.16,109.364c28.738,51.888 43.11,114.022 43.11,186.398c0,91.538 -21.95,165.244 -65.858,221.126c-43.908,55.882 -106.306,91.004 -187.194,105.376c41.508,29.806 75.834,62.398 102.978,97.792c27.144,35.394 64.132,98.852 110.958,190.39l116.546,228.308h-231.176Z" transform="scale(0.0364568)" fill="#000"></path></svg>