<?xml version="1.0" encoding="UTF-8"?><svg width="64" height="64" version="1.1" viewBox="7.29166e-05 -122.667 64 64" xmlns="http://www.w3.org/2000/svg" xmlns:xlink="http://www.w3.org/1999/xlink"><!--Generated by IJSVG (https://github.com/iconjar/IJSVG)--><path d="M1658.86,-3268c-64.432,-64.424 -141.86,-96.57 -232.572,-96.57h-1097.14c-90.712,0 -168.14,32.146 -232.572,96.57c-64.424,64.286 -96.57,141.86 -96.57,232.572v1097.14c0,90.712 32.146,168.288 96.57,232.712c64.432,64.146 142,96.432 232.572,96.432h1097.14c90.712,0 168.14,-32.286 232.572,-96.57c64.424,-64.432 96.57,-141.86 96.57,-232.572v-1097.14c0,-90.712 -32.146,-168.288 -96.57,-232.572Zm-1385.57,698.426v-199.066c1.13687e-13,-80.932 -6.854,-132.856 -20.854,-155.502c-13.934,-22.572 -39.072,-33.784 -75.146,-33.784h-30.998v-43.286c12.932,-2.29 26.646,-4.074 41.428,-5.362c14.79,-1.068 30.712,-1.712 48.142,-1.712c79.572,0 136.646,22.36 170.788,67.072c34.29,44.64 51.28,121.498 51.28,230.714v160.358c0,117.424 19.646,197.712 58.72,240.852c23.64,26.148 60.642,44.434 108.64,56.934c0,20.64 0,37.208 0,58.998c-100.638,-15.074 -179.712,-46.57 -237.144,-94.786c-76.712,-64.286 -114.856,-158.142 -114.856,-281.432Zm892.788,644.572h-578.64v-34.07c76.566,-1.572 126.924,-11.93 151.208,-31.144c24.356,-19.068 36.36,-59.21 36.36,-120.072v-753.928c0,-58.142 -12.002,-97.068 -36.36,-116.788c-24.284,-19.566 -74.634,-30.852 -151.208,-33.638v-34.144h580.572v34.144c-75.22,2.786 -125.286,14.072 -149.936,33.638c-24.568,19.72 -36.784,58.646 -36.784,116.788v753.928c0,58.002 12.646,97.5 37.288,117.862c24.854,20.64 74.782,31.78 149.43,33.354l-1.93,34.07Zm443.07,-1032.92h-30.998c-36.074,0 -61.214,11.212 -75.146,33.784c-13.992,22.646 -20.854,74.57 -20.854,155.502v199.066c0,123.29 -38.144,217.146 -114.856,281.432c-57.432,48.216 -136.506,79.712 -237.144,94.786c0,-21.79 0,-38.356 0,-58.998c47.996,-12.5 85,-30.786 108.646,-56.934c39.072,-43.14 58.72,-123.428 58.72,-240.852v-160.358c0,-109.216 16.998,-186.076 51.274,-230.714c34.15,-44.712 91.216,-67.072 170.788,-67.072c17.43,0 33.354,0.644 48.142,1.712c14.782,1.288 28.496,3.072 41.428,5.362v43.286Z" transform="scale(0.0364583)" fill="#000"></path></svg>