<?xml version="1.0" encoding="UTF-8"?><svg width="64" height="64" version="1.1" viewBox="5.33327 -98.3331 64 64" xmlns="http://www.w3.org/2000/svg" xmlns:xlink="http://www.w3.org/1999/xlink"><!--Generated by IJSVG (https://github.com/iconjar/IJSVG)--><path d="M590.716,-1809.72c-46.862,-51.786 -70.43,-148.144 -70.43,-289.002v-192.424c0,-131.072 -20.428,-223.29 -61.572,-276.86c-41.004,-53.708 -109.43,-80.502 -204.932,-80.502c-20.926,0 -40.068,0.79 -57.782,2.078c-17.716,1.5 -34.216,3.642 -49.716,6.43v51.924h37.216c43.286,0 73.428,13.43 90.142,40.5c16.786,27.216 25.074,89.504 25.074,186.646v238.856c0,147.932 45.714,260.572 137.786,337.716c68.93,57.856 163.782,95.642 284.57,113.788c0,-26.148 0,-46.072 0,-70.86c-57.57,-15.002 -101.998,-36.93 -130.356,-68.286Zm866.568,0c46.862,-51.786 70.43,-148.144 70.43,-289.002v-192.424c0,-131.072 20.428,-223.29 61.572,-276.86c41.004,-53.708 109.43,-80.502 204.932,-80.502c20.926,0 40.068,0.79 57.782,2.078c17.716,1.5 34.216,3.642 49.716,6.43v51.924h-37.216c-43.286,0 -73.428,13.43 -90.142,40.5c-16.786,27.216 -25.074,89.504 -25.074,186.646v238.856c0,147.932 -45.714,260.572 -137.786,337.716c-68.93,57.856 -163.782,95.642 -284.57,113.788c0,-26.148 0,-46.072 0,-70.86c57.57,-15.002 101.998,-36.93 130.356,-68.286Zm-264.858,-806.07c29.572,-23.5 89.644,-37.002 179.932,-40.36v-40.996h-696.714v40.996c91.926,3.358 152.356,16.86 181.504,40.36c29.214,23.64 43.572,70.356 43.572,140.142v904.718c0,73.07 -14.358,121.212 -43.572,144.07c-29.148,23.07 -89.578,35.496 -181.504,37.428v40.858h694.36l2.356,-40.858c-89.57,-1.93 -149.496,-15.286 -179.36,-40.068c-29.564,-24.43 -44.712,-71.79 -44.712,-141.43v-904.718c0,-69.786 14.644,-116.502 44.142,-140.142Z" transform="scale(0.0364583)" fill="#000"></path></svg>