<?xml version="1.0" encoding="UTF-8"?><svg width="64" height="64" version="1.1" viewBox="7.29137e-05 -122.763 64 64" xmlns="http://www.w3.org/2000/svg" xmlns:xlink="http://www.w3.org/1999/xlink"><!--Generated by IJSVG (https://github.com/iconjar/IJSVG)--><path d="M1658.86,-3270.77c-64.358,-64.424 -141.86,-96.57 -232.572,-96.57h-1097.14c-90.712,0 -168.14,32.146 -232.572,96.57c-64.424,64.286 -96.57,141.86 -96.57,232.572v1097.14c0,90.712 32.146,168.288 96.57,232.712c64.432,64.146 142,96.432 232.572,96.432h1097.14c90.712,0 168.214,-32.286 232.572,-96.57c64.432,-64.432 96.644,-141.86 96.644,-232.572v-1097.14c0,-90.712 -32.22,-168.288 -96.644,-232.572Zm-382.742,198.766c58.8,131.672 82.636,271.506 104.93,411.706c-4.096,1.162 -8.184,2.334 -12.28,3.504c-2.948,-8.2 -6.422,-16.252 -8.762,-24.628c-16.888,-60.372 -33.916,-120.708 -50.08,-181.278c-5.814,-21.79 -19.53,-32.636 -39.146,-43.308c-28.81,-15.668 -56.034,-35.87 -79.908,-58.404c-15.236,-14.372 -28.27,-23.136 -49.884,-22.908c-143.894,1.522 -287.802,1.668 -431.69,2.992c-9.59,0.096 -21.46,3.636 -28.248,9.918c-26.178,24.224 -50.718,50.212 -82.988,82.71c85.116,207.264 127.912,433.166 109.538,673.324c-40.864,-26.164 -72.5,-46.862 -74.378,-101.684c-9.398,-274 -93.922,-521.794 -270.504,-735.02c-3.972,-4.798 -5.946,-11.25 -8.858,-16.926h922.258Zm-1069.18,105.654c40.982,0 81.986,-0.65 122.932,0.556c8.126,0.234 19.492,5.398 23.552,11.908c122.456,196.746 217.922,403.376 230.29,639.788c0.052,0.936 -0.914,1.924 -4.41,8.792c-73.18,-250.156 -205.202,-461.956 -375.01,-651.79c0.886,-3.08 1.762,-6.166 2.648,-9.252Zm-131.818,172.12c58.544,-2.128 108.062,-4.264 157.586,-5.186c4.988,-0.096 10.876,6.502 15.052,11.146c96.6,107.454 184.268,220.986 238.306,356.768c10.284,25.826 17.32,52.948 25.856,79.47c-111.93,-176.142 -267.688,-307.858 -436.802,-442.2Zm629.402,892.51c-101.888,-162.034 -200.024,-318.106 -298.166,-474.178c1.2,-1.544 2.4,-3.08 3.598,-4.622c8.228,6.626 183.252,146.974 261.858,211.346c21.898,17.934 38.444,17.612 61.22,-0.886c267.278,-217.118 565.526,-381.454 882.198,-513.974c16.904,-7.072 34.436,-12.676 51.726,-18.826c3.84,-1.36 7.9,-2.114 13.436,-0.716c-367.734,213.562 -718.562,447.4 -975.872,801.858Z" transform="scale(0.0364568)" fill="#000"></path></svg>