<?xml version="1.0" encoding="UTF-8"?><svg width="64" height="64" version="1.1" viewBox="2.46149 -94.6944 64 64" xmlns="http://www.w3.org/2000/svg" xmlns:xlink="http://www.w3.org/1999/xlink"><!--Generated by IJSVG (https://github.com/iconjar/IJSVG)--><path d="M818.784,-1427.4c304.83,-419.914 720.442,-696.934 1156.07,-949.95c-6.56,-1.66 -11.366,-0.768 -15.916,0.848c-20.48,7.278 -41.246,13.92 -61.28,22.302c-375.15,156.986 -728.474,351.67 -1045.12,608.892c-26.976,21.914 -46.578,22.294 -72.522,1.046c-93.126,-76.258 -187.224,-151.318 -280.956,-226.83c-9.75,-7.856 -19.508,-15.696 -29.258,-23.538c-1.418,1.828 -2.846,3.65 -4.264,5.478c116.268,184.906 232.528,369.796 353.236,561.752Zm-589.488,-1261.24c-1.038,3.658 -2.084,7.306 -3.13,10.964c201.164,224.892 357.566,475.802 444.262,772.17c4.148,-8.14 5.288,-9.312 5.23,-10.422c-14.666,-280.078 -127.758,-524.866 -272.822,-757.942c-4.798,-7.716 -18.272,-13.832 -27.896,-14.11c-48.508,-1.418 -97.082,-0.658 -145.642,-0.658Zm361.318,727.772c-10.108,-31.422 -18.446,-63.554 -30.624,-94.156c-64.014,-160.864 -167.878,-295.366 -282.316,-422.656c-4.952,-5.5 -11.93,-13.312 -17.832,-13.202c-58.682,1.09 -117.336,3.628 -186.698,6.144c200.338,159.152 384.864,315.194 517.472,523.872Zm905.318,-852.94c69.662,155.984 97.902,321.654 124.314,487.746c-4.85,1.382 -9.698,2.764 -14.548,4.148c-3.496,-9.714 -7.606,-19.258 -10.378,-29.176c-20.004,-71.52 -40.178,-143.002 -59.326,-214.754c-6.89,-25.812 -23.136,-38.664 -46.38,-51.31c-34.128,-18.564 -66.378,-42.496 -94.668,-69.186c-18.052,-17.028 -33.492,-27.414 -59.092,-27.144c-170.466,1.8 -340.948,1.974 -511.414,3.54c-11.352,0.102 -25.424,4.3 -33.462,11.746c-31.012,28.708 -60.086,59.494 -98.312,98.004c100.834,245.54 151.538,513.162 129.77,797.666c-48.42,-30.998 -85.892,-55.516 -88.116,-120.458c-11.14,-324.608 -111.272,-618.166 -320.468,-870.766c-4.704,-5.684 -7.044,-13.326 -10.488,-20.056c364.186,0 728.378,0 1092.57,0Zm-677.148,1386.41c-120.7,-191.956 -236.968,-376.854 -353.228,-561.744c1.418,-1.828 2.846,-3.65 4.264,-5.478c9.75,7.848 217.096,174.116 310.214,250.368c25.944,21.24 45.546,20.868 72.522,-1.046c316.642,-257.222 669.966,-451.906 1045.12,-608.892c20.034,-8.382 40.792,-15.024 61.28,-22.302c4.55,-1.616 9.354,-2.508 15.916,-0.848c-435.638,253.008 -851.258,530.03 -1156.08,949.942Zm-589.488,-1261.24c48.552,0 97.126,-0.768 145.634,0.65c9.632,0.286 23.106,6.4 27.904,14.116c145.064,233.078 258.158,477.872 272.816,757.942c0.058,1.112 -1.082,2.282 -5.23,10.422c-86.688,-296.368 -243.09,-547.276 -444.256,-772.17c1.046,-3.658 2.092,-7.306 3.13,-10.964Zm361.318,727.772c-132.608,-208.676 -317.132,-364.72 -517.472,-523.872c69.362,-2.516 128.014,-5.054 186.698,-6.144c5.902,-0.11 12.88,7.702 17.832,13.21c114.44,127.298 218.302,261.792 282.316,422.656c12.178,30.602 20.516,62.728 30.624,94.15Z" transform="scale(0.0336536)" fill="#000"></path></svg>