<?xml version="1.0" encoding="UTF-8"?><svg width="64" height="64" version="1.1" viewBox="11.3207 -122.667 64 64" xmlns="http://www.w3.org/2000/svg" xmlns:xlink="http://www.w3.org/1999/xlink"><!--Generated by IJSVG (https://github.com/iconjar/IJSVG)--><path d="M1633.45,-2047.64c12.368,-56.97 22.286,-111.47 32.204,-165.962h2.45c22.316,0 39.65,-17.364 39.65,-37.142c0,-19.894 -14.848,-37.194 -34.684,-39.672c4.952,-54.498 7.438,-111.47 7.438,-163.488c19.808,-2.538 37.164,-17.364 37.164,-39.614c0,-19.902 -17.364,-37.2 -39.65,-37.2c-4.952,-54.498 -12.368,-106.57 -22.28,-158.53c14.84,-2.472 27.246,-17.356 27.246,-37.194c0,-19.778 -14.878,-37.134 -37.172,-37.134c-2.48,0 -7.438,0 -9.918,2.422c-14.848,-51.894 -34.656,-101.428 -59.45,-146.124c12.398,-4.966 19.836,-17.24 19.836,-32.176c0,-19.836 -17.364,-37.2 -39.65,-37.2c-4.96,0 -12.398,2.48 -17.328,4.96c-32.212,-44.574 -66.896,-86.608 -109.026,-121.388c4.966,-4.96 7.438,-12.398 7.438,-22.198c0,-19.902 -14.878,-37.258 -37.172,-37.258c-12.39,0 -22.28,4.96 -29.718,14.878c-44.61,-27.274 -94.15,-52.02 -146.162,-69.368v-9.918c0,-19.72 -14.878,-37.134 -37.164,-37.134c-17.328,0 -32.204,12.456 -37.172,27.216c-27.238,-4.9 -56.97,-9.802 -89.176,-12.28c-19.814,-71.914 -61.93,-136.324 -180.846,-123.868c0,0 4.96,54.498 2.546,103.966c-32.256,-32.226 -96.68,-54.492 -163.57,-29.748l24.774,168.566l-69.354,96.526l-66.89,24.862l-44.61,133.786l-250.214,339.31c0,0 -2.48,4.952 -2.48,12.332c0,7.498 7.438,17.482 7.438,17.482l158.552,183.266l59.458,-49.598l-2.48,74.336h180.846c0,-89.096 104.054,-242.776 173.436,-267.512h143.674c-123.868,188.342 -346.836,274.952 -364.164,507.808h-99.108v71.848h1169.31v-71.848h-104.032Zm-74.334,2.48h-817.54c7.438,-94.112 64.416,-163.548 128.826,-227.898c175.916,-173.458 317.11,-284.81 317.11,-567.318h-71.856c0,84.194 -17.328,156.108 -44.58,215.618c0,2.422 -185.798,2.422 -185.798,2.422l-52.042,-64.358l-54.498,46.994l37.164,44.574c-66.896,49.54 -138.744,151.15 -161.038,237.824h-52.004v-121.396l-22.286,-14.812l-96.622,81.708l-86.726,-104.032l230.408,-317.11l37.164,-106.51l131.306,-44.58l-19.836,-57.03l42.122,-61.93l-17.35,-121.396c37.164,17.364 64.41,42.21 64.41,104.156l66.896,12.332c19.836,-89.212 19.836,-178.418 19.836,-178.418c59.458,37.194 54.558,205.642 52.012,230.502l71.856,12.274c0,0 2.45,-24.736 2.45,-54.498c0,-19.712 0,-39.614 -2.45,-64.41c458.298,54.55 626.74,525.174 483.064,1117.29Zm-859.634,-762.924l-7.438,-91.758l116.428,-12.398l2.48,44.698l-111.47,59.458Zm-131.306,1055.36h1166.83v143.586h-1166.83v-143.586Zm-61.938,-733.412l-52.012,-19.778c17.32,-24.796 27.246,-59.458 27.246,-89.22l44.574,2.486c2.486,32.234 -2.48,81.774 -19.808,106.51Z" transform="scale(0.0364585)" fill="#000"></path></svg>