<?xml version="1.0" encoding="UTF-8"?><svg width="64" height="64" version="1.1" viewBox="7.29137e-05 -122.662 64 64" xmlns="http://www.w3.org/2000/svg" xmlns:xlink="http://www.w3.org/1999/xlink"><!--Generated by IJSVG (https://github.com/iconjar/IJSVG)--><path d="M912.45,-2937.26c1.632,16.538 1.632,29.798 1.632,42.942c0,19.836 -1.632,36.33 -1.632,36.33l-47.908,-8.184c1.696,-16.574 4.966,-128.87 -34.678,-153.666c0,0 0,59.472 -13.224,118.944l-44.596,-8.228c0,-41.29 -18.162,-57.856 -42.942,-69.434l11.572,80.926l-28.08,41.296l13.224,38.02l-87.538,29.726l-24.78,71.008l-153.6,211.404l57.82,69.354l64.416,-54.476l14.862,9.874v80.926h34.662c14.862,-57.782 62.756,-125.52 107.36,-158.552l-24.774,-29.71l36.33,-31.328l34.698,42.906c0,0 123.868,0 123.868,-1.616c18.168,-39.672 29.718,-87.618 29.718,-143.748h47.902c0,188.342 -94.134,262.576 -211.404,378.214c-42.942,42.906 -80.926,89.198 -85.892,151.932h545.032c95.78,-394.744 -16.516,-708.49 -322.048,-744.858Zm-379.874,450.876l-34.678,-13.188c11.542,-16.53 18.162,-39.636 18.162,-59.48l29.718,1.654c1.654,21.496 -1.646,54.528 -13.202,71.014Zm128.826,-214.63l-4.96,-61.17l77.62,-8.266l1.654,29.792l-74.314,39.644Zm997.456,-566.99c-64.358,-64.424 -141.86,-96.57 -232.572,-96.57h-1097.14c-90.712,0 -168.14,32.146 -232.572,96.57c-64.424,64.286 -96.57,141.86 -96.57,232.572v1097.14c0,90.712 32.146,168.288 96.57,232.712c64.432,64.146 142,96.432 232.572,96.432h1097.14c90.712,0 168.214,-32.286 232.572,-96.57c64.432,-64.432 96.644,-141.86 96.644,-232.572v-1097.14c0,-90.712 -32.22,-168.288 -96.644,-232.572Zm-307.104,1366.29h-777.888v-95.73h777.888v95.73Zm1.652,-244.436h-779.542v-47.902h66.07c11.55,-155.238 160.198,-212.978 242.776,-338.542h-95.788c-46.248,16.494 -115.616,118.952 -115.616,178.344h-120.568l1.654,-49.562l-39.636,33.068l-105.698,-122.178c0,0 -4.952,-6.648 -4.952,-11.652c0,-4.922 1.646,-8.222 1.646,-8.222l166.81,-226.208l29.74,-89.19l44.596,-16.574l46.234,-64.358l-16.522,-112.362c44.596,-16.494 87.538,-1.654 109.056,19.836c1.61,-32.98 -1.696,-69.31 -1.696,-69.31c79.272,-8.31 107.36,34.64 120.562,82.578c21.474,1.654 41.29,4.922 59.458,8.192c3.306,-9.838 13.224,-18.146 24.774,-18.146c14.862,0 24.774,11.608 24.774,24.752v6.62c34.678,11.564 67.702,28.064 97.44,46.248c4.96,-6.62 11.556,-9.926 19.814,-9.926c14.862,0 24.774,11.572 24.774,24.84c0,6.532 -1.654,11.49 -4.96,14.796c28.086,23.186 51.214,51.208 72.682,80.926c3.284,-1.654 8.244,-3.306 11.556,-3.306c14.856,0 26.426,11.572 26.426,24.802c0,9.954 -4.96,18.14 -13.224,21.446c16.53,29.798 29.74,62.822 39.636,97.418c1.646,-1.616 4.952,-1.616 6.604,-1.616c14.862,0 24.78,11.578 24.78,24.758c0,13.224 -8.266,23.15 -18.168,24.802c6.612,34.64 11.556,69.354 14.856,105.684c14.856,0 26.434,11.534 26.434,24.802c0,14.834 -11.578,24.714 -24.774,26.412c0,34.678 -1.654,72.66 -4.96,108.99c13.224,1.654 23.12,13.18 23.12,26.448c0,13.188 -11.556,24.758 -26.426,24.758h-1.632c-6.612,36.33 -13.224,72.66 -21.474,110.644h69.354v47.886Z" transform="scale(0.0364568)" fill="#000"></path></svg>