<?xml version="1.0" encoding="UTF-8"?><svg width="64" height="64" version="1.1" viewBox="7.29137e-05 -122.662 64 64" xmlns="http://www.w3.org/2000/svg" xmlns:xlink="http://www.w3.org/1999/xlink"><!--Generated by IJSVG (https://github.com/iconjar/IJSVG)--><path d="M1658.88,-3268.02c-64.366,-64.438 -141.898,-96.548 -232.594,-96.548h-1097.14c-90.698,0 -168.156,32.11 -232.594,96.548c-64.438,64.292 -96.548,141.898 -96.548,232.594v1097.14c0,90.698 32.11,168.302 96.548,232.74c64.438,64.146 142.044,96.402 232.594,96.402h1097.14c90.698,0 168.228,-32.256 232.594,-96.548c64.438,-64.438 96.622,-141.824 96.622,-232.594v-1097.14c0,-90.698 -32.182,-168.302 -96.622,-232.594Zm-330.02,362.496l-697.782,861.77h697.782v142.044h-902.218v-162.816l700.196,-865.5h-641.462v-141.97h843.484v166.474Z" transform="scale(0.0364568)" fill="#000"></path></svg>